<svg width="21" height="21" viewBox="0 0 21 21" fill="none" xmlns="http://www.w3.org/2000/svg">
<path d="M14.0342 3H5.96579C5.63271 3 5.32525 3.17929 5.15894 3.47059L1.12473 10.5294C0.958423 10.8207 0.958423 11.1793 1.12473 11.4706L5.15894 18.5294C5.32525 18.8207 5.63317 19 5.96579 19H14.0342C14.3673 19 14.6747 18.8207 14.8411 18.5294L18.8753 11.4706C19.0416 11.1793 19.0416 10.8207 18.8753 10.5294L14.8411 3.47059C14.6747 3.17929 14.3673 3 14.0342 3Z" fill="#2979FF"/>
<path d="M13.5556 16H6.44444C6.19911 16 6 15.7964 6 15.5455V6.45455C6 6.20364 6.19911 6 6.44444 6H12.2222L14 7.81818V15.5455C14 15.7964 13.8009 16 13.5556 16Z" fill="white"/>
<path d="M12 6V7.5C12 7.776 12.224 8 12.5 8H14L12 6Z" fill="#B1CFFF"/>
<path d="M9.26143 10.499H8.69347V8.67714L8.13529 8.84129V8.408L9.2091 8.03386H9.26101L9.26143 10.499ZM12 9.49143C12 9.66971 11.9792 9.824 11.9379 9.95471C11.8966 10.0846 11.8383 10.193 11.763 10.2787C11.6882 10.3644 11.5984 10.4283 11.4942 10.4699C11.3899 10.5114 11.275 10.5324 11.1495 10.5324C11.0228 10.5324 10.907 10.5114 10.8024 10.4699C10.6977 10.4283 10.608 10.3644 10.5331 10.2787C10.4582 10.193 10.3991 10.0846 10.3574 9.95471C10.3153 9.824 10.2948 9.66971 10.2948 9.49143V9.041C10.2948 8.864 10.3157 8.70971 10.3569 8.579C10.3982 8.44829 10.4565 8.33986 10.5318 8.25414C10.6067 8.16843 10.6964 8.10457 10.8007 8.063C10.9041 8.021 11.0194 8 11.1461 8C11.2716 8 11.3865 8.021 11.4912 8.06257C11.5958 8.10414 11.686 8.168 11.7613 8.25371C11.8362 8.33943 11.8945 8.44786 11.9366 8.57857C11.9787 8.70929 12 8.86357 12 9.04057V9.49143ZM11.4333 8.96857C11.4333 8.87043 11.4265 8.78814 11.4133 8.72043C11.3997 8.654 11.381 8.59914 11.3563 8.55714C11.3316 8.51557 11.3014 8.48557 11.2661 8.46757C11.2308 8.44957 11.1912 8.44057 11.1461 8.44057C11.1015 8.44057 11.0611 8.44957 11.0257 8.46757C10.9904 8.48557 10.9606 8.51557 10.9368 8.55714C10.9126 8.59871 10.8943 8.65357 10.8815 8.72043C10.8688 8.78814 10.8624 8.87043 10.8624 8.96857V9.56129C10.8624 9.66157 10.8683 9.746 10.8815 9.81371C10.8943 9.88143 10.9134 9.93629 10.9381 9.977C10.9628 10.0186 10.993 10.0481 11.0287 10.0661C11.0645 10.0841 11.1049 10.0931 11.1495 10.0931C11.1934 10.0931 11.2325 10.0841 11.2678 10.0661C11.3031 10.0481 11.3333 10.0186 11.358 9.977C11.3827 9.93629 11.401 9.88143 11.4142 9.81371C11.4269 9.746 11.4337 9.662 11.4337 9.56129L11.4333 8.96857ZM9.70517 12.959C9.70517 13.1373 9.68432 13.2916 9.64306 13.4223C9.60179 13.5521 9.5435 13.6606 9.4682 13.7463C9.39332 13.832 9.30355 13.8959 9.19932 13.9374C9.09509 13.979 8.98022 14 8.85471 14C8.72793 14 8.61221 13.979 8.50755 13.9374C8.40289 13.8959 8.31313 13.832 8.23825 13.7463C8.16337 13.6606 8.10423 13.5521 8.06254 13.4223C8.02042 13.2916 8 13.1373 8 12.959V12.5086C8 12.3316 8.02085 12.1773 8.06211 12.0466C8.10338 11.9159 8.16167 11.8074 8.23697 11.7217C8.31185 11.636 8.40162 11.5721 8.50585 11.5306C8.61008 11.489 8.72538 11.468 8.85216 11.468C8.97766 11.468 9.09253 11.489 9.19719 11.5306C9.30185 11.5721 9.39204 11.636 9.46735 11.7217C9.54223 11.8074 9.60051 11.9159 9.64263 12.0466C9.68475 12.1773 9.70602 12.3316 9.70602 12.5086V12.959H9.70517ZM9.13891 12.4357C9.13891 12.3376 9.1321 12.2553 9.11891 12.1876C9.1053 12.1211 9.08658 12.0663 9.0619 12.0243C9.03723 11.9827 9.00702 11.9527 8.97171 11.9347C8.9364 11.9167 8.89683 11.9077 8.85173 11.9077C8.80664 11.9077 8.76665 11.9167 8.73133 11.9347C8.69602 11.9527 8.66624 11.9827 8.64242 12.0243C8.61817 12.0659 8.59987 12.1207 8.58711 12.1876C8.57435 12.2553 8.56796 12.3376 8.56796 12.4357V13.0284C8.56796 13.1287 8.57392 13.2131 8.58711 13.2809C8.59987 13.3486 8.61902 13.4034 8.64369 13.4441C8.66837 13.4857 8.69857 13.5153 8.73431 13.5333C8.77005 13.5513 8.81047 13.5603 8.85514 13.5603C8.89896 13.5603 8.9381 13.5513 8.97341 13.5333C9.00872 13.5153 9.03893 13.4857 9.0636 13.4441C9.08828 13.4034 9.10657 13.3486 9.11976 13.2809C9.13252 13.2131 9.13933 13.1291 9.13933 13.0284V12.4357H9.13891ZM11.5563 13.9661H10.9883V12.1443L10.4301 12.3084V11.8751L11.5039 11.501H11.5558L11.5563 13.9661Z" fill="#03A9F4"/>
</svg>
