<svg xmlns="http://www.w3.org/2000/svg" width="20" height="20" viewBox="0 0 80 80">
    <path d="M39.5 4h1v10.5h3c.875.137 1.691.29 2.547.5q.337.082.68.168c3.746.98 7.503 2.812 10.273 5.582.082-2.64.164-5.281.25-8h1v9h9v1c-3.96.125-3.96.125-8 .25.66.824 1.32 1.648 2 2.5 2.848 4.27 4.25 8.871 4.25 14H76v1H65.5v3a24 24 0 0 1-.39 2.188c-.044.19-.09.378-.133.574C63.969 50.32 61.914 53.805 59.25 57l7.75.25.25 1h-9v9l-1-.25-.25-7.75c-.906.742-1.816 1.484-2.75 2.25-.691.434-1.34.824-2.062 1.188-.18.093-.36.183-.543.28C48.03 64.782 44.562 65.5 40.5 65.5V76h-1V65.5h-3c-2.57-.293-4.871-.984-7.25-2q-.625-.253-1.25-.5v-.5c-.578-.164-1.156-.328-1.75-.5v-.5l-.5-.14C25 61 25 61 23 59.25c-.082 2.64-.164 5.281-.25 8h-1c-.125-4.332-.125-4.332-.25-8.75h-9c.25-1 .25-1 .5-1.25.555-.04 1.11-.062 1.664-.078.168-.008.332-.012.504-.016l1.598-.047q.537-.018 1.082-.03c.882-.028 1.77-.056 2.652-.079l-.27-.398q-.61-.892-1.214-1.79l-.426-.624c-.137-.2-.27-.399-.41-.606-.125-.184-.246-.367-.375-.555-.305-.527-.305-.527-.442-1.078q-.054-.222-.113-.449l-.5-.25a27 27 0 0 1-.625-1.656c-.16-.453-.16-.453-.32-.914-2-6.094-2-6.094-1.305-8.18H4v-1h10.5q-.122-.369-.25-.75c.477-6.066 2.547-11.137 6.5-15.75-2.64-.082-5.281-.164-8-.25v-1h9v-9h1c.082 2.64.164 5.281.25 8 .824-.66 1.648-1.32 2.5-2 4.27-2.848 8.871-4.25 14-4.25zm1 11.25c-.082 3.16-.082 3.16.5 6.25.262.32.262.32.86.281.269 0 .538-.004.82-.004h.922q.503.001 1.007-.004h1.028q1.349 0 2.699-.007 1.377-.002 2.754-.004l5.41-.012q-.369-.122-.75-.25c-.125-.371-.125-.371-.25-.75-4.14-3.52-9.629-5.293-15-5.5M23.75 21.5v.25h15c.824-2.059.785-4.055.75-6.25-5.7-.395-11.621 2.145-15.75 6m13.117 1.023q-.439.005-.894.016c-.32.004-.641.012-.973.016-.328.004-.656.011-.992.015l-2.613.047c-.887.016-1.778.028-2.665.043q-2.615.045-5.23.09a52 52 0 0 0 3.29 3.563l.495.496c.52.515 1.04 1.035 1.559 1.55q.533.53 1.062 1.059Q31.203 30.712 32.5 32c.84-.348.84-.348 1.266-1.14q.117-.3.234-.61.369-.122.75-.25c1.61-2.234 3.105-4.812 3.75-7.5-.543 0-1.09.016-1.633.023m4.633.227c1.016 2.734 1.016 2.734 2.375 5.234l.32.504c3.172 4.813 7.668 8.051 13.055 10.012V22.75zm-20 .75c-3.367 4.066-6.074 9.188-6.016 14.594q.004.396.008.804l.008.602c2.066.05 4 .086 6-.5.32-.262.32-.262.281-.86 0-.269-.004-.538-.004-.82v-.922q.001-.504-.004-1.007v-1.028q0-1.349-.007-2.699-.002-1.377-.004-2.754l-.012-5.41zm36.75 0v15.25c1.559.625 2.785.785 4.453.766.262 0 .262 0 .524-.004L64.5 39.5c.332-4.79-1.457-9.887-4.25-13.75q-.369-.122-.75-.25-.051-.223-.11-.453c-.132-.707-.132-.707-1.14-1.547m-35.5.25V38.5c2.86-1.09 2.86-1.09 5.453-2.547l.535-.332c.43-.273.848-.57 1.262-.871v-.5q.217-.093.438-.187c.636-.356 1.058-.79 1.562-1.313l-3.832-3.844-1.305-1.312q-.932-.937-1.87-1.875-.293-.294-.59-.598a71 71 0 0 1-1.032-1.031c-.316-.367-.316-.367-.621-.34m17 2.5-.34.695c-1.215 2.418-2.644 4.508-4.41 6.555q-.238.28-.488.566C32.21 36.527 29.188 38.398 26.25 40c.816.656 1.688 1.129 2.61 1.625 4.87 2.715 8.574 7.086 10.89 12.125h.5q.37-.719.734-1.437l.414-.81c.282-.6.477-1.108.602-1.753h.5a26 26 0 0 0 1.125-1.437q.152-.2.305-.407c.414-.558.789-1.09 1.078-1.722.32-.575.652-.657 1.242-.934a72 72 0 0 0 1.313-1.14c1.496-1.297 3.124-2.227 4.867-3.157.812-.398.812-.398 1.32-.953-.121-.07-.242-.145-.371-.215-2.234-1.32-4.383-2.625-6.34-4.34A6.2 6.2 0 0 0 45.5 34.5V34H45q-.082-.193-.168-.39c-.465-.852-1.059-1.59-1.645-2.36a24.7 24.7 0 0 1-2.937-5zM15.5 40.5c-.402 5.809 2.281 11.645 6 16h.25V41.25c-2.46-.668-2.46-.668-4.812-.797-.41.012-.41.012-.833.02-.3.015-.3.015-.605.027m42.75.75V56.5c1.05-1.04 1.05-1.04 1.953-2.156q.158-.211.317-.43c.292-.445.292-.445.23-1.164h.5q.487-.989.969-1.984.136-.274.277-.559c.547-1.14.918-2.219 1.156-3.465.137-.683.371-1.332.598-1.992.234-.957.277-1.844.266-2.828q-.004-.398-.008-.809-.001-.303-.008-.613-.86-.03-1.719-.047c-.32-.008-.636-.016-.968-.027-1.325.054-1.325.054-3.563.824m-35.5.5v15.5l15.75.25c-.5-1.496-.96-2.785-1.703-4.14-.086-.16-.176-.32-.266-.489-.984-1.797-.984-1.797-2.281-3.371h-.5c-.047-.172-.094-.34-.14-.516-.844-1.726-2.567-2.902-4.11-3.984l-.555-.39c-2.883-2.016-2.883-2.016-6.195-2.86m31.766.86c-.188.09-.38.175-.575.269-1.738.844-3.199 1.89-4.691 3.121q-.625.5-1.25 1c.344.77.738 1.3 1.332 1.895.172.167.34.34.516.515.273.27.273.27.55.547.188.188.375.375.57.566q.592.593 1.188 1.184.916.907 1.824 1.82l1.153 1.149.554.554.512.504c.149.149.297.297.453.45.301.343.301.343.598.316V41.75c-1.031 0-1.816.43-2.734.86M47 48c-2.258 2.422-4.687 5.73-5.5 9l.25.5c7.176-.125 7.176-.125 14.5-.25-1.148-1.355-1.148-1.355-2.355-2.637-.223-.226-.223-.226-.454-.453q-.228-.233-.468-.472l-.496-.497q-.516-.513-1.032-1.027l-1.582-1.582c-.332-.336-.668-.668-1-1.004-.16-.156-.316-.316-.48-.48-.598-.743-.598-.743-1.383-1.098M23.5 58.25c4.195 4.195 10.14 6.273 16 6.5q.03-.921.047-1.844c.008-.168.012-.34.02-.515.023-1.602-.317-2.473-.817-4.141zm17.75 0c-.64 1.602-.785 2.867-.766 4.578 0 .184.004.371.004.563l.012 1.359c5.895-.457 11.703-2.203 16-6.5zm0 0" style="stroke:none;fill-rule:nonzero;fill:#69a5ff;fill-opacity:1"/>
    <path d="M21.25 22.5c0 .75 0 .75-.5 1.5.246.125.246.125.5.25-.14.168-.277.336-.422.508-3.34 4.199-4.805 8.949-5.328 14.242q-.369.122-.75.25l-.25 1.25H4v-1h10.5q-.122-.369-.25-.75c.484-6.14 2.61-11.836 7-16.25m0 0" style="stroke:none;fill-rule:nonzero;fill:#378dff;fill-opacity:1"/>
    <path d="m56.64 58.484.61.016c.125.246.125.246.25.5-4.875 3.762-10.129 6.75-16.5 6.5l-.25-1c.262-.023.52-.043.79-.066 5.202-.485 10.925-5.848 15.1-5.95m0 0" style="stroke:none;fill-rule:nonzero;fill:#388dff;fill-opacity:1"/>
    <path d="M23 58c.754.496 1.496.996 2.227 1.527 4.117 2.985 8.472 4.434 13.523 4.973v1c-3.344.18-6.45-.695-9.5-2q-.625-.253-1.25-.5v-.5c-.578-.164-1.156-.328-1.75-.5v-.5l-.5-.14c-1.059-.508-2.008-1.192-2.75-2.11-.059-.684-.059-.684 0-1.25m0 0" style="stroke:none;fill-rule:nonzero;fill:#417cff;fill-opacity:1"/>
    <path d="M14.75 41.25h.75c.059.45.059.45.121.906.484 3.477 1.293 6.614 2.926 9.75.246.715.16 1.13-.047 1.844-.645-.75-1.043-1.285-1.25-2.25l-.5-.25a27 27 0 0 1-.625-1.656q-.156-.452-.32-.914C15.03 46.32 14.363 44 14.5 41.5zm0 0" style="stroke:none;fill-rule:nonzero;fill:#3f7bff;fill-opacity:1"/>
    <path d="M14.5 37.75c.375.328.375.328.75.75v.75h-.5l-.25 1.25H4v-1h10.5c-.125-.371-.125-.371-.25-.75.11-.547.11-.547.25-1m0 0" style="stroke:none;fill-rule:nonzero;fill:#3d77ff;fill-opacity:1"/>
    <path d="M39.5 65.5h1V76h-1zm0 0" style="stroke:none;fill-rule:nonzero;fill:#3d76ff;fill-opacity:1"/>
    <path d="M42.332 57.219c.254 0 .512.004.777.004h.88c.476 0 .476 0 .956.004h.977q1.282 0 2.566.007c.875 0 1.746.004 2.621.004l5.141.012v.25c-1.664.16-3.29.281-4.96.21-.544 0-.544 0-.962.286-1.203.527-2.637.336-3.937.332-.547 0-1.094.008-1.641.012h-1.04c-.315 0-.632.004-.956.004L42 58.25q-.244-.369-.5-.75c.25-.25.25-.25.832-.281m0 0" style="stroke:none;fill-rule:nonzero;fill:#3b92ff;fill-opacity:1"/>
    <path d="M37.5 14.75q-.122.369-.25.75c-.441.18-.441.18-1.012.305l-.636.14q-.335.074-.68.149c-1.809.418-3.453.898-5.14 1.676-.532.23-.532.23-1.032.23l-.25-1c1.93-.93 3.813-1.64 5.906-2.11.192-.042.383-.085.582-.132.93-.195 1.606-.281 2.512-.008m0 0" style="stroke:none;fill-rule:nonzero;fill:#89b5ff;fill-opacity:1"/>
    <path d="M65.25 42.5c.332 1.094.11 2.004-.14 3.094-.044.199-.09.394-.133.597-.446 1.875-1.141 3.575-1.977 5.309l-1-.25.203-.594c.238-.722.457-1.445.672-2.172.191-.648.383-1.254.656-1.875.223-.617.258-1.086.297-1.734.082-.95.16-1.11.813-1.89q.299-.239.609-.485m0 0" style="stroke:none;fill-rule:nonzero;fill:#8bb6ff;fill-opacity:1"/>
    <path d="M12.75 21.75h9l-.5.25q-.122.369-.25.75h-8.25zm0 0" style="stroke:none;fill-rule:nonzero;fill:#57a0ff;fill-opacity:1"/>
    <path d="M21.75 29c.164.328.328.66.5 1l.25.25c.023.613.027 1.219.023 1.828v.555q0 .879-.007 1.758c0 .394-.004.793-.004 1.187L22.5 38.5q-.491.244-1 .5c.082-3.3.164-6.602.25-10m0 0" style="stroke:none;fill-rule:nonzero;fill:#3092ff;fill-opacity:1"/>
    <path d="M21.25 22.5c0 .75 0 .75-.5 1.5l.5.25-1.094 1.469c-.101.14-.207.277-.312.422-.426.566-.84 1.105-1.344 1.609H18c-.406.363-.406.363-.75.75.352-1.297.934-2.219 1.719-3.281l.328-.461c.598-.82 1.207-1.563 1.953-2.258m0 0" style="stroke:none;fill-rule:nonzero;fill:#3993ff;fill-opacity:1"/>
    <path d="M28.25 21.75h7c-1 1-1 1-1.64 1.09l-.715-.047c-.258-.016-.512-.027-.778-.043q-.396-.032-.804-.062-.403-.023-.817-.051-1.001-.06-1.996-.137-.122-.369-.25-.75m0 0" style="stroke:none;fill-rule:nonzero;fill:#79b1ff;fill-opacity:1"/>
    <path d="M57.25 22.75h.25v12q.369.122.75.25v1h-.5q-.122.369-.25.75h-.25zm0 0" style="stroke:none;fill-rule:nonzero;fill:#8bb5ff;fill-opacity:1"/>
    <path d="M28.75 17.25v1c-.523.418-1.004.746-1.578 1.078l-.45.281c-.437.262-.437.262-1.222.641q-.369-.122-.75-.25c.523-1.012 1.016-1.512 2-2.078q.323-.194.656-.387c.594-.285.594-.285 1.344-.285m0 0" style="stroke:none;fill-rule:nonzero;fill:#7bb1ff;fill-opacity:1"/>
    <path d="M12.75 21.75h5.75c-.805.805-.867.844-1.918.879-.223.008-.445.016-.676.027-.23.004-.465.012-.703.016-.351.012-.351.012-.71.027-.583.02-1.161.035-1.743.051zm0 0" style="stroke:none;fill-rule:nonzero;fill:#3c9bff;fill-opacity:1"/>
    <path d="M37.5 14.75q-.122.369-.25.75c-.637.266-.637.266-1.437.469q-.391.106-.793.219c-.926.074-1.286-.141-2.02-.688.742-.406 1.422-.629 2.25-.797q.314-.065.64-.137c.618-.066 1.024-.007 1.61.184m0 0" style="stroke:none;fill-rule:nonzero;fill:#a4c0ff;fill-opacity:1"/>
    <path d="m41 21.5 4.25.25q-.122.369-.25.75c-1.238.164-2.477.328-3.75.5zm0 0" style="stroke:none;fill-rule:nonzero;fill:#9ebcff;fill-opacity:1"/>
    <path d="M65.25 42.5c.344.941.148 1.613-.11 2.563q-.106.402-.218.816-.083.304-.172.621-.369-.122-.75-.25c-.191-2.195-.191-2.195.277-2.945.348-.336.348-.336.973-.805m0 0" style="stroke:none;fill-rule:nonzero;fill:#9ebdff;fill-opacity:1"/>
    <path d="m57.25 58.5.25.5q-.54.44-1.078.875c-.2.164-.399.324-.606.492-.566.383-.566.383-1.316.383.21-.797.371-1.367.953-1.969.645-.332 1.082-.34 1.797-.281m0 0" style="stroke:none;fill-rule:nonzero;fill:#469bff;fill-opacity:1"/>
    <path d="M58.25 63.25v4l-1-.25q.041-.867.094-1.734.024-.48.054-.977.049-.386.102-.789c.5-.25.5-.25.75-.25m0 0" style="stroke:none;fill-rule:nonzero;fill:#3898ff;fill-opacity:1"/>
    <path d="M64 57.5h3.25v.75H64zm0 0" style="stroke:none;fill-rule:nonzero;fill:#75afff;fill-opacity:1"/>
    <path d="M21.75 12.75h.75V16l-.25-.5h-.5zm0 0" style="stroke:none;fill-rule:nonzero;fill:#74afff;fill-opacity:1"/>
    <path d="M21.25 22.5c0 .75 0 .75-.5 1.5l.5.25c-.437.516-.437.516-1 1-.535-.094-.535-.094-1-.25q.359-.485.719-.969c.133-.18.265-.36.406-.547.375-.484.375-.484.875-.984m0 0" style="stroke:none;fill-rule:nonzero;fill:#489bff;fill-opacity:1"/>
    <path d="M61.25 53.75c-.117 1.063-.742 1.55-1.5 2.25l-.25-1.25c1.188-1 1.188-1 1.75-1m0 0" style="stroke:none;fill-rule:nonzero;fill:#6aa9ff;fill-opacity:1"/>
    <path d="M35.5 15c-.203.484-.203.484-.5 1q-.369.122-.75.25c-.672-.36-.672-.36-1.25-.75 1.691-.906 1.691-.906 2.5-.5m0 0" style="stroke:none;fill-rule:nonzero;fill:#98bbff;fill-opacity:1"/>
    <path d="M26.5 18.5c-.047.594-.047.594-.25 1.25-.64.328-.64.328-1.25.5l-.25-.5c1.188-1.25 1.188-1.25 1.75-1.25m0 0" style="stroke:none;fill-rule:nonzero;fill:#6facff;fill-opacity:1"/>
    <path d="M12.75 21.75h1.75q-.122.369-.25.75l-1.5.25zm0 0" style="stroke:none;fill-rule:nonzero;fill:#3393ff;fill-opacity:1"/>
</svg>