<svg width="820" height="800" viewBox="0 0 820 800" fill="none"
    xmlns="http://www.w3.org/2000/svg">
    <g clip-path="url(#clip0_2290_7058)">
        <path d="M410.005 0C183.467 0 0 183.52 0 410.123C0 591.61 117.362 744.884 280.334 799.199C300.828 802.799 308.499 790.495 308.499 779.73C308.499 769.994 308.004 737.716 308.004 703.335C205.003 722.31 178.372 678.225 170.177 655.187C165.539 643.38 145.579 606.966 128.106 597.23C113.775 589.528 93.2686 570.553 127.609 570.058C159.91 569.563 182.982 599.798 190.682 612.102C227.579 674.151 286.518 656.683 310.087 645.906C313.653 619.269 324.416 601.325 336.221 591.054C244.983 580.824 149.692 545.443 149.692 388.56C149.692 343.98 165.558 307.071 191.693 278.361C187.589 268.092 173.259 226.047 195.796 169.659C195.796 169.659 230.127 158.894 308.56 211.703C341.365 202.464 376.189 197.865 411.057 197.865C445.893 197.865 480.757 202.504 513.552 211.703C591.986 158.389 626.286 169.659 626.286 169.659C648.852 226.038 634.481 268.092 630.389 278.361C656.524 307.071 672.421 343.444 672.421 388.56C672.421 545.938 576.583 580.784 485.357 591.054C500.222 603.893 513.027 628.498 513.027 666.944C513.027 721.794 512.532 765.87 512.532 779.709C512.532 790.476 520.232 803.315 540.697 799.22C702.668 744.884 820 591.075 820 410.123C820 183.52 636.533 0 410.005 0Z" fill="black"/>
    </g>
    <defs>
        <clipPath id="clip0_2290_7058">
            <rect width="820" height="800" fill="white"/>
        </clipPath>
    </defs>
</svg>
