<svg width="24" height="24" viewBox="0 0 24 24" fill="none"
    xmlns="http://www.w3.org/2000/svg">
    <g clip-path="url(#clip0_3608_370)">
        <path d="M16.5672 4.18873C16.2952 3.33484 15.5046 2.75293 14.6064 2.75293H13.9297C12.9429 2.75293 12.089 3.46134 11.9119 4.42908L10.9062 9.83073L11.2099 8.83136C11.4692 7.96482 12.2725 7.37026 13.177 7.37026H16.3205L18.1232 8.00277L19.0846 7.37659C18.1865 7.37659 17.3958 6.79468 17.1238 5.94079L16.5672 4.18873Z" fill="url(#paint0_radial_3608_370)"/>
        <path d="M7.65076 18.572C7.91642 19.4322 8.71338 20.0141 9.61155 20.0141H10.9461C12.072 20.0141 12.9828 19.1097 13.0018 17.9901L13.0714 13.0249L12.7994 13.9231C12.5401 14.7896 11.7368 15.3842 10.8323 15.3842H7.68871L6.06316 14.6505L5.15234 15.3905C6.05051 15.3905 6.84747 15.9724 7.11313 16.8326L7.65076 18.572Z" fill="url(#paint1_radial_3608_370)"/>
        <path d="M14.4681 2.75293H7.27642C5.22076 2.75293 3.98736 5.40315 3.1651 8.05337C2.19103 11.1906 0.919683 15.3905 4.6009 15.3905H7.73183C8.64264 15.3905 9.44593 14.7896 9.70526 13.9104C10.2429 12.0635 11.1917 8.85666 11.9317 6.41517C12.3112 5.16912 12.6211 4.10018 13.1082 3.43604C13.3802 3.06286 13.8356 2.75293 14.4681 2.75293Z" fill="url(#paint2_linear_3608_370)"/>
        <path d="M14.4681 2.75293H7.27642C5.22076 2.75293 3.98736 5.40315 3.1651 8.05337C2.19103 11.1906 0.919683 15.3905 4.6009 15.3905H7.73183C8.64264 15.3905 9.44593 14.7896 9.70526 13.9104C10.2429 12.0635 11.1917 8.85666 11.9317 6.41517C12.3112 5.16912 12.6211 4.10018 13.1082 3.43604C13.3802 3.06286 13.8356 2.75293 14.4681 2.75293Z" fill="url(#paint3_linear_3608_370)"/>
        <path d="M9.53516 20.014H16.7268C18.7825 20.014 20.0159 17.3638 20.8381 14.7136C21.8122 11.5763 23.0835 7.37646 19.4023 7.37646H16.2714C15.3606 7.37646 14.5573 7.97735 14.298 8.85654C13.7603 10.7035 12.8116 13.9103 12.0715 16.3518C11.692 17.5978 11.3821 18.6668 10.8951 19.3309C10.6231 19.7041 10.1677 20.014 9.53516 20.014Z" fill="url(#paint4_radial_3608_370)"/>
        <path d="M9.53516 20.014H16.7268C18.7825 20.014 20.0159 17.3638 20.8381 14.7136C21.8122 11.5763 23.0835 7.37646 19.4023 7.37646H16.2714C15.3606 7.37646 14.5573 7.97735 14.298 8.85654C13.7603 10.7035 12.8116 13.9103 12.0715 16.3518C11.692 17.5978 11.3821 18.6668 10.8951 19.3309C10.6231 19.7041 10.1677 20.014 9.53516 20.014Z" fill="url(#paint5_linear_3608_370)"/>
        <path d="M9.60874 15.3906H20.8674C21.4177 15.3906 21.8668 15.8397 21.8668 16.39V20.2546C21.8668 20.8049 21.4177 21.254 20.8674 21.254H9.60874C9.05846 21.254 8.60938 20.8049 8.60938 20.2546V16.39C8.60938 15.8397 9.05846 15.3906 9.60874 15.3906Z" fill="black"/>
        <path fill-rule="evenodd" clip-rule="evenodd" d="M9.42188 16.5103V20.0839H10.0797V17.5096L10.8007 18.9391H11.2435L11.9519 17.5096V20.0839H12.635V16.5103H11.876L11.0474 18.1674L10.2252 16.5103H9.42188ZM14.3555 20.1282C13.9633 20.1282 13.6597 20.0333 13.4383 19.8499C13.2233 19.6602 13.1094 19.3819 13.1094 19.0023H13.7609C13.7609 19.1795 13.8115 19.3186 13.9127 19.4198C14.0139 19.521 14.1594 19.5716 14.3491 19.5716C14.5136 19.5716 14.6401 19.5273 14.7286 19.4451C14.8172 19.3629 14.8615 19.2237 14.8615 19.0403C14.8615 18.8632 14.8045 18.7367 14.697 18.6545C14.5895 18.5722 14.4503 18.5343 14.2732 18.5343H14.0582V17.9967H14.2922C14.4503 17.9967 14.5705 17.9524 14.6654 17.8702C14.7603 17.7879 14.8045 17.6741 14.8045 17.5349C14.8045 17.3958 14.7603 17.2882 14.678 17.225C14.5958 17.1554 14.482 17.1238 14.3428 17.1238C14.1847 17.1238 14.0645 17.1681 13.976 17.2566C13.8874 17.3452 13.8431 17.4653 13.8431 17.6171H13.1916C13.1916 17.3768 13.2422 17.1807 13.3371 17.0289C13.4383 16.8771 13.5775 16.7633 13.7483 16.681C13.919 16.6051 14.1151 16.5672 14.3302 16.5672C14.5326 16.5672 14.716 16.5988 14.8868 16.6684C15.0575 16.7316 15.1904 16.8328 15.2979 16.9657C15.3991 17.0985 15.456 17.2756 15.456 17.4843C15.456 17.6994 15.4054 17.8702 15.3042 17.9967C15.203 18.1232 15.0702 18.2117 14.8931 18.2623C15.0828 18.3003 15.241 18.3888 15.3612 18.528C15.4877 18.6671 15.5509 18.8569 15.5509 19.1035C15.5509 19.4388 15.4434 19.6981 15.222 19.8752C15.0196 20.0397 14.7286 20.1282 14.3555 20.1282ZM16.487 19.9511C16.6831 20.0713 16.9045 20.1282 17.1575 20.1282C17.4105 20.1282 17.6192 20.0776 17.7963 19.9827C17.9734 19.8815 18.1063 19.7487 18.1948 19.5716C18.2834 19.3945 18.3276 19.1984 18.3276 18.9707C18.3276 18.7367 18.2834 18.5406 18.1948 18.3762C18.1063 18.218 17.9861 18.0915 17.8343 18.0156C17.6825 17.9334 17.5117 17.8891 17.3219 17.8891C17.1638 17.8891 17.0247 17.9144 16.9045 17.965C16.7843 18.0156 16.6831 18.0852 16.5882 18.1674C16.5756 18.1801 16.5629 18.1864 16.5566 18.1991C16.5693 17.8575 16.6199 17.5982 16.7084 17.4211C16.8159 17.2187 16.9677 17.1111 17.1575 17.1111C17.2777 17.1111 17.3725 17.1428 17.4484 17.2123C17.5243 17.2756 17.5749 17.3768 17.6002 17.5096H18.2581C18.2138 17.1997 18.0936 16.9657 17.9102 16.8012C17.7204 16.6368 17.4737 16.5545 17.1638 16.5545C16.9108 16.5545 16.6894 16.6178 16.487 16.7506C16.2909 16.8771 16.1391 17.0732 16.0253 17.3452C15.9114 17.6108 15.8608 17.9524 15.8608 18.3635C15.8608 18.781 15.9178 19.1225 16.0316 19.3819C16.1391 19.6412 16.2973 19.8309 16.487 19.9511ZM16.5566 18.7177C16.6009 18.6734 16.6578 18.6292 16.7147 18.5912C16.8602 18.4963 17.0183 18.4457 17.2018 18.4457C17.3409 18.4457 17.4421 18.4963 17.518 18.5912C17.5939 18.6861 17.6319 18.8189 17.6319 18.9834C17.6319 19.1542 17.5939 19.2996 17.5117 19.4135C17.4358 19.5273 17.3156 19.5843 17.1575 19.5843C17.0563 19.5843 16.9551 19.5526 16.8602 19.4831C16.7653 19.4135 16.6958 19.306 16.6325 19.1542C16.5946 19.034 16.5693 18.8885 16.5566 18.7177ZM19.2384 20.0144C19.4219 20.0903 19.6306 20.1282 19.8583 20.1282C20.086 20.1282 20.2884 20.0839 20.4655 19.9954C20.6489 19.9068 20.7944 19.7677 20.8956 19.5906C21.0032 19.4072 21.0538 19.1858 21.0538 18.9138C21.0538 18.6418 21.0032 18.4268 20.9019 18.256C20.8007 18.0915 20.6742 17.9714 20.5098 17.8955C20.3517 17.8196 20.1746 17.7816 19.9911 17.7816C19.852 17.7816 19.7255 17.8069 19.6243 17.8512C19.5231 17.8955 19.4409 17.9461 19.3902 18.0093L19.4535 17.1934H20.7818V16.6115H18.9032L18.7514 18.5343H19.3586C19.4092 18.471 19.4725 18.4204 19.5484 18.3825C19.6243 18.3445 19.7192 18.3192 19.8267 18.3192C19.9848 18.3192 20.1113 18.3698 20.2062 18.4647C20.3074 18.5596 20.3517 18.7114 20.3517 18.9201C20.3517 19.1478 20.3074 19.3123 20.2125 19.4198C20.1176 19.5273 19.9975 19.5779 19.8457 19.5779C19.6875 19.5779 19.5547 19.5337 19.4535 19.4451C19.3523 19.3502 19.3017 19.2301 19.3017 19.0656H18.6249C18.6249 19.306 18.6818 19.502 18.7894 19.6602C18.9032 19.8183 19.055 19.9321 19.2384 20.0144Z" fill="white"/>
    </g>
    <defs>
        <radialGradient id="paint0_radial_3608_370" cx="0" cy="0" r="1" gradientUnits="userSpaceOnUse" gradientTransform="translate(18.2878 9.88264) rotate(-130.285) scale(7.57412 7.16707)">
            <stop offset="0.0955758" stop-color="#00AEFF"/>
            <stop offset="0.7732" stop-color="#2253CE"/>
            <stop offset="1" stop-color="#0736C4"/>
        </radialGradient>
        <radialGradient id="paint1_radial_3608_370" cx="0" cy="0" r="1" gradientUnits="userSpaceOnUse" gradientTransform="translate(6.21384 15.3255) rotate(50.2556) scale(6.85381 6.72766)">
            <stop stop-color="#FFB657"/>
            <stop offset="0.6337" stop-color="#FF5F3D"/>
            <stop offset="0.9234" stop-color="#C02B3C"/>
        </radialGradient>
        <linearGradient id="paint2_linear_3608_370" x1="7.9893" y1="4.18808" x2="8.96671" y2="15.7766" gradientUnits="userSpaceOnUse">
            <stop offset="0.1562" stop-color="#0D91E1"/>
            <stop offset="0.4875" stop-color="#52B471"/>
            <stop offset="0.6524" stop-color="#98BD42"/>
            <stop offset="0.9374" stop-color="#FFC800"/>
        </linearGradient>
        <linearGradient id="paint3_linear_3608_370" x1="8.08646" y1="2.73861" x2="8.62002" y2="15.3785" gradientUnits="userSpaceOnUse">
            <stop stop-color="#3DCBFF"/>
            <stop offset="0.2467" stop-color="#0588F7" stop-opacity="0"/>
        </linearGradient>
        <radialGradient id="paint4_radial_3608_370" cx="0" cy="0" r="1" gradientUnits="userSpaceOnUse" gradientTransform="translate(19.7712 6.13867) rotate(109.722) scale(16.8378 20.5645)">
            <stop offset="0.0661714" stop-color="#8C48FF"/>
            <stop offset="0.5" stop-color="#F2598A"/>
            <stop offset="0.8958" stop-color="#FFB152"/>
        </radialGradient>
        <linearGradient id="paint5_linear_3608_370" x1="15.7176" y1="6.59692" x2="15.7106" y2="10.0388" gradientUnits="userSpaceOnUse">
            <stop offset="0.0581535" stop-color="#F8ADFA"/>
            <stop offset="0.7081" stop-color="#A86EDD" stop-opacity="0"/>
        </linearGradient>
        <clipPath id="clip0_3608_370">
            <rect width="20" height="20" fill="white" transform="translate(2 2)"/>
        </clipPath>
    </defs>
</svg>
