<svg width="800" height="800" viewBox="0 0 800 800" fill="none"
    xmlns="http://www.w3.org/2000/svg">
    <g clip-path="url(#clip0_2290_6969)">
        <path d="M742.73 327.369C751.675 300.432 754.768 271.896 751.804 243.667C748.84 215.438 739.885 188.167 725.54 163.676C704.272 126.657 671.798 97.3477 632.799 79.9744C593.8 62.6012 550.292 58.0612 508.546 67.0092C484.83 40.6279 454.589 20.9516 420.862 9.95625C387.134 -1.03906 351.107 -2.96617 316.399 4.36847C281.691 11.7031 249.524 28.0412 223.129 51.742C196.733 75.4427 177.039 105.672 166.023 139.393C138.212 145.095 111.938 156.669 88.9583 173.339C65.9782 190.009 46.8208 211.392 32.7665 236.059C11.2676 273.017 2.07919 315.854 6.52951 358.377C10.9798 400.901 28.8383 440.907 57.5232 472.612C48.5453 499.537 45.4206 528.068 48.3581 556.297C51.2956 584.527 60.2276 611.803 74.5565 636.302C95.8512 673.335 128.354 702.651 167.38 720.024C206.406 737.397 249.941 741.931 291.71 732.972C310.552 754.191 333.704 771.145 359.62 782.704C385.536 794.262 413.62 800.159 441.996 799.999C484.784 800.039 526.478 786.48 561.059 761.282C595.64 736.084 621.319 700.548 634.39 659.806C662.198 654.093 688.467 642.515 711.446 625.846C734.425 609.176 753.585 587.797 767.646 563.136C788.891 526.233 797.922 483.556 793.446 441.211C788.971 398.865 771.219 359.016 742.73 327.369ZM441.996 747.639C406.954 747.695 373.01 735.412 346.116 712.946L350.846 710.266L510.123 618.326C514.087 616.001 517.379 612.685 519.674 608.703C521.969 604.722 523.188 600.211 523.213 595.616V371.052L590.547 410.006C590.879 410.174 591.168 410.419 591.388 410.721C591.608 411.022 591.754 411.371 591.813 411.739V597.826C591.729 637.533 575.917 675.59 547.839 703.668C519.761 731.745 481.704 747.555 441.996 747.639ZM119.973 610.126C102.399 579.78 96.0889 544.208 102.153 509.669L106.886 512.509L266.32 604.449C270.265 606.764 274.756 607.984 279.33 607.984C283.904 607.984 288.395 606.764 292.34 604.449L487.1 492.166V569.913C487.082 570.315 486.973 570.709 486.781 571.064C486.589 571.419 486.32 571.726 485.993 571.962L324.666 665.006C290.237 684.839 249.345 690.2 210.967 679.911C172.589 669.621 139.863 644.523 119.973 610.126ZM78.0265 263.186C95.7226 232.645 123.654 209.35 156.876 197.426V386.666C156.817 391.238 157.985 395.742 160.259 399.708C162.533 403.675 165.831 406.958 169.806 409.216L363.62 521.026L296.283 559.976C295.919 560.169 295.512 560.271 295.1 560.271C294.687 560.271 294.281 560.169 293.917 559.976L132.906 467.092C98.5419 447.173 73.4715 414.447 63.1854 376.082C52.8993 337.716 58.2359 296.838 78.0265 262.399V263.186ZM631.236 391.712L436.793 278.799L503.973 239.999C504.338 239.806 504.744 239.704 505.156 239.704C505.569 239.704 505.975 239.806 506.34 239.999L667.35 333.042C691.968 347.248 712.038 368.163 725.215 393.346C738.393 418.529 744.134 446.942 741.77 475.266C739.406 503.59 729.033 530.657 711.862 553.307C694.692 575.957 671.433 593.256 644.8 603.182V413.942C644.66 409.378 643.336 404.929 640.958 401.031C638.579 397.133 635.231 393.924 631.236 391.712ZM698.26 290.943L693.526 288.102L534.41 195.376C530.441 193.047 525.922 191.819 521.32 191.819C516.718 191.819 512.199 193.047 508.23 195.376L313.633 307.656V229.913C313.592 229.517 313.658 229.118 313.824 228.757C313.991 228.396 314.252 228.087 314.58 227.863L475.59 134.976C500.267 120.76 528.482 113.864 556.934 115.094C585.386 116.325 612.9 125.632 636.258 141.925C659.615 158.219 677.85 180.826 688.831 207.104C699.811 233.381 703.083 262.241 698.263 290.309L698.26 290.943ZM276.883 428.766L209.55 389.972C209.213 389.77 208.925 389.495 208.706 389.169C208.487 388.842 208.343 388.471 208.283 388.082V202.473C208.32 173.998 216.463 146.123 231.758 122.106C247.054 98.0886 268.871 78.9221 294.658 66.8471C320.445 54.7722 349.137 50.2879 377.379 53.9185C405.621 57.5491 432.245 69.1446 454.14 87.3492L449.406 90.0325L290.133 181.966C286.169 184.291 282.878 187.607 280.583 191.589C278.288 195.57 277.068 200.08 277.043 204.676L276.883 428.766ZM313.47 349.919L400.203 299.926L487.1 349.919V449.899L400.52 499.889L313.63 449.899L313.47 349.919Z" fill="black"/>
    </g>
    <defs>
        <clipPath id="clip0_2290_6969">
            <rect width="800" height="800" fill="white"/>
        </clipPath>
    </defs>
</svg>
