<svg width="24" height="24" viewBox="0 0 24 24" fill="none"
    xmlns="http://www.w3.org/2000/svg">
    <path d="M7.63723 10.387C7.63723 10.6358 7.6639 10.837 7.71056 10.9849C7.7639 11.1329 7.83014 11.2941 7.92348 11.4687C7.95681 11.5224 7.97014 11.5762 7.97014 11.6233C7.97014 11.6903 7.93014 11.7574 7.84389 11.8249L7.42473 12.107C7.36473 12.1474 7.30515 12.1674 7.25182 12.1674C7.18515 12.1674 7.1189 12.1337 7.05224 12.0733C6.95891 11.9724 6.87932 11.8649 6.81266 11.7574C6.74599 11.6433 6.67974 11.5158 6.60641 11.3612C6.08767 11.9791 5.43559 12.2883 4.6506 12.2883C4.09186 12.2883 3.64603 12.127 3.3202 11.8045C2.99437 11.482 2.82812 11.052 2.82812 10.5145C2.82812 9.9437 3.02771 9.47996 3.43353 9.13079C3.83936 8.78163 4.37811 8.60663 5.0631 8.60663C5.28934 8.60663 5.52226 8.62663 5.76809 8.66038C6.01392 8.69413 6.26683 8.74788 6.53308 8.8083V8.31789C6.53308 7.80748 6.42683 7.45123 6.22058 7.2429C6.00767 7.03457 5.64851 6.93374 5.13643 6.93374C4.90352 6.93374 4.66435 6.9604 4.4181 7.02124C4.17186 7.08165 3.93269 7.1554 3.69978 7.24957C3.59353 7.29665 3.51353 7.32332 3.46687 7.33707C3.4202 7.3504 3.38687 7.35707 3.36062 7.35707C3.26729 7.35707 3.22104 7.28998 3.22104 7.14874V6.81957C3.22104 6.71207 3.23437 6.63166 3.2677 6.58458C3.30104 6.53749 3.36103 6.49041 3.45395 6.44333C3.68686 6.3225 3.96603 6.22166 4.29227 6.14083C4.6181 6.05333 4.96393 6.01333 5.32976 6.01333C6.12142 6.01333 6.70016 6.19458 7.07265 6.55749C7.43848 6.92041 7.62473 7.47123 7.62473 8.20997V10.3866L7.63723 10.387ZM4.93643 11.4078C5.15601 11.4078 5.38226 11.3674 5.62142 11.287C5.861 11.2066 6.07392 11.0587 6.2535 10.857C6.35975 10.7295 6.43975 10.5883 6.47975 10.427C6.51974 10.2658 6.54641 10.0708 6.54641 9.84245V9.56037C6.3535 9.51329 6.14725 9.47287 5.93434 9.44621C5.72142 9.41954 5.51517 9.40579 5.30893 9.40579C4.8631 9.40579 4.53727 9.49329 4.31769 9.67454C4.09811 9.85578 3.99186 10.1112 3.99186 10.447C3.99186 10.7629 4.07186 10.9979 4.23811 11.1591C4.39769 11.3274 4.6306 11.4078 4.93643 11.4078ZM10.278 12.1337C10.1584 12.1337 10.0784 12.1137 10.0251 12.0666C9.97178 12.0262 9.92553 11.9324 9.88554 11.8045L8.32222 6.61166C8.28222 6.47749 8.26222 6.39 8.26222 6.34291C8.26222 6.23541 8.31556 6.175 8.4218 6.175H9.07388C9.20013 6.175 9.28679 6.195 9.33346 6.24208C9.38679 6.2825 9.42637 6.37625 9.46637 6.50416L10.5839 10.9516L11.6213 6.50416C11.6547 6.37 11.6947 6.2825 11.7476 6.24208C11.8009 6.20166 11.8938 6.175 12.0138 6.175H12.5459C12.6722 6.175 12.7588 6.195 12.8122 6.24208C12.8655 6.2825 12.9117 6.37625 12.9384 6.50416L13.9892 11.0054L15.1401 6.50416C15.1801 6.37 15.2267 6.2825 15.273 6.24208C15.3263 6.20166 15.4125 6.175 15.5325 6.175H16.1513C16.2575 6.175 16.3175 6.22875 16.3175 6.34291C16.3175 6.37666 16.3109 6.40999 16.3042 6.45041C16.2975 6.49083 16.2842 6.54458 16.2575 6.61833L14.6546 11.8112C14.6146 11.9453 14.568 12.0328 14.5151 12.0733C14.4621 12.1137 14.3755 12.1403 14.2621 12.1403H13.6901C13.5638 12.1403 13.4772 12.1203 13.4238 12.0733C13.3705 12.0262 13.3242 11.9391 13.2976 11.8045L12.2668 7.47123L11.2426 11.7978C11.2093 11.932 11.1693 12.0195 11.1164 12.0666C11.063 12.1137 10.9701 12.1337 10.8501 12.1337H10.278ZM18.8254 12.3149C18.4796 12.3149 18.1338 12.2745 17.8013 12.1941C17.4688 12.1137 17.2092 12.0262 17.0363 11.9253C16.93 11.8649 16.8567 11.7978 16.83 11.7374C16.8034 11.677 16.79 11.6099 16.79 11.5495V11.207C16.79 11.0658 16.8434 10.9987 16.9429 10.9987C16.9829 10.9987 17.0229 11.0054 17.0625 11.0187C17.1025 11.032 17.1621 11.0591 17.2288 11.0858C17.455 11.1866 17.7009 11.267 17.9604 11.3208C18.2267 11.3745 18.4858 11.4012 18.7521 11.4012C19.1713 11.4012 19.4971 11.3274 19.7233 11.1795C19.9496 11.0316 20.0692 10.8166 20.0692 10.5412C20.0692 10.3533 20.0092 10.1987 19.8896 10.0708C19.77 9.94328 19.5437 9.82912 19.2179 9.72162L18.2533 9.41912C17.7679 9.26454 17.4088 9.03621 17.1892 8.73372C16.9696 8.4383 16.8567 8.10914 16.8567 7.75956C16.8567 7.47748 16.9167 7.22873 17.0363 7.01374C17.1559 6.79874 17.3159 6.61083 17.515 6.46291C17.7146 6.30833 17.9409 6.19416 18.2067 6.11375C18.4729 6.03375 18.7521 6 19.045 6C19.1912 6 19.3442 6.00667 19.4908 6.02667C19.6437 6.04667 19.7833 6.07375 19.9233 6.10042C20.0562 6.13417 20.1829 6.1675 20.3025 6.20791C20.4221 6.24833 20.5154 6.28833 20.5821 6.32875C20.6754 6.38249 20.7416 6.43624 20.7816 6.49666C20.8216 6.55041 20.8416 6.62416 20.8416 6.71832V7.03415C20.8416 7.1754 20.7883 7.24915 20.6887 7.24915C20.6354 7.24915 20.5492 7.22248 20.4358 7.16874C20.0567 6.99415 19.6308 6.90666 19.1588 6.90666C18.7796 6.90666 18.4804 6.96707 18.2742 7.09457C18.0679 7.22207 17.9617 7.41707 17.9617 7.69248C17.9617 7.88039 18.0283 8.04164 18.1613 8.16956C18.2942 8.29705 18.5404 8.42497 18.8929 8.53913L19.8375 8.84163C20.3162 8.99621 20.6625 9.21121 20.8683 9.48662C21.0741 9.76204 21.1741 10.0779 21.1741 10.427C21.1741 10.7158 21.1141 10.9779 21.0012 11.2062C20.8816 11.4345 20.7216 11.6362 20.5158 11.7974C20.3096 11.9653 20.0633 12.0862 19.7775 12.1737C19.4771 12.2678 19.1646 12.3149 18.8254 12.3149Z" fill="#252F3E"/>
    <path d="M20.0817 15.5796C17.8934 17.212 14.7139 18.0787 11.9798 18.0787C8.14855 18.0787 4.69609 16.6479 2.08863 14.2696C1.88238 14.0817 2.06863 13.8262 2.31487 13.9742C5.13526 15.6266 8.61396 16.6279 12.2127 16.6279C14.6406 16.6279 17.308 16.1175 19.7622 15.0691C20.1284 14.9012 20.4409 15.3108 20.0817 15.5796ZM20.993 14.5316C20.7134 14.1687 19.1438 14.3571 18.4322 14.4442C18.2193 14.4708 18.1859 14.2829 18.3788 14.1417C19.6292 13.255 21.6846 13.51 21.9242 13.8058C22.1638 14.1083 21.8575 16.1841 20.6871 17.1783C20.5076 17.3329 20.3346 17.252 20.4142 17.0508C20.6805 16.3858 21.2726 14.8875 20.993 14.5316Z" fill="#FF9900"/>
</svg>
