<svg width="24" height="24" viewBox="0 0 24 24" fill="none"
    xmlns="http://www.w3.org/2000/svg">
    <path d="M8.66714 3.00023H14.5851L8.44168 21.2024C8.37854 21.3894 8.25833 21.552 8.09798 21.6671C7.93762 21.7822 7.7452 21.8442 7.54779 21.8442H2.94219C2.79261 21.8443 2.64519 21.8087 2.5121 21.7404C2.37902 21.6721 2.2641 21.5732 2.17686 21.4517C2.08962 21.3302 2.03256 21.1896 2.0104 21.0417C1.98824 20.8938 2.00162 20.7427 2.04943 20.601L7.77302 3.64207C7.83613 3.45495 7.95636 3.29234 8.11676 3.17716C8.27717 3.06197 8.46966 3.00024 8.66714 3.00023Z" fill="url(#paint0_linear_3608_411)"/>
    <path d="M17.2684 15.209H7.88403C7.79679 15.2089 7.71153 15.2351 7.63938 15.2841C7.56722 15.3332 7.51151 15.4028 7.47951 15.484C7.4475 15.5651 7.44067 15.6541 7.45992 15.7391C7.47917 15.8242 7.52361 15.9016 7.58743 15.9611L13.6176 21.5894C13.7932 21.7532 14.0244 21.8442 14.2645 21.8442H19.5783L17.2684 15.209Z" fill="#0078D4"/>
    <path d="M8.66594 3.00001C8.4663 2.99924 8.27166 3.06233 8.11043 3.18005C7.9492 3.29777 7.82983 3.46396 7.76977 3.65435L2.05527 20.5853C2.00424 20.7276 1.98822 20.88 2.00857 21.0297C2.02891 21.1795 2.08502 21.3221 2.17215 21.4456C2.25927 21.5691 2.37486 21.6697 2.50912 21.7391C2.64338 21.8084 2.79237 21.8444 2.94348 21.844H7.66795C7.84391 21.8126 8.00837 21.735 8.14453 21.6192C8.2807 21.5034 8.38368 21.3535 8.44297 21.1849L9.58256 17.8264L13.6531 21.6231C13.8237 21.7642 14.0377 21.8422 14.2591 21.844H19.5531L17.2312 15.2088L10.4626 15.2104L14.6052 3.00001H8.66594Z" fill="url(#paint1_linear_3608_411)"/>
    <path d="M16.2265 3.64093C16.1634 3.45411 16.0434 3.29178 15.8832 3.1768C15.7231 3.06181 15.5309 2.99998 15.3337 3H8.73828C8.93543 3.00001 9.12762 3.06186 9.28777 3.17684C9.44793 3.29182 9.56798 3.45413 9.63104 3.64093L15.3549 20.6006C15.4027 20.7423 15.4161 20.8934 15.394 21.0414C15.3718 21.1893 15.3148 21.3299 15.2275 21.4514C15.1403 21.573 15.0254 21.672 14.8923 21.7403C14.7592 21.8086 14.6117 21.8442 14.4621 21.8442H21.0578C21.2074 21.8442 21.3548 21.8085 21.4879 21.7402C21.6209 21.6719 21.7358 21.5729 21.823 21.4513C21.9103 21.3298 21.9673 21.1893 21.9894 21.0413C22.0115 20.8934 21.9981 20.7423 21.9503 20.6006L16.2265 3.64093Z" fill="url(#paint2_linear_3608_411)"/>
    <defs>
        <linearGradient id="paint0_linear_3608_411" x1="10.824" y1="4.39664" x2="4.67815" y2="22.5531" gradientUnits="userSpaceOnUse">
            <stop stop-color="#114A8B"/>
            <stop offset="1" stop-color="#0669BC"/>
        </linearGradient>
        <linearGradient id="paint1_linear_3608_411" x1="12.7427" y1="12.8578" x2="11.321" y2="13.3385" gradientUnits="userSpaceOnUse">
            <stop stop-opacity="0.3"/>
            <stop offset="0.071" stop-opacity="0.2"/>
            <stop offset="0.321" stop-opacity="0.1"/>
            <stop offset="0.623" stop-opacity="0.05"/>
            <stop offset="1" stop-opacity="0"/>
        </linearGradient>
        <linearGradient id="paint2_linear_3608_411" x1="11.9627" y1="3.86685" x2="18.7091" y2="21.8404" gradientUnits="userSpaceOnUse">
            <stop stop-color="#3CCBF4"/>
            <stop offset="1" stop-color="#2892DF"/>
        </linearGradient>
    </defs>
</svg>
