<svg width="24" height="24" viewBox="0 0 24 24" fill="none"
    xmlns="http://www.w3.org/2000/svg">
    <path d="M21.9975 12.5827C21.7682 14.3459 21.1184 15.9405 19.9122 17.2472C19.6225 17.5611 19.2393 17.7584 18.9851 18.1108L21.1024 20.3529C21.1193 20.448 20.4047 21.2632 20.2215 21.1529L2.91797 3.6466L3.74284 2.81343L6.165 5.21427C7.63163 4.53447 9.20671 4.34972 10.8129 4.42147V2L15.6937 5.72188L10.8129 9.35408V7.06714C10.7569 6.97835 10.6902 6.95145 10.5907 6.93262C10.0742 6.83755 8.86182 6.93082 8.3445 7.08687C8.2254 7.12275 8.11073 7.05638 8.14984 7.24472L17.0892 16.2499C17.347 16.3162 18.1718 15.4571 18.3603 15.2302C20.85 12.2329 19.1016 7.63663 15.3399 7.0214L16.9318 5.71022L15.5177 4.51205C18.4385 4.90307 20.9922 7.14517 21.7255 10.033C21.8242 10.4222 21.9655 11.0321 21.9984 11.4168V12.5827H21.9975Z" fill="black"/>
    <path d="M2.02533 11.3269C2.05733 10.9888 2.20666 10.3825 2.29822 10.0328C2.62798 8.77359 3.25908 7.71711 4.1115 6.75391L5.84924 8.41844C5.58969 8.96103 5.16215 9.38254 4.91237 9.98253C3.42974 13.5403 6.11501 17.1752 9.83848 17.1106C9.61359 17.2998 8.29274 18.1321 8.33274 18.3563L9.83759 19.576C6.89366 19.6236 4.16306 18.0595 2.83687 15.3941C2.46977 14.656 2.10355 13.4883 2.02533 12.6713C1.99156 12.3161 1.99156 11.6811 2.02533 11.326V11.3269Z" fill="black"/>
    <path d="M14.455 21.9991L9.57422 18.2773L12.9786 15.7275L16.4967 19.2647C15.8541 19.5714 15.0559 19.3633 14.455 19.7122V21.9991Z" fill="black"/>
</svg>
