<svg width="24" height="24" viewBox="0 0 24 24" fill="none"
    xmlns="http://www.w3.org/2000/svg">
    <g clip-path="url(#clip0_991_2854)">
        <path d="M20.125 2C21.1089 2.16946 21.8305 2.8923 22 3.875V20.1238C21.8227 21.141 21.0361 21.9217 19.99 22.0004H4.01158C2.93026 21.919 2.0861 21.0662 2 19.9888L2.00196 3.97323C2.0771 3.00657 2.90286 2.10997 3.87657 2H20.1254H20.125ZM20.8283 6.72605V3.97245C20.8283 3.95601 20.725 3.70593 20.7042 3.6668C20.5422 3.3631 20.2146 3.1866 19.873 3.17016L4.05189 3.17173C3.73568 3.22495 3.45155 3.37758 3.29735 3.66719C3.27661 3.70632 3.17329 3.9564 3.17329 3.97284V6.72644H20.8283V6.72605ZM20.8283 7.89817H3.17329V20.026C3.17329 20.0424 3.27661 20.2925 3.29735 20.3316C3.45155 20.6209 3.73568 20.7739 4.05189 20.8271L19.873 20.8287C20.2146 20.8118 20.5422 20.6357 20.7042 20.332C20.725 20.2929 20.8283 20.0428 20.8283 20.0264V7.89817Z" fill="black"/>
        <path d="M11.6024 9.08126C15.7426 8.77913 18.6261 13.1835 16.6411 16.854C14.8272 20.208 10.1266 20.5763 7.80544 17.542C5.26865 14.2265 7.4673 9.383 11.6024 9.08087V9.08126ZM13.1334 11.9992C12.996 11.5515 12.5491 10.2338 11.9805 10.2401C11.4611 10.2459 10.9876 11.5762 10.8682 11.9992H13.1338H13.1334ZM8.64177 11.9992H9.69648C9.74775 11.5644 9.92269 11.1559 10.0671 10.7488C9.48671 11.0216 9.0026 11.476 8.64177 11.9992ZM15.3598 11.9992C14.999 11.476 14.5149 11.0216 13.9345 10.7488C14.0789 11.1555 14.2542 11.5644 14.3051 11.9992H15.3598ZM9.46206 13.171H8.05591C7.85123 13.9541 7.85123 14.7309 8.05591 15.5144H9.46206V13.171ZM13.3287 13.171H10.6725C10.561 13.9447 10.561 14.7407 10.6725 15.5144H13.3287C13.4402 14.7407 13.4402 13.9447 13.3287 13.171ZM15.9457 13.171H14.5395V15.5144H15.9457C16.1504 14.7313 16.1504 13.9545 15.9457 13.171ZM9.69609 16.6865H8.64138C9.00221 17.2098 9.48632 17.6641 10.0667 17.9369C9.9223 17.5303 9.74697 17.1213 9.69609 16.6865ZM13.1334 16.6865H10.8678C11.0052 17.1346 11.4521 18.452 12.0208 18.4457C12.5374 18.4398 13.0117 17.108 13.133 16.6865H13.1334ZM15.3598 16.6865H14.3051C14.2539 17.1213 14.0789 17.5299 13.9345 17.9369C14.5149 17.6641 14.999 17.2098 15.3598 16.6865Z" fill="black"/>
        <path d="M14.2163 4.39159C14.9912 4.2327 15.2048 5.39504 14.4722 5.54532C13.6973 5.70421 13.4836 4.54187 14.2163 4.39159Z" fill="black"/>
        <path d="M16.5601 4.39159C17.335 4.2327 17.5487 5.39504 16.8161 5.54532C16.0412 5.70421 15.8275 4.54187 16.5601 4.39159Z" fill="black"/>
        <path d="M18.9036 4.39159C19.6785 4.2327 19.8922 5.39504 19.1595 5.54532C18.3846 5.70421 18.171 4.54187 18.9036 4.39159Z" fill="black"/>
    </g>
    <defs>
        <clipPath id="clip0_991_2854">
            <rect width="20" height="20" fill="white" transform="translate(2 2)"/>
        </clipPath>
    </defs>
</svg>
