<svg width="24" height="24" viewBox="0 0 24 24" fill="none"
    xmlns="http://www.w3.org/2000/svg">
    <g clip-path="url(#clip0_991_2807)">
        <path d="M5.74775 22C4.88745 21.8404 4.14252 21.3047 4 20.4142V6.40409C4.08743 5.68572 4.59602 5.03231 5.28267 4.77172C6.05833 4.47749 7.0368 4.68525 7.85838 4.62265V3.78299C7.85838 3.64135 8.1015 3.47467 8.23923 3.45355C8.69992 3.38351 9.30672 3.5048 9.78457 3.44572C9.96542 3.09475 10.1391 2.79348 10.4465 2.53289C11.4034 1.72102 13.025 1.84935 13.8086 2.82947C13.9667 3.02706 14.0366 3.24422 14.1767 3.44455C14.532 3.52789 16.1416 3.23365 16.1416 3.7826V4.62226C17.0195 4.68604 18.0435 4.45558 18.8579 4.82885C19.4567 5.10313 19.9329 5.75341 19.9996 6.4037V20.4138C19.9026 21.2335 19.0615 21.91 18.2523 21.9996H5.74775V22ZM15.146 4.38828H13.6925C13.6733 4.38828 13.5124 4.30377 13.4829 4.28147C13.2705 4.12418 13.2669 3.80216 13.1364 3.56662C12.6573 2.7027 11.3814 2.67845 10.8373 3.50167C10.6996 3.70982 10.664 4.02245 10.5447 4.19108C10.5083 4.24234 10.3095 4.38789 10.2676 4.38789H8.85401V6.30119H15.146V4.38789V4.38828ZM7.85838 5.56013H6.04636C5.47868 5.56013 4.98366 6.05038 4.95172 6.59581L4.94933 20.1865C5.00601 20.7992 5.5194 21.023 6.08428 21.0653H17.9548C18.5109 21.0105 18.9944 20.7882 19.0503 20.1865L19.0479 6.59581C19.0159 6.05038 18.5209 5.56013 17.9532 5.56013H16.1412V6.79027C16.1412 6.94599 15.837 7.26722 15.6434 7.23944L8.21527 7.22105C8.05918 7.19132 7.85798 6.93347 7.85798 6.79027V5.56013H7.85838Z" fill="black"/>
        <path d="M11.177 9.98574C11.2269 9.93879 11.3067 9.91101 11.3698 9.88167L17.1181 9.85428C17.7768 9.99083 17.7297 10.7632 17.037 10.8309C15.3204 10.9991 13.328 10.7065 11.5822 10.8309C11.1231 10.8481 10.8377 10.3031 11.177 9.98535V9.98574Z" fill="black"/>
        <path d="M11.4321 17.4797L17.1181 17.4695C17.7169 17.5403 17.7744 18.3741 17.037 18.4461C15.3204 18.6144 13.328 18.3217 11.5822 18.4461C10.9407 18.4211 10.8257 17.6683 11.4317 17.4797H11.4321Z" fill="black"/>
        <path d="M17.4423 14.4892C17.3923 14.5362 17.3125 14.564 17.2494 14.5933L11.4613 14.6207C10.979 14.564 10.8808 13.9364 11.2932 13.7122L17.1576 13.6817C17.5588 13.7102 17.7213 14.2279 17.4419 14.4892H17.4423Z" fill="black"/>
        <path d="M6.55776 13.3831C6.97773 12.9719 7.52585 13.6719 7.8013 13.9548C7.83364 13.988 7.8564 14.026 7.85959 14.0725L7.91748 14.0718L9.58179 12.5407C9.95385 12.3752 10.3674 12.7266 10.27 13.0971C10.2273 13.2591 9.85126 13.5878 9.71153 13.7224C9.22968 14.1856 8.69993 14.6047 8.23684 15.0879C8.0069 15.2538 7.78933 15.253 7.56018 15.0879C7.4484 15.0073 6.60327 14.143 6.52742 14.0311C6.39648 13.839 6.37652 13.5608 6.55816 13.3831H6.55776Z" fill="black"/>
        <path d="M9.72108 8.69185C10.1151 8.63825 10.4069 9.05182 10.2089 9.40748C10.1271 9.5542 9.50631 10.102 9.33265 10.2663C9.09312 10.4925 8.35618 11.2292 8.12543 11.3474C7.92702 11.4491 7.80367 11.437 7.62243 11.3173C7.44118 11.1975 6.74935 10.5054 6.60364 10.3246C6.11261 9.71423 6.7737 9.16646 7.2807 9.6215C7.37452 9.70601 7.81325 10.2604 7.91265 10.2432L9.47078 8.80101C9.53824 8.75367 9.63964 8.70281 9.72068 8.69185H9.72108Z" fill="black"/>
        <path d="M9.72108 16.3067C10.1906 16.2429 10.4628 16.7868 10.1083 17.1577C9.66759 17.6186 9.02326 18.1953 8.53622 18.623C8.26516 18.8609 7.99888 19.1809 7.62243 18.9321C7.44518 18.8151 6.74935 18.1202 6.60364 17.9394C6.12299 17.3416 6.75254 16.7907 7.25715 17.2203C7.36014 17.3079 7.81644 17.8749 7.91265 17.8581L9.47077 16.4158C9.53824 16.3685 9.63964 16.3176 9.72068 16.3067H9.72108Z" fill="black"/>
    </g>
    <defs>
        <clipPath id="clip0_991_2807">
            <rect width="16" height="20" fill="white" transform="translate(4 2)"/>
        </clipPath>
    </defs>
</svg>
