<svg width="24" height="24" viewBox="0 0 24 24" fill="none"
    xmlns="http://www.w3.org/2000/svg">
    <g clip-path="url(#clip0_991_2794)">
        <path d="M5.50665 21L4.40979 20.7354C3.26913 20.2585 2.43797 19.3291 2.12847 18.1835C2.10998 18.1145 2.0983 18.0421 2.08565 17.9658C2.06667 17.8484 2.0472 17.7271 2 17.6141V6.37167C2.11679 5.51273 2.49101 4.73646 3.08226 4.12699C3.67887 3.51164 4.44191 3.12375 5.28913 3.00538L18.6685 3C20.4442 3.22158 21.8443 4.68852 22 6.492L21.9942 17.5501C21.8165 19.3609 20.3163 20.843 18.5011 21H5.50665ZM3.35867 17.4635C3.35867 18.4804 4.59617 19.6392 5.68135 19.6392C5.70861 19.6392 5.73537 19.6387 5.76214 19.6368L18.3775 19.628C18.8622 19.628 19.4257 19.3668 19.89 18.9299C20.3605 18.4863 20.6413 17.9384 20.6413 17.4635V7.48692H3.35867V17.4635ZM5.55872 4.36275C4.61028 4.43221 3.74797 5.11995 3.50807 5.99747L3.474 6.12123H20.527L20.4924 5.99698C20.2579 5.15272 19.4929 4.51292 18.544 4.36618L18.5367 4.3652L5.56213 4.36275H5.55872Z" fill="black"/>
        <path d="M6.34609 17.868C6.08915 17.868 5.85216 17.7105 5.74219 17.4664C5.62783 17.2126 5.676 16.9254 5.87163 16.697L8.32668 14.6671L8.2678 14.4528L5.87163 12.4737C5.67163 12.2399 5.62102 11.9494 5.73586 11.6945C5.84049 11.4632 6.06288 11.3194 6.31641 11.3194C6.48722 11.3194 6.66532 11.3805 6.84538 11.5003C7.30281 11.8056 7.75635 12.2199 8.1948 12.621C8.61282 13.003 9.04494 13.3977 9.48778 13.7064C9.97976 14.2386 9.97879 14.9444 9.48534 15.4668L6.64197 17.8025C6.54367 17.846 6.44439 17.8675 6.34658 17.8675L6.34609 17.868Z" fill="black"/>
        <path d="M13.8008 17.9179C13.4416 17.9179 13.065 17.9013 12.7005 17.8851C12.335 17.869 11.9564 17.8524 11.5949 17.8524C11.3613 17.8524 11.1545 17.8592 10.9632 17.8734C10.6907 17.8392 10.4654 17.6567 10.3744 17.3955C10.2868 17.1446 10.3462 16.8829 10.5321 16.6955C10.6012 16.6261 10.8002 16.5302 10.9092 16.5121C11.118 16.5327 11.3481 16.5429 11.6119 16.5429C11.9856 16.5429 12.3798 16.5224 12.7608 16.5028C13.1394 16.4833 13.5307 16.4632 13.8986 16.4632C14.2382 16.4632 14.5244 16.4803 14.774 16.516C15.1502 16.5693 15.3147 16.8878 15.3113 17.1788C15.3079 17.4875 15.1103 17.822 14.6777 17.8734C14.4232 17.9037 14.1365 17.9184 13.8003 17.9184L13.8008 17.9179Z" fill="black"/>
    </g>
    <defs>
        <clipPath id="clip0_991_2794">
            <rect width="20" height="18" fill="white" transform="translate(2 3)"/>
        </clipPath>
    </defs>
</svg>
