<svg width="24" height="24" viewBox="0 0 24 24" fill="none"
    xmlns="http://www.w3.org/2000/svg">
    <g clip-path="url(#clip0_990_2769)">
        <path d="M19.9985 20.3231L19.9877 6.3242C19.9669 6.20065 19.9261 6.08179 19.8441 5.98522L16.0582 2.1388C15.9443 2.05395 15.853 2.03011 15.7156 2H6.49784C5.7135 2.02268 5.0593 2.63729 5 3.44388V20.5354C5.05814 21.3846 5.79551 22.027 6.62992 21.9992L18.4325 21.9957C19.3023 22 20.0385 21.2036 19.9985 20.3231ZM16.138 4.02917L17.9816 5.90233H16.138V4.02917ZM18.8264 20.3595C18.8264 20.4881 18.5518 20.7712 18.4051 20.7899L6.70731 20.8103C6.45972 20.7931 6.24602 20.6187 6.17055 20.3802V3.5987C6.18095 3.45834 6.48552 3.17058 6.59411 3.17058H11.9136V4.34117H11.2032C11.1862 4.34117 10.9421 4.48544 10.914 4.51593C10.7164 4.73175 10.713 5.09028 10.897 5.31548C10.9321 5.35849 11.177 5.51214 11.2028 5.51214H11.9132V6.68272H11.2028C11.1858 6.68272 10.9417 6.82699 10.9136 6.85749C10.7161 7.07331 10.7126 7.43183 10.8967 7.65704C10.9317 7.70004 11.1766 7.8537 11.2024 7.8537H11.9128V9.02428H11.2024C11.1854 9.02428 10.9413 9.16855 10.9132 9.19905C10.7157 9.41487 10.7122 9.77339 10.8963 9.99859C10.9313 10.0416 11.1762 10.1953 11.202 10.1953H11.9124V11.3658H11.202C11.1851 11.3658 10.9409 11.5101 10.9128 11.5406C10.7153 11.7564 10.7118 12.1149 10.8959 12.3401C10.9309 12.3832 11.1758 12.5368 11.2016 12.5368H11.912V14.878H11.2016C11.1847 14.878 10.9405 15.0222 10.9124 15.0527C10.8647 15.1047 10.7731 15.2971 10.7623 15.3683C10.6953 15.8026 10.7226 17.0436 10.7584 17.5135C10.9263 19.7046 14.0498 19.7015 14.2177 17.5135C14.2539 17.044 14.2809 15.8026 14.2139 15.3683C14.2027 15.2967 14.111 15.1047 14.0637 15.0527C14.036 15.0222 13.7915 14.878 13.7745 14.878H13.0641V13.7074H13.7745C13.7915 13.7074 14.0356 13.5631 14.0637 13.5326C14.2612 13.3168 14.2647 12.9583 14.0806 12.7331C14.0456 12.6901 13.8007 12.5364 13.7749 12.5364H13.0645V11.3658H13.7749C13.7918 11.3658 14.036 11.2216 14.0641 11.1911C14.2616 10.9753 14.2651 10.6167 14.081 10.3915C14.046 10.3485 13.8011 10.1949 13.7753 10.1949H13.0649V9.02428H13.7753C13.7922 9.02428 14.0363 8.88001 14.0645 8.84951C14.262 8.63369 14.2655 8.27517 14.0814 8.04997C14.0464 8.00696 13.8015 7.85331 13.7757 7.85331H13.0653V6.68272H13.7757C13.7926 6.68272 14.0367 6.53845 14.0648 6.50796C14.2624 6.29214 14.2658 5.93361 14.0818 5.70841C14.0467 5.6654 13.8019 5.51175 13.7761 5.51175H13.0656V3.17058H14.9859V6.62408C14.9859 6.63972 15.1168 6.8743 15.1387 6.89815C15.1665 6.92865 15.411 7.07292 15.4279 7.07292H18.8268V20.3599L18.8264 20.3595Z" fill="black"/>
    </g>
    <defs>
        <clipPath id="clip0_990_2769">
            <rect width="15" height="20" fill="white" transform="translate(5 2)"/>
        </clipPath>
    </defs>
</svg>
