<svg width="24" height="24" viewBox="0 0 24 24" fill="none"
    xmlns="http://www.w3.org/2000/svg">
    <g clip-path="url(#clip0_990_2737)">
        <path d="M8.36712 20.9555C8.40117 20.9662 8.40078 20.9793 8.36712 20.9938H8.17181C8.20469 20.9328 8.30449 20.9566 8.36712 20.9555Z" fill="black"/>
        <path d="M8.56243 20.9555V20.9939H8.36713V20.9555C8.43171 20.9543 8.49824 20.9601 8.56243 20.9555Z" fill="black"/>
        <path d="M2 3V11.3844H22V3H2ZM20.8282 10.2357H3.17182V4.1487H20.8282V10.2361V10.2357Z" fill="black"/>
        <path d="M11.6877 15.0596C10.1209 12.1282 5.71702 12.3036 4.3495 15.3521C3.25126 17.8007 4.9088 20.6849 7.62504 20.9935C7.79608 21.013 7.99686 20.9793 8.17181 20.9935C8.24148 20.9808 8.30645 20.9681 8.36712 20.9551C8.418 20.985 8.5088 20.9877 8.56242 20.9551C9.88884 20.8611 11.0865 20.0083 11.7135 18.886L13.0258 18.8968L14.2399 19.6851L15.4188 18.8883L18.1053 18.8799L20.0078 17.337V15.0592H11.6877V15.0596ZM18.836 16.8016C18.836 16.875 17.8023 17.6007 17.6751 17.7316L15.0685 17.7419C14.8638 17.7742 14.3843 18.2647 14.2442 18.2777C14.0845 18.2927 13.5597 17.7738 13.3456 17.7419L10.9714 17.7385C10.6462 18.5184 10.2039 19.1685 9.40978 19.5469C6.69941 20.838 3.99451 17.788 5.67905 15.3547C7.08414 13.3252 10.2626 13.8848 10.9452 16.2087H18.836V16.802V16.8016Z" fill="black"/>
        <path d="M7.03913 5.41176V6.36895C7.23521 6.35398 7.61682 6.0431 7.76907 6.0289C7.82386 6.02391 7.82895 6.05155 7.85439 6.08647C8.04421 6.34553 8.12954 6.76848 8.32406 7.03944L7.39138 7.49807L8.01486 8.22536L7.10292 8.93078C6.96946 8.86246 6.5268 8.1889 6.43717 8.20771L5.80312 8.93078C5.71271 8.94575 5.05087 8.28178 4.89079 8.24379L5.51506 7.49807L4.57846 7.03905L5.10918 6.02698L5.86691 6.36856V5.41138H7.03873L7.03913 5.41176Z" fill="black"/>
        <path d="M12.5859 5.41176V6.36895C12.782 6.35398 13.1636 6.0431 13.3159 6.0289C13.3706 6.02391 13.3757 6.05155 13.4012 6.08647C13.591 6.34553 13.6763 6.76848 13.8708 7.03944L12.9382 7.49807L13.5616 8.22536L12.6497 8.93078C12.5162 8.86246 12.0736 8.1889 11.984 8.20771L11.3499 8.93078C11.2595 8.94575 10.5977 8.28178 10.4376 8.24379L11.0618 7.49807L10.1252 7.03905L10.656 6.02698L11.4137 6.36856V5.41138H12.5855L12.5859 5.41176Z" fill="black"/>
        <path d="M18.1327 5.41176V6.36895C18.3288 6.35398 18.7104 6.0431 18.8626 6.0289C18.9174 6.02391 18.9225 6.05155 18.948 6.08647C19.1378 6.34553 19.2231 6.76848 19.4176 7.03944L18.4849 7.49807L19.1084 8.22536L18.1965 8.93078C18.063 8.86246 17.6204 8.1889 17.5307 8.20771L16.8967 8.93078C16.8063 8.94575 16.1444 8.28178 15.9844 8.24379L16.6086 7.49807L15.672 7.03905L16.2028 6.02698L16.9605 6.36856V5.41138H18.1323L18.1327 5.41176Z" fill="black"/>
        <path d="M7.66419 16.3998H6.49237V17.5485H7.66419V16.3998Z" fill="black"/>
    </g>
    <defs>
        <clipPath id="clip0_990_2737">
            <rect width="20" height="18" fill="white" transform="translate(2 3)"/>
        </clipPath>
    </defs>
</svg>
