<svg width="24" height="24" viewBox="0 0 24 24" fill="none"
    xmlns="http://www.w3.org/2000/svg">
    <path d="M12.3587 2.01471C13.0128 2.08495 13.7921 2.54131 14.2068 3.04508C15.0412 4.05935 14.8716 5.24542 14.8332 6.47802C14.9025 6.58003 16.4352 6.95004 16.7117 7.14421C17.0638 7.39163 17.0191 7.85424 17.0034 8.23901C16.9014 10.7794 15.6371 13.3117 13.7881 15.0185C13.4884 15.2955 12.7166 15.993 12.4017 16.1755C12.1324 16.3317 11.8742 16.3335 11.6027 16.1755C11.2868 15.9921 10.5165 15.2959 10.2163 15.0185C8.70637 13.6249 7.59912 11.7203 7.19469 9.69621C7.08643 9.15485 6.92582 8.10032 7.0135 7.57909C7.13116 6.88069 8.63658 6.78539 9.17119 6.47802C9.10722 5.10315 8.96764 3.71843 10.104 2.72698C10.4744 2.4035 11.1553 2.06661 11.6452 2.01426C11.8228 1.99547 12.182 1.99502 12.3592 2.01426L12.3587 2.01471ZM13.4298 6.02928V4.66872C13.4298 4.00835 12.6003 3.43119 11.9785 3.43835C11.375 3.44551 10.5728 4.03072 10.5728 4.66872V6.02928C10.9638 5.9313 11.4367 5.67359 11.8206 5.60335C12.2943 5.517 12.96 5.91608 13.4298 6.02928ZM11.9467 7.06368C10.8945 7.50169 9.62752 7.72897 8.59721 8.18085C8.55113 8.20098 8.45405 8.22201 8.4451 8.27928C8.60392 10.8085 9.96081 13.1811 12.0178 14.636C14.048 13.1238 15.3973 10.8335 15.5579 8.27928C15.549 8.22156 15.4519 8.20098 15.4058 8.18085C14.359 7.72136 13.0303 7.4471 11.9467 7.06368Z" fill="black"/>
    <path d="M21.9995 20.7504C21.7199 21.4363 21.1137 21.3754 20.5715 21.0179C20.7379 22.3293 18.9739 22.3248 19.1422 21.0179C18.9753 21.0837 18.8191 21.2108 18.6433 21.2551C17.7258 21.4868 17.3316 20.2573 18.1772 19.9057L18.2049 19.814C17.6381 19.6569 17.5343 18.8655 18.0286 18.5442C18.425 18.2865 18.7825 18.5084 19.1422 18.6981C18.9744 17.3895 20.7388 17.3886 20.5715 18.6981C21.1137 18.3407 21.7199 18.2798 21.9995 18.9657V19.3227C21.894 19.5589 21.7544 19.7393 21.5083 19.8363L21.8662 20.1473L21.9995 20.3934V20.7504Z" fill="black"/>
    <path d="M4.85857 18.6981C5.21066 18.5152 5.54977 18.2959 5.94525 18.5263C6.46376 18.8283 6.37876 19.6533 5.79583 19.814L5.82356 19.9057C6.61721 20.2162 6.32596 21.3862 5.46521 21.2819C5.25853 21.2569 5.04871 21.0958 4.85902 21.0179C5.02634 22.3275 3.26234 22.3266 3.42966 21.0179C3.08294 21.1951 2.76844 21.4094 2.37206 21.2054C1.82626 20.924 1.89516 20.0659 2.49241 19.9021L2.46467 19.8104C1.67103 19.4999 1.96227 18.3299 2.82302 18.4342C3.0297 18.4592 3.23952 18.6203 3.42921 18.6981C3.26189 17.3886 5.02589 17.3895 4.85857 18.6981Z" fill="black"/>
    <path d="M12.714 18.6981C13.0661 18.5152 13.4052 18.2959 13.8007 18.5263C14.3192 18.8283 14.2342 19.6533 13.6513 19.814L13.679 19.9057C14.4727 20.2162 14.1814 21.3862 13.3207 21.2819C13.114 21.2569 12.9042 21.0958 12.7145 21.0179C12.8818 22.3275 11.1178 22.3266 11.2851 21.0179C10.9384 21.1951 10.6239 21.4094 10.2275 21.2054C9.68173 20.924 9.75063 20.0659 10.3479 19.9021L10.3201 19.8104C9.52649 19.4999 9.81774 18.3299 10.6785 18.4342C10.8852 18.4592 11.095 18.6203 11.2847 18.6981C11.1174 17.3886 12.8814 17.3895 12.714 18.6981Z" fill="black"/>
    <path d="M11.8527 9.16304C12.7609 9.01629 12.7806 10.0086 12.7126 10.6466C12.6209 11.507 11.3763 11.507 11.2841 10.6466C11.23 10.1406 11.1964 9.26908 11.8527 9.16304Z" fill="black"/>
</svg>
