<svg width="24" height="24" viewBox="0 0 24 24" fill="none"
    xmlns="http://www.w3.org/2000/svg">
    <g clip-path="url(#clip0_3603_250)">
        <path d="M12.3154 2L13.6254 2.08941C15.5346 2.22755 19.6818 3.32687 19.9507 5.64218C19.9983 6.05034 19.8883 6.51215 20.0001 6.90914V18.0221C19.7116 21.2834 14.1462 22.0675 11.625 21.996C9.23873 21.9285 4.21595 21.0724 4.00719 18.0015C4.04769 13.856 3.93463 9.69788 4.06505 5.55947C4.99002 2.75284 9.0549 2.10506 11.605 2H12.3159H12.3154ZM11.1514 3.39661C9.6073 3.47752 7.86909 3.80209 6.52748 4.59696C5.18587 5.39182 4.90678 6.38697 6.32272 7.32892C8.99792 9.10821 15.0516 9.1243 17.7046 7.3021C18.4728 6.77412 18.9976 6.11695 18.2908 5.25681C16.9576 3.63489 13.1037 3.29378 11.1519 3.39616L11.1514 3.39661ZM18.6233 8.33748L17.3783 9.02774C15.0343 9.99383 12.4094 10.2236 9.90152 9.89324C8.30486 9.68268 6.73535 9.23249 5.38707 8.33748C5.47654 9.25395 5.08439 10.0913 5.76365 10.8374C7.77516 13.0472 13.6415 12.9323 16.2481 11.998C16.8619 11.778 18.6237 10.9644 18.6237 10.1896V8.33748H18.6233ZM18.6233 12.3096C16.3487 13.8148 13.2417 14.1989 10.5612 13.9606C8.76824 13.8014 6.87868 13.3365 5.38663 12.3096C5.47788 13.0513 5.1427 14.0165 5.6083 14.6526C6.61072 16.022 9.7168 16.5709 11.3143 16.6407C13.2733 16.7261 16.3816 16.3604 17.9534 15.0952C18.1497 14.9369 18.6233 14.4081 18.6233 14.1617V12.3096ZM18.6233 18.1334C18.7012 17.5786 18.5654 16.8548 18.6233 16.2812C17.2977 17.2017 15.6151 17.6823 14.0203 17.8822C11.6348 18.1808 9.07715 17.9403 6.82215 17.0922L5.38663 16.326C5.45562 17.3104 5.0786 18.1289 5.85312 18.914C7.64118 20.7259 12.4788 20.8363 14.8126 20.3736C15.8315 20.1715 18.4533 19.3481 18.6237 18.133L18.6233 18.1334Z" fill="black"/>
    </g>
    <defs>
        <clipPath id="clip0_3603_250">
            <rect width="16" height="20" fill="white" transform="translate(4 2)"/>
        </clipPath>
    </defs>
</svg>
