<svg width="24" height="24" viewBox="0 0 24 24" fill="none"
    xmlns="http://www.w3.org/2000/svg">
    <path d="M15.6667 2C16.6139 2.16376 17.4264 2.74008 17.7994 3.63613C17.86 3.78207 18.0002 4.21356 18.0002 4.35096V9.78071L16.667 9.65594V8.6574H13.0004V10.7792C12.4928 11.0537 12.0562 11.4822 11.6672 11.9025V8.65703H8.33373V11.9857H11.5839L10.6881 13.317H8.33373V16.6457H10.0005L10.2087 17.9769H4.35433C4.18066 17.9769 3.72958 17.8132 3.55554 17.7345C2.69354 17.3457 2.164 16.5673 2 15.6472V4.33016C2.16734 3.17492 3.14686 2.12737 4.3335 2H15.6667ZM16.6667 7.32577V4.47573C16.6667 3.95437 15.9608 3.32643 15.4369 3.33237L4.64401 3.32977C4.08509 3.28335 3.33354 3.9228 3.33354 4.47573V7.32577H16.667H16.6667ZM6.99983 8.65703H3.33316V11.9857H6.99983V8.65703ZM6.99983 13.317H3.33316V15.5012C3.33316 15.971 4.0122 16.6453 4.4789 16.6453H6.99983V13.3166V13.317Z" fill="black"/>
    <path d="M18.2617 12.0183C18.7399 12.1854 19.1865 12.4446 19.5729 12.7703C20.0552 12.7287 20.5967 12.3436 21.0418 12.6752C21.1667 12.7684 21.8302 13.8977 21.9138 14.0926C22.2303 14.8294 21.5565 15.0526 21.179 15.5483C21.2779 16.0548 21.2776 16.5721 21.179 17.0782C21.4735 17.4808 22.0864 17.7429 21.9927 18.3215C21.9637 18.5008 21.3817 19.4916 21.2445 19.6962C20.7614 20.4173 20.2493 19.9379 19.5733 19.8562C19.1884 20.1849 18.7366 20.4337 18.262 20.6082C18.0806 21.1062 18.117 21.8964 17.4402 21.9721C17.1167 22.0085 16.1338 22.0137 15.8252 21.9621C15.2201 21.8607 15.2581 21.0389 15.0591 20.5956C14.5876 20.4303 14.1454 20.18 13.7654 19.8566C13.283 19.8982 12.7416 20.2833 12.2965 19.9517C12.1715 19.8585 11.5081 18.7292 11.4244 18.5342C11.108 17.7975 11.7818 17.5743 12.1592 17.0786C12.0603 16.5721 12.0607 16.0548 12.1592 15.5487C11.8647 15.1461 11.2519 14.884 11.3456 14.3054C11.3709 14.1491 12.1503 12.7937 12.2727 12.6931C12.713 12.3303 13.2763 12.7268 13.765 12.7703C14.145 12.4472 14.5868 12.1966 15.0587 12.0313C15.2521 11.611 15.2171 10.8241 15.7601 10.683C16.036 10.6113 17.0821 10.6251 17.4 10.6529C18.1278 10.7168 18.0679 11.4858 18.262 12.0183H18.2617ZM16.8716 11.9912H16.4659C16.4313 12.0135 16.2989 12.6463 16.2536 12.7573C16.0684 13.2085 15.5392 13.2226 15.1409 13.4354C14.807 13.6136 14.2533 14.1888 13.9401 14.1914C13.669 14.1936 13.3132 13.9894 13.0287 13.9798L12.8405 14.3028C12.8279 14.3827 13.3132 14.7844 13.395 14.901C13.6962 15.3307 13.4292 15.7306 13.4165 16.2071C13.4069 16.5699 13.5043 16.8394 13.5389 17.1703C13.5965 17.724 13.1454 17.923 12.8394 18.2955L13.0071 18.6386C13.3418 18.646 13.7211 18.3924 14.0454 18.4526C14.3135 18.5023 14.8222 19.0211 15.1409 19.1912C15.5217 19.3943 16.0557 19.424 16.2413 19.8399C16.2945 19.9591 16.4265 20.6279 16.4878 20.6424L16.8716 20.6349C16.9062 20.6123 17.0438 19.9576 17.0962 19.8399C17.2818 19.424 17.8158 19.3943 18.1966 19.1912C18.5577 18.9984 19.0761 18.4254 19.4331 18.4381C19.6997 18.4477 20.0288 18.6353 20.3085 18.6464L20.4966 18.3233C20.5093 18.2435 20.024 17.8417 19.9422 17.7251C19.6409 17.2955 19.908 16.8955 19.9206 16.4191C19.9303 16.0563 19.8328 15.7867 19.7982 15.4558C19.7406 14.9022 20.1917 14.7031 20.4977 14.3307L20.33 13.9875C19.9953 13.9801 19.616 14.2337 19.2918 14.1736C19.0236 14.1238 18.5201 13.6058 18.1962 13.435C17.8158 13.2345 17.2803 13.1996 17.0958 12.7863C17.0434 12.6685 16.9058 12.0135 16.8712 11.9912H16.8716Z" fill="black"/>
    <path d="M16.4513 13.8703C19.6917 13.5655 20.0722 18.5652 16.8135 18.7668C13.6823 18.9607 13.2639 14.17 16.4513 13.8703ZM16.5331 15.2005C15.1166 15.3735 15.3297 17.5176 16.729 17.4371C18.2318 17.3505 18.0369 15.0167 16.5331 15.2005Z" fill="black"/>
</svg>
