<svg width="24" height="24" viewBox="0 0 24 24" fill="none"
    xmlns="http://www.w3.org/2000/svg">
    <path d="M6.24234 22C5.70416 22 5.23305 21.9849 4.80243 21.954C4.19519 21.9103 3.59113 21.6639 3.10176 21.2599C2.6128 20.8563 2.25798 20.3111 2.1024 19.7258C2.08851 19.6742 2.07938 19.6183 2.06985 19.5591C2.05398 19.4635 2.0377 19.3647 2 19.2683V6.24127C2.04167 5.66508 2.383 4.9996 2.91364 4.46032C3.46174 3.90317 4.10311 3.58333 4.67344 3.58333H6.15899V2.49444C6.15899 2.34325 6.42015 2.05833 6.65193 2H6.93253C7.13296 2.05198 7.42586 2.31746 7.42586 2.49444V3.58333H11.3082V2.49444C11.3082 2.34325 11.5694 2.05833 11.8012 2H12.0818C12.2822 2.05198 12.5751 2.31746 12.5751 2.49444V3.58333H16.4971V2.49444C16.4971 2.34325 16.7583 2.05833 16.9901 2H17.2707C17.4711 2.05198 17.764 2.31746 17.764 2.49444V3.58333H19.2893C19.9032 3.58333 20.5593 3.91627 21.0887 4.49722C21.592 5.04921 21.9194 5.75437 21.9647 6.38373C22.0222 7.18571 21.9956 8.04206 21.9702 8.86984C21.9468 9.62778 21.9226 10.4111 21.9619 11.1591C21.9159 11.5587 21.6122 11.7377 21.3293 11.7377C21.061 11.7377 20.7339 11.5738 20.6938 11.1119C20.6303 10.3786 20.6621 9.57818 20.693 8.80397C20.7236 8.04167 20.755 7.25357 20.6966 6.51786C20.6343 5.73016 19.9513 4.84881 19.1309 4.84881H17.764V5.9377C17.764 6.16786 17.3965 6.43056 17.1472 6.43532H17.1401C17.0099 6.43532 16.8408 6.37103 16.7095 6.27103C16.5745 6.16865 16.4971 6.04722 16.4971 5.9377V4.84881H12.5751V5.9377C12.5751 6.16786 12.2076 6.43056 11.9583 6.43532H11.9512C11.821 6.43532 11.6519 6.37103 11.5206 6.27103C11.3856 6.16865 11.3082 6.04722 11.3082 5.9377V4.84881H7.42586V5.9377C7.42586 6.16786 7.05834 6.43056 6.8091 6.43532H6.80195C6.67177 6.43532 6.5027 6.37103 6.37133 6.27103C6.23639 6.16865 6.15899 6.04722 6.15899 5.9377V4.84881H4.8318C4.09041 4.84881 3.27163 5.70873 3.26726 6.49206L3.26528 19.0099V19.0163C3.33712 19.9151 3.96142 20.5679 4.85641 20.679L4.86593 20.6802L11.1832 20.6952C11.5571 20.771 11.7134 21.0754 11.7023 21.346C11.692 21.5964 11.5344 21.9032 11.1249 21.95C10.7696 21.9313 10.3898 21.9222 9.96396 21.9222C9.34601 21.9222 8.71138 21.9417 8.097 21.9607C7.48579 21.9794 6.85355 21.9988 6.24155 21.9988L6.24234 22Z" fill="black"/>
    <path d="M17.3242 21.9588C15.8335 21.9588 14.4166 21.21 13.5336 19.9556C12.6624 18.7179 12.4592 17.1818 12.9759 15.7409C13.3089 14.8123 13.9162 14.0342 14.7322 13.4901C15.4994 12.9786 16.4332 12.6973 17.3627 12.6973C18.5911 12.6973 19.7453 13.1746 20.6129 14.0417C21.6952 15.1235 22.1659 16.675 21.8726 18.1921C21.5789 19.7108 20.5644 20.9754 19.1583 21.5754C18.5621 21.8298 17.945 21.9588 17.3242 21.9588ZM17.3358 13.9504C17.2222 13.9504 17.1064 13.956 16.9917 13.9671C15.8204 14.081 14.8155 14.7901 14.3043 15.8639C13.7872 16.9496 13.8713 18.1913 14.5298 19.1858C15.1493 20.1215 16.1971 20.6802 17.3322 20.6802C18.48 20.6802 19.5341 20.1123 20.1513 19.1608C20.8343 18.108 20.8855 16.8227 20.2878 15.7223C19.6941 14.6294 18.5629 13.95 17.3358 13.95V13.9504Z" fill="black"/>
    <path d="M6.66522 9.37384C7.78008 9.22543 7.89716 10.848 6.88787 10.9429C5.81826 11.0433 5.69919 9.50242 6.66522 9.37384Z" fill="black"/>
    <path d="M10.1105 9.37384C11.2254 9.22543 11.3425 10.848 10.3332 10.9429C9.26357 11.0433 9.1445 9.50242 10.1105 9.37384Z" fill="black"/>
    <path d="M13.5558 9.37384C14.6707 9.22543 14.7878 10.848 13.7785 10.9429C12.7089 11.0433 12.5898 9.50242 13.5558 9.37384Z" fill="black"/>
    <path d="M17.0012 9.37384C18.116 9.22543 18.2331 10.848 17.2238 10.9429C16.1542 11.0433 16.0351 9.50242 17.0012 9.37384Z" fill="black"/>
    <path d="M6.66522 12.8177C7.78008 12.6693 7.89716 14.2919 6.88787 14.3867C5.81826 14.4871 5.69919 12.9463 6.66522 12.8177Z" fill="black"/>
    <path d="M10.1105 12.8177C11.2254 12.6693 11.3425 14.2919 10.3332 14.3867C9.26357 14.4871 9.1445 12.9463 10.1105 12.8177Z" fill="black"/>
    <path d="M6.66522 16.2625C7.78008 16.1141 7.89716 17.7367 6.88787 17.8316C5.81826 17.932 5.69919 16.3911 6.66522 16.2625Z" fill="black"/>
    <path d="M10.1105 16.2625C11.2254 16.1141 11.3425 17.7367 10.3332 17.8316C9.26357 17.932 9.1445 16.3911 10.1105 16.2625Z" fill="black"/>
    <path d="M17.9806 17.9713C17.4726 17.9713 17.1578 17.9376 17.0713 17.9039C16.8689 17.8257 16.7221 17.6134 16.6967 17.363C16.6558 16.959 16.6617 16.1662 16.6947 15.7269C16.7312 15.2368 17.0602 15.063 17.3305 15.063C17.6008 15.063 17.9143 15.2376 17.9604 15.6213C17.9782 15.7689 17.9719 15.9301 17.9651 16.1007C17.9596 16.2455 17.9536 16.3955 17.9635 16.5396L17.9731 16.6777L18.1112 16.6868C18.1366 16.6884 18.1632 16.6892 18.1929 16.6892C18.2362 16.6892 18.2791 16.6876 18.3207 16.6856C18.3592 16.684 18.3973 16.6824 18.4354 16.6824C18.468 16.6824 18.4958 16.6836 18.5208 16.6864C18.953 16.7328 19.1082 17.0547 19.1097 17.3162C19.1117 17.5979 18.9407 17.9031 18.5541 17.9495C18.4454 17.9626 18.2199 17.9709 17.9802 17.9709L17.9806 17.9713Z" fill="black"/>
</svg>
