<svg width="24" height="24" viewBox="0 0 24 24" fill="none"
    xmlns="http://www.w3.org/2000/svg">
    <path d="M12.428 14.0794L3.02771 8.09727C2.54173 7.77589 2.2014 7.2765 2.08002 6.70666C1.95864 6.13679 2.0659 5.54208 2.37872 5.05054C2.69154 4.559 3.18488 4.20996 3.75252 4.07861C4.32015 3.94725 4.91667 4.04407 5.41361 4.34822L12.3101 8.73671L18.5022 4.40215C18.9853 4.07477 19.5778 3.95057 20.1517 4.05636C20.7256 4.16216 21.2349 4.48945 21.5695 4.96756C21.9041 5.44567 22.0373 6.03624 21.9401 6.61168C21.843 7.18712 21.5234 7.70126 21.0504 8.04304L12.428 14.0794Z" fill="#EA4435"/>
    <path d="M20.5177 19.556H17.5547V6.22229C17.5547 5.63289 17.7888 5.06765 18.2056 4.65089C18.6223 4.23413 19.1876 4 19.777 4C20.3664 4 20.9316 4.23413 21.3484 4.65089C21.7651 5.06765 21.9993 5.63289 21.9993 6.22229V18.0745C21.9993 18.4674 21.8432 18.8442 21.5653 19.1221C21.2875 19.3999 20.9107 19.556 20.5177 19.556Z" fill="#00AC47"/>
    <path d="M21.9671 5.90066C21.9606 5.85621 21.9611 5.81081 21.9519 5.76643C21.9376 5.69843 21.9112 5.6356 21.8909 5.56998C21.8712 5.49485 21.8475 5.42085 21.8199 5.34827C21.8051 5.31309 21.7823 5.28219 21.7655 5.24797C21.7194 5.14921 21.6661 5.05404 21.6059 4.96316C21.5763 4.92011 21.5392 4.88343 21.5065 4.84271C21.4503 4.76865 21.3896 4.69818 21.3246 4.63165C21.2754 4.58372 21.2192 4.54365 21.1657 4.50047C21.1088 4.45167 21.0494 4.40574 20.9879 4.36292C20.9292 4.32454 20.8649 4.29499 20.8027 4.26224C20.7372 4.22809 20.6731 4.19091 20.6049 4.16365C20.5391 4.13713 20.4688 4.12024 20.4 4.10001C20.3312 4.07979 20.2628 4.05557 20.1921 4.04246C20.1046 4.02839 20.0163 4.01949 19.9277 4.01579C19.8714 4.01186 19.8157 4.00201 19.7593 4.00246C19.6545 4.00551 19.55 4.01603 19.4467 4.03394C19.405 4.04016 19.363 4.03964 19.3216 4.04823C19.1819 4.09094 19.0425 4.1349 18.9035 4.18009C18.8653 4.19639 18.8319 4.22061 18.7949 4.23898C18.4188 4.41452 18.1015 4.69523 17.8814 5.04721C17.6614 5.3992 17.548 5.80738 17.555 6.22244V10.4907L21.0514 8.04302C21.3947 7.81259 21.6639 7.48758 21.8264 7.10734C21.9889 6.72708 22.0379 6.30805 21.9671 5.90066Z" fill="#FFBA00"/>
    <path d="M4.22228 4C4.81168 4 5.37692 4.23413 5.79368 4.65089C6.21044 5.06765 6.44457 5.63289 6.44457 6.22229V19.556H3.48152C3.0886 19.556 2.71177 19.3999 2.43393 19.1221C2.15609 18.8442 2 18.4674 2 18.0745V6.22229C2 5.63289 2.23413 5.06765 2.65089 4.65089C3.06765 4.23413 3.6329 4 4.22228 4Z" fill="#4285F4"/>
    <path d="M2.03148 5.9002C2.038 5.85574 2.03748 5.81034 2.04674 5.76597C2.06096 5.69796 2.08741 5.63516 2.10771 5.56951C2.12738 5.49443 2.15107 5.42043 2.17867 5.34788C2.19349 5.3127 2.2163 5.2818 2.23319 5.24758C2.27925 5.1488 2.33258 5.05357 2.39275 4.9627C2.42238 4.91964 2.45942 4.88299 2.49216 4.84224C2.54832 4.76819 2.60903 4.69771 2.67394 4.63121C2.72321 4.58326 2.77935 4.54321 2.83299 4.50001C2.88989 4.45118 2.94922 4.40528 3.01077 4.36245C3.06951 4.32408 3.13381 4.29453 3.19596 4.26178C3.26018 4.22545 3.3262 4.19237 3.39374 4.16267C3.45967 4.13615 3.52989 4.11926 3.59864 4.09904C3.66738 4.07881 3.7359 4.05459 3.80657 4.04148C3.89412 4.02742 3.98242 4.01851 4.07102 4.01481C4.12732 4.01089 4.18295 4.00103 4.23939 4.00148C4.34419 4.00453 4.44863 4.01505 4.55192 4.03296C4.59362 4.03918 4.63562 4.03867 4.6771 4.04726C4.7488 4.06553 4.81953 4.08748 4.88898 4.11304C4.95881 4.1316 5.02766 4.15365 5.09526 4.17911C5.13334 4.19541 5.16676 4.21963 5.20379 4.238C5.29981 4.28313 5.39244 4.3351 5.48099 4.39355C5.77775 4.59734 6.02048 4.87029 6.18816 5.18885C6.35587 5.50738 6.44352 5.86199 6.44352 6.22198V10.4902L2.94714 8.0427C2.60385 7.8122 2.33469 7.48719 2.17219 7.10698C2.00969 6.72677 1.96082 6.30761 2.03148 5.9002Z" fill="#C52528"/>
</svg>
