<svg width="24" height="24" viewBox="0 0 24 24" fill="none"
    xmlns="http://www.w3.org/2000/svg">
    <path d="M14.5 3H7.872C7.3905 3 7 3.3905 7 3.87201V7.50154H14.5V3Z" fill="#169154"/>
    <path d="M7 16.5273V20.1284C7 20.6099 7.3905 21.0004 7.8715 21.0004H14.5V16.5273H7Z" fill="#18482A"/>
    <path d="M7 7.50195H14.5V12.003H7V7.50195Z" fill="#0C8045"/>
    <path d="M7 12.0024H14.5V16.5275H7V12.0024Z" fill="#17472A"/>
    <path d="M21.128 3H14.5V7.50154H22V3.87201C22 3.3905 21.6095 3 21.128 3Z" fill="#29C27F"/>
    <path d="M14.5 16.5273V21.0004H21.1285C21.6095 21.0004 22 20.6099 22 20.1289V16.5278L14.5 16.5273Z" fill="#27663F"/>
    <path d="M14.5 7.50195H22V12.003H14.5V7.50195Z" fill="#19AC65"/>
    <path d="M14.5 12.0024H22V16.5275H14.5V12.0024Z" fill="#129652"/>
    <path d="M11.1595 17.0001H2.8405C2.3765 17.0001 2 16.6236 2 16.1596V7.84051C2 7.3765 2.3765 7 2.8405 7H11.1595C11.6235 7 12 7.3765 12 7.84051V16.1596C12 16.6236 11.6235 17.0001 11.1595 17.0001Z" fill="#0C7238"/>
    <path d="M4.90613 9.5H6.09912L7.06712 11.377L8.09012 9.5H9.20462L7.66913 12L9.23963 14.5H8.06412L7.00912 12.535L5.95862 14.5H4.76562L6.36212 11.991L4.90613 9.5Z" fill="white"/>
</svg>
