<svg width="24" height="24" viewBox="0 0 24 24" fill="none"
    xmlns="http://www.w3.org/2000/svg">
    <path d="M20.7318 3H16.293C16.1263 2.99998 15.9613 3.03222 15.8073 3.09488C15.6534 3.15753 15.5135 3.24937 15.3956 3.36515L4.91867 13.655C4.80078 13.7708 4.70727 13.9081 4.64348 14.0594C4.57969 14.2106 4.54686 14.3727 4.54688 14.5364V18.8959C4.54686 19.0596 4.57969 19.2217 4.64346 19.3729C4.70724 19.5241 4.80072 19.6615 4.91857 19.7773C5.03643 19.893 5.17634 19.9848 5.33032 20.0475C5.48431 20.1101 5.64934 20.1424 5.81601 20.1424H10.2548C10.4215 20.1424 10.5865 20.1101 10.7405 20.0475C10.8944 19.9848 11.0343 19.893 11.1521 19.7772L21.6293 9.48731C21.8672 9.25356 22.0009 8.93655 22.0009 8.606V4.24649C22.0009 4.0828 21.9681 3.9207 21.9043 3.76947C21.8405 3.61824 21.7471 3.48082 21.6292 3.36507C21.5114 3.24932 21.3714 3.15751 21.2175 3.09487C21.0635 3.03223 20.8984 2.99999 20.7318 3Z" fill="#28A8EA"/>
    <path d="M20.7314 20.1425H16.2925C15.956 20.1425 15.6332 20.0112 15.3952 19.7774L13.2734 17.6936V13.7998C13.2734 13.2088 13.5125 12.6419 13.938 12.224C14.3635 11.8061 14.9407 11.5713 15.5425 11.5713H19.507L21.6288 13.6552C21.8667 13.8889 22.0005 14.2059 22.0005 14.5365V18.8961C22.0005 19.2266 21.8668 19.5437 21.6288 19.7774C21.3908 20.0112 21.068 20.1425 20.7314 20.1425Z" fill="#0078D4"/>
    <path d="M5.81593 3H10.2548C10.5914 3 10.9142 3.13132 11.1522 3.36506L13.2739 5.44891V9.34267C13.2739 9.93371 13.0348 10.5005 12.6093 10.9185C12.1838 11.3364 11.6067 11.5712 11.0049 11.5712H7.04031L4.91857 9.48733C4.68058 9.25359 4.54688 8.93656 4.54688 8.606V4.24639C4.54688 3.91583 4.68058 3.5988 4.91857 3.36506C5.15657 3.13132 5.47935 3 5.81593 3Z" fill="#50D9FF"/>
    <path opacity="0.2" d="M12.5466 7.40344V16.8102C12.5474 16.8582 12.5426 16.9062 12.5321 16.9531C12.499 17.1463 12.3971 17.3216 12.2446 17.4479C12.0921 17.5742 11.8988 17.6431 11.6994 17.6424H4.54688V6.57129H11.6994C11.8107 6.5711 11.9209 6.59249 12.0238 6.63424C12.1267 6.67599 12.2202 6.73728 12.2989 6.81459C12.3776 6.8919 12.44 6.98371 12.4825 7.08476C12.5251 7.18581 12.5468 7.2941 12.5466 7.40344Z" fill="black"/>
    <path opacity="0.1" d="M12.9103 7.40364V16.0962C12.9073 16.4107 12.7787 16.7115 12.5523 16.9339C12.3258 17.1563 12.0196 17.2825 11.6994 17.2855H4.54688V6.21436H11.6994C12.0202 6.21546 12.3275 6.34111 12.5544 6.5639C12.7812 6.7867 12.9091 7.08856 12.9103 7.40364Z" fill="black"/>
    <path opacity="0.2" d="M12.5466 7.40344V16.096C12.5468 16.2053 12.5251 16.3136 12.4825 16.4147C12.44 16.5157 12.3776 16.6075 12.2989 16.6848C12.2202 16.7621 12.1267 16.8234 12.0238 16.8652C11.9209 16.9069 11.8107 16.9283 11.6994 16.9281H4.54688V6.57129H11.6994C11.8107 6.5711 11.9209 6.59249 12.0238 6.63424C12.1267 6.67599 12.2202 6.73728 12.2989 6.81459C12.3776 6.8919 12.44 6.98371 12.4825 7.08476C12.5251 7.18581 12.5468 7.2941 12.5466 7.40344Z" fill="black"/>
    <path opacity="0.1" d="M12.183 7.40344V16.096C12.1832 16.2053 12.1614 16.3136 12.1189 16.4147C12.0764 16.5157 12.014 16.6075 11.9353 16.6848C11.8566 16.7621 11.7631 16.8234 11.6602 16.8652C11.5573 16.9069 11.4471 16.9283 11.3357 16.9281H4.54688V6.57129H11.3357C11.4471 6.5711 11.5573 6.59249 11.6602 6.63424C11.7631 6.67599 11.8566 6.73728 11.9353 6.81459C12.014 6.8919 12.0764 6.98371 12.1189 7.08476C12.1614 7.18581 12.1832 7.2941 12.183 7.40344Z" fill="black"/>
    <path d="M11.3331 6.57129H2.84846C2.37987 6.57129 2 6.94437 2 7.4046V15.7377C2 16.1979 2.37987 16.571 2.84846 16.571H11.3331C11.8017 16.571 12.1815 16.1979 12.1815 15.7377V7.4046C12.1815 6.94437 11.8017 6.57129 11.3331 6.57129Z" fill="#0078D4"/>
    <path d="M8.75827 9.74302H6.37754V11.1103H8.61215V11.9866H6.37754V13.4068H8.88513V14.2794H5.29688V8.86279H8.75826L8.75827 9.74302Z" fill="white"/>
</svg>
