<svg width="24" height="24" viewBox="0 0 24 24" fill="none"
    xmlns="http://www.w3.org/2000/svg">
    <g clip-path="url(#clip0_990_2723)">
        <path d="M19.4582 6.20564C18.3084 5.10632 17.1637 3.99215 16.0243 2.86311C15.5449 2.42081 15.0624 1.99962 14.387 2.01213C11.9288 1.99727 9.47093 1.9961 7.01348 2.00861C5.99807 1.95269 5.03774 2.8287 5 3.86231V20.1666C5.02772 21.113 5.87332 21.9718 6.80516 22H18.1355C19.1348 22.0184 20.0181 21.0262 19.9981 20.0306L19.9992 7.58496C20.0177 7.04293 19.8067 6.60375 19.4586 6.20564H19.4582ZM15.1394 3.78449L18.1737 6.70973H15.2738C15.2337 6.70973 15.1394 6.61392 15.1394 6.57325V3.78449ZM18.8267 20.0302C18.8267 20.0466 18.7251 20.2961 18.7047 20.3352C18.5495 20.6312 18.2491 20.7955 17.9257 20.8315H7.05314C6.55333 20.7814 6.19638 20.4248 6.15056 19.9148V4.11416C6.1856 3.78566 6.34771 3.48062 6.6392 3.32302C6.67771 3.30229 6.92337 3.19905 6.93955 3.19905H13.9873V6.72889C13.9873 7.1755 14.6796 7.87944 15.1201 7.87944H18.8263V20.0298L18.8267 20.0302Z" fill="black"/>
        <path d="M8.0235 9.83912L16.6573 9.82935C17.3458 9.95136 17.3473 10.8786 16.6573 11.0014H8.09089C7.43629 10.8868 7.39124 10.0296 8.0235 9.83912Z" fill="black"/>
        <path d="M8.0235 12.9595L16.6573 12.9497C17.3458 13.0718 17.3473 13.999 16.6573 14.1218H8.09089C7.43629 14.0072 7.39124 13.15 8.0235 12.9595Z" fill="black"/>
        <path d="M8.02348 16.0799C8.94878 16.1526 10.1097 15.9505 11.0073 16.0744C11.6823 16.1679 11.6819 17.1444 11.0073 17.2379C10.1163 17.3611 8.97381 17.155 8.05582 17.2391C7.43049 17.0877 7.40661 16.2668 8.02386 16.0799H8.02348Z" fill="black"/>
    </g>
    <defs>
        <clipPath id="clip0_990_2723">
            <rect width="15" height="20" fill="white" transform="translate(5 2)"/>
        </clipPath>
    </defs>
</svg>
