<svg width="24" height="24" viewBox="0 0 24 24" fill="none"
    xmlns="http://www.w3.org/2000/svg">
    <path d="M4.80209 3.0007C4.90793 3.00059 5.01376 3.00041 5.11959 3.00019C5.34067 2.99993 5.56175 3.00031 5.78283 3.00114C6.06505 3.00214 6.34723 3.00156 6.62944 3.0005C6.84777 2.99986 7.06608 3.00007 7.2844 3.00053C7.38841 3.00064 7.49242 3.0005 7.59643 3.00009C8.58435 2.99702 9.17395 3.18362 9.93971 3.81165C10.1478 3.98222 10.3598 4.14546 10.577 4.30444C10.8199 4.4825 11.0565 4.66624 11.2899 4.85628C11.5318 5.05226 11.7747 5.24664 12.0222 5.43571C12.0501 5.45765 12.0779 5.47959 12.1067 5.50219C12.4678 5.77468 12.8216 5.82507 13.2674 5.82174C13.3166 5.8219 13.3657 5.82207 13.4164 5.82224C13.5226 5.82252 13.6288 5.82251 13.7349 5.82223C13.9034 5.82183 14.0718 5.82228 14.2402 5.82296C14.6585 5.82451 15.0768 5.82484 15.4951 5.82473C15.8488 5.82464 16.2026 5.82526 16.5563 5.82687C16.7216 5.82734 16.8868 5.82681 17.052 5.82626C17.1543 5.82665 17.2565 5.82709 17.3588 5.8276C17.4042 5.82717 17.4495 5.82674 17.4963 5.8263C18.1119 5.83231 18.5884 6.07461 19.0334 6.48422C19.194 6.65231 19.2976 6.8341 19.3982 7.04158C19.4142 7.07229 19.4303 7.10299 19.4468 7.13463C19.6395 7.56442 19.5958 8.02477 19.5875 8.48465C19.5866 8.57177 19.5858 8.65888 19.5851 8.746C19.5832 8.95782 19.5801 9.1696 19.5764 9.3814C19.6246 9.3806 19.6727 9.3798 19.7223 9.37897C19.7866 9.37832 19.8508 9.3777 19.9151 9.37709C19.9467 9.37651 19.9783 9.37593 20.0109 9.37533C20.5073 9.3718 20.8893 9.56074 21.2693 9.86702C21.2972 9.88808 21.3251 9.90913 21.3538 9.93083C21.7256 10.2486 21.9558 10.7978 21.9969 11.2735C22.0233 11.8709 21.8786 12.3682 21.687 12.9298C21.6553 13.0258 21.6237 13.1219 21.5922 13.218C21.5233 13.4281 21.4537 13.638 21.3838 13.8478C21.2596 14.2209 21.1394 14.5953 21.0194 14.9698C20.998 15.0369 20.9765 15.104 20.955 15.1711C20.9227 15.2718 20.8904 15.3726 20.8582 15.4734C20.7272 15.8823 20.5958 16.2911 20.4635 16.6997C20.4441 16.7596 20.4247 16.8195 20.4053 16.8795C20.3958 16.909 20.3862 16.9385 20.3764 16.9689C20.3168 17.1533 20.258 17.3379 20.1998 17.5227C20.1607 17.6465 20.1212 17.7703 20.0817 17.894C20.0547 17.9791 20.0281 18.0645 20.0015 18.1498C19.7949 18.795 19.5447 19.341 18.9468 19.7097C18.5038 19.9368 18.1504 19.9898 17.6563 19.9886C17.5967 19.9888 17.537 19.989 17.4774 19.9892C17.3141 19.9897 17.1507 19.9897 16.9874 19.9896C16.811 19.9896 16.6347 19.9901 16.4583 19.9905C16.1129 19.9913 15.7676 19.9915 15.4222 19.9915C15.1414 19.9916 14.8605 19.9918 14.5797 19.992C13.783 19.9928 12.9863 19.9932 12.1896 19.9932C12.1467 19.9932 12.1038 19.9932 12.0595 19.9932C12.0166 19.9932 11.9736 19.9931 11.9293 19.9931C11.2329 19.9931 10.5365 19.994 9.84018 19.9952C9.12468 19.9965 8.40919 19.9971 7.6937 19.997C7.29219 19.997 6.89069 19.9972 6.48918 19.9982C6.14727 19.999 5.80538 19.9992 5.46347 19.9986C5.28916 19.9983 5.11487 19.9983 4.94057 19.999C4.7807 19.9997 4.62085 19.9996 4.46098 19.9988C4.37639 19.9986 4.29181 19.9993 4.20723 20C3.60426 19.9952 3.09026 19.8014 2.63718 19.4046C2.29503 19.0538 2.01819 18.5607 2.01723 18.0666C2.01703 18.0192 2.01683 17.9718 2.01663 17.923C2.01664 17.8709 2.01665 17.8189 2.01665 17.7653C2.01649 17.71 2.01633 17.6547 2.01616 17.5977C2.01571 17.4441 2.01555 17.2905 2.01543 17.1369C2.01525 16.9712 2.01483 16.8056 2.01444 16.64C2.01356 16.2398 2.01311 15.8397 2.01271 15.4396C2.01252 15.2511 2.01228 15.0626 2.01204 14.874C2.01129 14.2472 2.01064 13.6203 2.01032 12.9935C2.01023 12.8308 2.01015 12.6682 2.01006 12.5055C2.01004 12.4651 2.01002 12.4247 2.01 12.383C2.00963 11.7285 2.0085 11.074 2.00705 10.4194C2.00558 9.74716 2.00477 9.07487 2.00463 8.40258C2.00454 8.02524 2.00415 7.6479 2.00301 7.27057C2.00204 6.94912 2.00168 6.62769 2.00211 6.30624C2.00232 6.14237 2.00224 5.97851 2.00137 5.81464C2.00043 5.63658 2.0009 5.45855 2.00148 5.28049C2.00099 5.22925 2.0005 5.17801 2 5.12521C2.00498 4.49562 2.23387 4.01628 2.66642 3.56221C3.28681 2.9828 3.99736 2.9975 4.80209 3.0007ZM3.63262 4.69073C3.45405 4.96137 3.43586 5.22433 3.43814 5.53739C3.43806 5.57605 3.43798 5.61472 3.4379 5.65455C3.43776 5.78355 3.43825 5.91253 3.43873 6.04152C3.43876 6.13421 3.43875 6.2269 3.4387 6.31959C3.43867 6.57086 3.43919 6.82213 3.43982 7.07339C3.44037 7.33612 3.44043 7.59884 3.44053 7.86157C3.44081 8.35892 3.44154 8.85626 3.44243 9.35361C3.44343 9.91989 3.44392 10.4862 3.44437 11.0525C3.4453 12.2172 3.44686 13.3819 3.44885 14.5467C3.54551 14.403 3.592 14.2633 3.64269 14.1003C3.65781 14.0526 3.65781 14.0526 3.67324 14.0039C3.69512 13.9347 3.71689 13.8656 3.73858 13.7964C3.77307 13.6864 3.80783 13.5764 3.84265 13.4665C3.91674 13.2325 3.9905 12.9983 4.06421 12.7642C4.14924 12.4942 4.23441 12.2243 4.31988 11.9544C4.35381 11.8471 4.38752 11.7396 4.42121 11.6322C4.92235 10.0427 4.92235 10.0427 5.64648 9.65525C5.92051 9.52739 6.15773 9.42042 6.46258 9.41942C6.50422 9.41918 6.54585 9.41894 6.58875 9.41869C6.63434 9.41865 6.67993 9.4186 6.7269 9.41856C6.77545 9.41834 6.82399 9.41812 6.87401 9.4179C7.03723 9.41722 7.20044 9.41685 7.36366 9.41648C7.48044 9.41606 7.59722 9.41562 7.714 9.41516C7.9657 9.4142 8.2174 9.41339 8.46911 9.4127C8.83303 9.4117 9.19695 9.41046 9.56087 9.40915C10.1513 9.40705 10.7417 9.40514 11.3322 9.40335C11.9057 9.40161 12.4793 9.39979 13.0529 9.39783C13.0882 9.39771 13.1236 9.39759 13.16 9.39747C13.3373 9.39687 13.5147 9.39626 13.692 9.39565C15.1634 9.39062 16.6348 9.38591 18.1062 9.3814C18.1106 9.15362 18.1139 8.92587 18.116 8.69806C18.1169 8.62064 18.1181 8.54322 18.1197 8.46581C18.1218 8.35424 18.1228 8.24271 18.1236 8.13113C18.1245 8.09676 18.1255 8.0624 18.1264 8.027C18.1265 7.79565 18.0821 7.66671 17.928 7.48305C17.7059 7.31342 17.5442 7.25693 17.2685 7.25652C17.2255 7.25634 17.1826 7.25617 17.1383 7.25598C17.0914 7.25601 17.0446 7.25603 16.9963 7.25605C16.922 7.25582 16.922 7.25582 16.8461 7.25559C16.7384 7.25527 16.6306 7.25503 16.5229 7.25487C16.3521 7.25455 16.1812 7.25386 16.0104 7.25305C15.5246 7.25073 15.0389 7.24859 14.5531 7.24793C14.2559 7.24752 13.9588 7.24618 13.6616 7.24434C13.5486 7.2438 13.4357 7.24357 13.3227 7.24367C13.1641 7.24377 13.0055 7.24279 12.8468 7.24157C12.7776 7.24201 12.7776 7.24201 12.707 7.24245C11.9678 7.2332 11.4452 6.87153 10.9016 6.41144C10.7429 6.27882 10.5769 6.1567 10.41 6.03446C10.1635 5.85362 9.92292 5.6674 9.68602 5.47434C9.44364 5.27727 9.19845 5.08479 8.94814 4.89767C8.91952 4.8761 8.89089 4.85453 8.86139 4.83231C8.47597 4.54656 8.18624 4.43044 7.69857 4.42976C7.66043 4.42954 7.6223 4.42933 7.58301 4.4291C7.45721 4.42846 7.3314 4.42815 7.2056 4.42791C7.11787 4.42766 7.03015 4.4274 6.94242 4.42715C6.75858 4.42668 6.57474 4.42643 6.3909 4.42627C6.15586 4.42603 5.92083 4.42497 5.68579 4.42371C5.50458 4.42289 5.32338 4.42266 5.14218 4.42259C5.05555 4.42246 4.96893 4.42211 4.88231 4.42153C4.76087 4.42077 4.63946 4.42086 4.51803 4.42114C4.46486 4.42053 4.46486 4.42053 4.41062 4.41991C4.10761 4.42213 3.8584 4.47673 3.63262 4.69073ZM6.24135 11.0592C6.08898 11.2582 6.021 11.4815 5.94859 11.7181C5.92574 11.7895 5.92574 11.7895 5.90243 11.8623C5.85235 12.0192 5.80337 12.1765 5.75438 12.3338C5.71922 12.4447 5.68399 12.5556 5.64869 12.6664C5.57517 12.8976 5.50214 13.1289 5.42944 13.3603C5.32497 13.6928 5.21905 14.0247 5.11273 14.3566C4.92994 14.9275 4.74822 15.4988 4.56697 16.0702C4.51736 16.2265 4.46771 16.3828 4.41804 16.5391C4.33811 16.7907 4.25833 17.0423 4.17866 17.294C4.14897 17.3877 4.11925 17.4815 4.08948 17.5752C4.0488 17.7033 4.00828 17.8315 3.9678 17.9596C3.95573 17.9975 3.94366 18.0354 3.93123 18.0745C3.87168 18.2497 3.87168 18.2497 3.84981 18.4316C4.17878 18.5613 4.4601 18.5829 4.81215 18.5809C4.8677 18.5811 4.92324 18.5813 4.98048 18.5815C5.13373 18.582 5.28696 18.5818 5.44021 18.5814C5.60585 18.5811 5.77148 18.5816 5.93712 18.5819C6.26123 18.5825 6.58533 18.5824 6.90944 18.582C7.17292 18.5817 7.4364 18.5817 7.69988 18.5818C7.7562 18.5818 7.7562 18.5818 7.81365 18.5819C7.88992 18.5819 7.96619 18.5819 8.04246 18.582C8.75718 18.5824 9.47189 18.5819 10.1866 18.5812C10.7995 18.5806 11.4123 18.5807 12.0252 18.5813C12.7374 18.5821 13.4496 18.5823 14.1618 18.5819C14.2378 18.5819 14.3138 18.5818 14.3898 18.5818C14.4272 18.5818 14.4646 18.5818 14.5031 18.5817C14.7662 18.5816 15.0292 18.5818 15.2923 18.5821C15.613 18.5825 15.9337 18.5824 16.2545 18.5817C16.418 18.5813 16.5816 18.5812 16.7451 18.5816C16.9226 18.5821 17.1 18.5816 17.2775 18.5809C17.3547 18.5813 17.3547 18.5813 17.4334 18.5818C17.7784 18.5793 18.0925 18.5558 18.3632 18.3276C18.5224 18.1066 18.5897 17.835 18.6715 17.579C18.6921 17.5158 18.7129 17.4526 18.7337 17.3894C18.8077 17.1632 18.8802 16.9366 18.9527 16.7099C18.982 16.6185 19.0114 16.527 19.0407 16.4356C19.1731 16.0227 19.3052 15.6096 19.436 15.1961C19.6074 14.6546 19.7801 14.1136 19.9572 13.5739C20.0139 13.4007 20.0702 13.2273 20.1266 13.054C20.1716 12.9154 20.2171 12.777 20.263 12.6387C20.3139 12.4853 20.3639 12.3316 20.4136 12.1779C20.4289 12.1329 20.4441 12.0879 20.4598 12.0415C20.5642 11.7141 20.5976 11.4464 20.4368 11.1335C20.2491 10.9173 20.082 10.8261 19.7992 10.7941C19.6247 10.7877 19.4504 10.7878 19.2758 10.7879C19.2228 10.7878 19.1697 10.7877 19.115 10.7875C18.9681 10.7872 18.8211 10.7871 18.6742 10.7871C18.5156 10.787 18.3569 10.7866 18.1983 10.7863C17.8517 10.7857 17.505 10.7855 17.1584 10.7853C16.9418 10.7852 16.7253 10.785 16.5088 10.7848C15.909 10.7842 15.3093 10.7838 14.7095 10.7836C14.652 10.7836 14.652 10.7836 14.5933 10.7836C14.5548 10.7836 14.5163 10.7836 14.4767 10.7836C14.3988 10.7836 14.3209 10.7835 14.243 10.7835C14.2043 10.7835 14.1657 10.7835 14.1259 10.7835C13.4996 10.7833 12.8732 10.7825 12.2469 10.7815C11.6036 10.7805 10.9602 10.7799 10.3169 10.7799C9.9558 10.7798 9.59471 10.7796 9.23362 10.7788C8.92618 10.7781 8.61874 10.7779 8.3113 10.7782C8.15452 10.7784 7.99775 10.7784 7.84097 10.7777C7.6708 10.7771 7.50065 10.7774 7.33048 10.7779C7.28122 10.7775 7.23195 10.7772 7.18119 10.7768C6.83271 10.779 6.49761 10.803 6.24135 11.0592Z" fill="black"/>
</svg>
