<svg width="24" height="24" viewBox="0 0 24 24" fill="none"
    xmlns="http://www.w3.org/2000/svg">
    <path d="M14.5697 13.6382C14.4085 13.6382 14.2993 13.649 14.2422 13.6644V14.6981C14.3097 14.7134 14.393 14.719 14.5073 14.719C14.9278 14.719 15.1881 14.5062 15.1881 14.1529C15.1878 13.8307 14.9695 13.6382 14.5697 13.6382Z" fill="black"/>
    <path d="M12.8058 8.93697C12.361 8.49236 11.6402 8.49236 11.1954 8.93697L6.13827 13.9943C5.69349 14.4391 5.69349 15.1599 6.13827 15.6049L11.1952 20.6616C11.64 21.1064 12.3608 21.1064 12.8056 20.6616L17.8627 15.6045C18.0764 15.3911 18.1963 15.1012 18.1963 14.7993C18.1963 14.4974 18.0764 14.2077 17.8627 13.9939L12.8058 8.93697ZM10.1627 13.7109H8.81737V14.5113H10.0745V15.1553H8.81737V16.563H8.02782V13.0616H10.1627V13.7109ZM13.1862 13.7266H12.2301V16.5626H11.4408V13.7266H10.4955V13.0616H13.1862V13.7266ZM15.6565 14.9575C15.3861 15.2073 14.9812 15.3264 14.5138 15.3264C14.4098 15.3264 14.3164 15.3215 14.2435 15.3055V16.5626H13.4594V13.1086C13.7035 13.0669 14.0467 13.0358 14.5295 13.0358C15.0176 13.0358 15.3709 13.1295 15.6046 13.3214C15.8283 13.4932 15.9734 13.7837 15.9734 14.1268C15.9732 14.4746 15.8642 14.7656 15.6565 14.9575Z" fill="black"/>
    <path d="M17.9467 7.05782C17.8359 7.04989 17.7341 6.99317 17.669 6.90291C16.8563 5.7757 15.5325 5.07822 14.1229 5.07822C14.0208 5.07822 13.9188 5.0819 13.8168 5.089C13.7251 5.0955 13.6346 5.06807 13.5616 5.01215C12.7082 4.35575 11.6682 4 10.5784 4C8.63117 4 6.90527 5.14125 6.11917 6.86389C6.06509 6.98239 5.95329 7.06412 5.82399 7.08039C3.67121 7.34932 2 9.19089 2 11.4154C2 13.3867 3.31322 15.0559 5.11046 15.5978C5.0019 15.3488 4.94378 15.0788 4.94378 14.7993C4.94378 14.4403 5.03973 14.097 5.21576 13.7951C4.3329 13.3654 3.72142 12.4617 3.72142 11.4154C3.72142 9.95545 4.9092 8.76786 6.36919 8.76786C6.44299 8.76786 6.51537 8.77373 6.58755 8.77983C7.00813 8.81216 7.38908 8.53936 7.49156 8.13135C7.84771 6.71264 9.11702 5.72163 10.5782 5.72163C11.4131 5.72163 12.2033 6.04403 12.803 6.62949C13.0081 6.82951 13.2988 6.91429 13.5795 6.85596C13.7582 6.81896 13.9408 6.80004 14.1227 6.80004C15.1446 6.80004 16.0578 7.37454 16.505 8.29968C16.6619 8.62493 17.0059 8.81866 17.3653 8.78168C17.4548 8.77253 17.544 8.76826 17.631 8.76826C19.0912 8.76826 20.2788 9.95605 20.2788 11.4158C20.2788 12.4621 19.6673 13.3656 18.7844 13.7955C18.9605 14.0972 19.0564 14.4405 19.0564 14.7993C19.0564 15.079 18.9981 15.3492 18.8895 15.5984C20.687 15.0565 22 13.3873 22 11.4158C22.0006 9.11281 20.2093 7.21964 17.9467 7.05782Z" fill="black"/>
</svg>
