<svg width="24" height="24" viewBox="0 0 24 24" fill="none"
    xmlns="http://www.w3.org/2000/svg">
    <path d="M9.09821 4.85693C9.12768 4.85693 9.15714 4.85693 9.1875 4.85693C9.19406 4.90625 9.20062 4.95557 9.20738 5.00638C9.38058 6.23666 9.75387 7.4249 10.3482 8.51765C10.3639 8.54707 10.3795 8.57649 10.3956 8.6068C11.1465 10.0175 12.2563 11.2107 13.6518 11.9998C13.6794 12.0156 13.7069 12.0315 13.7353 12.0478C14.5389 12.5069 15.3948 12.7883 16.2857 13.0266C16.2857 13.056 16.2857 13.0855 16.2857 13.1159C16.2579 13.1235 16.2302 13.1311 16.2015 13.1389C13.6976 13.8299 11.7454 15.1798 10.4327 17.4421C9.76874 18.6179 9.34214 19.9443 9.1875 21.2855C9.15804 21.2855 9.12857 21.2855 9.09821 21.2855C9.09165 21.2362 9.08509 21.1869 9.07833 21.1361C8.90513 19.9058 8.53184 18.7175 7.9375 17.6248C7.92186 17.5954 7.90622 17.5659 7.89011 17.5356C6.72691 15.3503 4.82039 13.9765 2.48595 13.2437C2.32498 13.1955 2.16362 13.154 2 13.1159C2 13.0864 2 13.0569 2 13.0266C2.02778 13.019 2.05556 13.0114 2.08418 13.0036C4.58837 12.3125 6.53997 10.9626 7.85297 8.70039C8.5094 7.53761 8.96228 6.1891 9.09821 4.85693Z" fill="black"/>
    <path d="M18.0285 13.4287C18.0579 13.4287 18.0874 13.4287 18.1177 13.4287C18.127 13.4806 18.1363 13.5325 18.1458 13.586C18.3365 14.5988 18.72 15.4698 19.4124 16.2412C19.4424 16.2755 19.4725 16.3097 19.5034 16.345C20.1629 17.0526 21.084 17.4309 22.0017 17.6698C22.0017 17.6992 22.0017 17.7287 22.0017 17.7591C21.9455 17.7743 21.8893 17.7895 21.8315 17.8051C20.5399 18.1659 19.4691 18.8508 18.7816 20.0333C18.4374 20.6542 18.2394 21.3026 18.1177 22.0001C18.0883 22.0001 18.0588 22.0001 18.0285 22.0001C18.0153 21.9238 18.0153 21.9238 18.002 21.846C17.7943 20.7172 17.3278 19.7714 16.5106 18.9644C16.4799 18.9338 16.4493 18.9032 16.4177 18.8717C16.1659 18.6363 15.8709 18.4655 15.5731 18.2948C15.5318 18.2708 15.4906 18.2468 15.4481 18.2221C15.0378 17.9998 14.5919 17.8829 14.1445 17.7591C14.1445 17.7296 14.1445 17.7001 14.1445 17.6698C14.2007 17.6546 14.2569 17.6394 14.3147 17.6237C15.6063 17.263 16.6771 16.578 17.3646 15.3955C17.7088 14.7746 17.9068 14.1262 18.0285 13.4287Z" fill="black"/>
    <path d="M15.5285 2C15.5579 2 15.5874 2 15.6177 2C15.627 2.05191 15.6363 2.10382 15.6458 2.1573C15.8365 3.17004 16.22 4.0411 16.9124 4.8125C16.9424 4.84674 16.9725 4.88098 17.0034 4.91626C17.6629 5.62389 18.584 6.00217 19.5017 6.24107C19.5017 6.27054 19.5017 6.3 19.5017 6.33036C19.4455 6.34555 19.3893 6.36074 19.3315 6.37639C18.0399 6.73715 16.9691 7.42212 16.2816 8.60461C15.9374 9.22551 15.7394 9.87391 15.6177 10.5714C15.5883 10.5714 15.5588 10.5714 15.5285 10.5714C15.5153 10.4951 15.5153 10.4951 15.502 10.4173C15.2943 9.28846 14.8278 8.34269 14.0106 7.53571C13.9799 7.5051 13.9493 7.47448 13.9177 7.44294C13.6659 7.20759 13.3709 7.03677 13.0731 6.86607C13.0318 6.84207 12.9906 6.81808 12.9481 6.79335C12.5378 6.57111 12.0919 6.45422 11.6445 6.33036C11.6445 6.30089 11.6445 6.27143 11.6445 6.24107C11.7007 6.22588 11.7569 6.21069 11.8147 6.19503C13.1063 5.83428 14.1771 5.14931 14.8646 3.96681C15.2088 3.34592 15.4068 2.69752 15.5285 2Z" fill="black"/>
</svg>
