<svg width="24" height="24" viewBox="0 0 24 24" fill="none"
    xmlns="http://www.w3.org/2000/svg">
    <path d="M21.5999 12.2216C21.5999 11.3994 21.5332 10.7995 21.3888 10.1772H12V13.8883H17.511C17.3999 14.8105 16.8 16.1994 15.4666 17.1327L15.4479 17.2569L18.4165 19.5566L18.6222 19.5771C20.511 17.8327 21.5999 15.2661 21.5999 12.2216Z" fill="#4285F4"/>
    <path d="M11.9997 22.0002C14.6996 22.0002 16.9662 21.1112 18.6218 19.578L15.4663 17.1335C14.6219 17.7224 13.4885 18.1335 11.9997 18.1335C9.35528 18.1335 7.11087 16.3891 6.3108 13.978L6.19352 13.988L3.10677 16.3768L3.06641 16.4891C4.71082 19.7557 8.08856 22.0002 11.9997 22.0002Z" fill="#34A853"/>
    <path d="M6.31104 13.9777C6.09991 13.3555 5.97775 12.6888 5.97775 11.9999C5.97775 11.311 6.09991 10.6444 6.29992 10.0221L6.29433 9.88964L3.16889 7.4624L3.06663 7.51104C2.38889 8.86659 2 10.3888 2 11.9999C2 13.611 2.38889 15.1332 3.06663 16.4887L6.31104 13.9777Z" fill="#FBBC05"/>
    <path d="M11.9997 5.86659C13.8774 5.86659 15.144 6.6777 15.8663 7.35552L18.6885 4.59998C16.9552 2.98888 14.6996 2 11.9997 2C8.08856 2 4.71082 4.2444 3.06641 7.511L6.29969 10.0221C7.11087 7.61104 9.35528 5.86659 11.9997 5.86659Z" fill="#EB4335"/>
</svg>
