<svg width="24" height="24" viewBox="0 0 24 24" fill="none"
    xmlns="http://www.w3.org/2000/svg">
    <g clip-path="url(#clip0_3616_1190)">
        <path d="M2 15V10H3.36712V11.6787H5.16399V10.0536L5.2227 10H6.53112V15H5.20313L5.16399 12.9286H3.36712V15H2Z" fill="black"/>
        <path d="M22.0003 11.0715V12.2858C21.8993 12.6315 21.7102 12.962 21.3635 13.1501C21.3059 13.1814 20.9615 13.3217 20.9259 13.3217H18.8359L18.7967 15.0004H17.4688V10H20.7306C21.1149 10 21.6394 10.2978 21.8112 10.619L21.9999 11.0715H22.0003ZM20.6331 11.2499H18.8363V12.0714H20.6331V11.2499Z" fill="black"/>
        <path d="M8.83587 15L8.77717 11.2499H7.46875V10H11.531V11.2499H10.2226L10.1639 15H8.83587Z" fill="black"/>
        <path d="M13.8359 15L13.7772 11.2499H12.4688V10H16.531V11.2499H15.2226L15.1639 15H13.8359Z" fill="black"/>
    </g>
    <defs>
        <clipPath id="clip0_3616_1190">
            <rect width="20" height="5" fill="white" transform="translate(2 10)"/>
        </clipPath>
    </defs>
</svg>
