<svg width="24" height="24" viewBox="0 0 24 24" fill="none"
    xmlns="http://www.w3.org/2000/svg">
    <g clip-path="url(#clip0_3608_421)">
        <path d="M20.3554 6.5578C21.9084 8.14578 20.3133 10.683 19.1654 12.0152C20.2624 13.2594 21.6664 15.4302 20.6375 17.0783C19.6707 18.6266 17.1347 18.4781 15.5788 18.1827C15.0422 19.7515 13.8384 22.0696 11.8941 21.9983C10.0924 21.9324 8.92202 19.671 8.42132 18.1827C6.85415 18.4789 4.30144 18.6275 3.34636 17.0528C2.39128 15.4782 3.73732 13.2556 4.83426 12.0152C3.7828 10.7514 2.35916 8.66148 3.3159 7.0009C4.25763 5.36619 6.82536 5.51889 8.42049 5.81721C8.96792 4.24258 10.1471 1.92987 12.1056 2.00163C13.9185 2.06797 15.0614 4.33062 15.5783 5.81721C17.0567 5.55519 19.2088 5.38538 20.3554 6.5578ZM11.8227 3.01383C10.9265 3.13149 10.1612 4.32311 9.79824 5.07079C9.73774 5.19512 9.38975 5.98911 9.43482 6.04544C10.316 6.2962 11.1672 6.62205 12.0172 6.95959C12.8433 6.59327 13.6982 6.30454 14.5644 6.04544C14.6546 5.93195 13.9206 4.55843 13.7913 4.35565C13.3736 3.70185 12.6898 2.89993 11.8231 3.01383H11.8227ZM8.12675 6.79395C6.92675 6.52609 4.10992 6.34835 4.00227 8.10364C3.95888 8.81252 4.38322 9.67828 4.76124 10.2632C4.85345 10.4059 5.41215 11.1853 5.50352 11.2316C5.56402 11.2621 5.56444 11.2412 5.60825 11.2108C5.77598 11.0952 5.99754 10.7985 6.16861 10.6454C6.62383 10.2374 7.1216 9.87354 7.60311 9.49761L8.12675 6.79354V6.79395ZM17.0299 6.63874C16.765 6.65293 16.2151 6.68297 15.9789 6.75348C15.9355 6.76642 15.8955 6.76183 15.8763 6.8169C16.1162 7.68599 16.2484 8.57929 16.382 9.47008C16.7554 9.79301 17.1643 10.0738 17.539 10.3955C17.8582 10.6696 18.1398 10.9863 18.4694 11.2471C18.5283 11.2375 18.976 10.6308 19.0465 10.5303C20.7572 8.09488 20.1852 6.47143 17.0299 6.63874ZM10.75 7.58419C10.6932 7.4899 10.538 7.45527 10.4383 7.4173C9.99893 7.24957 9.53788 7.12524 9.08433 7.00132L8.75137 8.70946L10.7496 7.58419H10.75ZM14.9141 7.00132C14.461 7.12524 13.9995 7.24957 13.5601 7.4173C13.4604 7.45527 13.3056 7.4899 13.2484 7.58419L15.2466 8.70946L14.9137 7.00132H14.9141ZM15.4031 10.0121C14.3412 9.2794 13.2201 8.64062 12.0514 8.09154C11.9496 8.07444 11.3738 8.35357 11.234 8.42283C10.3215 8.87677 9.42146 9.45297 8.58614 10.0338C8.4618 11.3418 8.44678 12.6819 8.59573 13.9883C9.44274 14.5449 10.2968 15.1115 11.2073 15.5625C11.3425 15.6297 11.8457 15.8917 11.9475 15.9088C12.0238 15.9217 12.0476 15.905 12.1123 15.8838C12.5308 15.7465 13.3244 15.2817 13.7345 15.048C14.312 14.7193 14.8657 14.3421 15.4127 13.9674C15.5337 12.6577 15.5516 11.3197 15.4027 10.0121H15.4031ZM16.4971 13.1246C16.9728 12.7988 17.3838 12.3869 17.7872 11.9793L16.4971 10.834V13.125V13.1246ZM7.50171 13.1246V10.8753L6.79323 11.4369L6.21034 12.0202L7.50171 13.1246ZM8.12675 17.2064C7.86806 16.3227 7.76374 15.4069 7.60352 14.5019C7.21089 14.1873 6.80032 13.8906 6.41854 13.5627C6.17821 13.3562 5.82981 12.9414 5.60825 12.7892C5.56402 12.7587 5.56361 12.7378 5.50352 12.7683C5.40463 12.8184 4.87265 13.5652 4.77793 13.7112C3.99476 14.9183 3.3522 16.6815 5.22188 17.2172C6.14191 17.4809 7.19796 17.3896 8.12717 17.206L8.12675 17.2064ZM18.439 12.7529C17.8094 13.3946 17.1063 13.9541 16.3953 14.5019C16.2989 14.9271 16.2656 15.3635 16.1854 15.7916C16.1053 16.2196 15.9484 16.7116 15.8888 17.1225C15.8821 17.1676 15.8592 17.1939 15.9121 17.2289C17.2277 17.4755 20.1159 17.6591 19.9962 15.643C19.9473 14.8211 19.1471 13.4442 18.5779 12.8551C18.5425 12.8188 18.4991 12.7424 18.439 12.7529ZM10.75 16.4157L8.75178 15.2905L9.08475 16.9986C9.53788 16.8747 9.99935 16.7504 10.4387 16.5826C10.5384 16.5447 10.6932 16.51 10.7504 16.4157H10.75ZM14.9141 16.9986L15.2471 15.2905L13.2489 16.4157C13.3056 16.51 13.4608 16.5447 13.5605 16.5826C13.9999 16.7504 14.461 16.8747 14.9145 16.9986H14.9141ZM11.9479 17.0474L9.42105 17.9808C9.76319 19.028 10.7537 21.0616 12.0626 20.9994C13.3019 20.9406 14.2352 19.0009 14.5786 17.9804L11.9479 17.0474Z" fill="black"/>
        <path d="M11.7393 10.0119C14.4326 9.68733 14.834 13.7891 12.1436 13.9982C9.57838 14.1976 9.2087 10.3169 11.7393 10.0119ZM11.8207 11.01C10.5518 11.2286 10.8418 13.1695 12.1407 12.9956C13.4492 12.8203 13.1496 10.7809 11.8207 11.01Z" fill="black"/>
    </g>
    <defs>
        <clipPath id="clip0_3608_421">
            <rect width="18" height="20" fill="white" transform="translate(3 2)"/>
        </clipPath>
    </defs>
</svg>
