<svg width="24" height="24" viewBox="0 0 24 24" fill="none"
    xmlns="http://www.w3.org/2000/svg">
    <path d="M4.6859 22C4.18295 21.9708 3.71721 21.7395 3.40792 21.3649C3.16182 21.0671 3.07262 20.7342 3.00224 20.4185L3 20.4086V3.59008C3.08472 2.80897 3.7607 2.09612 4.50794 2.0009L4.51332 2H13.5462L13.7703 2.15497L17.9813 6.39788L18.0028 10.0874L17.9992 10.0995C17.9427 10.299 17.7495 10.4328 17.5182 10.4328C17.3999 10.4328 17.2869 10.396 17.1999 10.3295C17.1789 10.3133 17.0202 10.1067 17.0202 10.0443V7.13408H14.4257C13.7358 7.13408 12.8877 6.24157 12.8877 5.51525V2.99268H4.65452C4.52856 2.99268 4.34971 3.09599 4.2094 3.25006C4.08523 3.38661 4.0171 3.53528 4.02741 3.64803V3.65207V20.3385C4.06372 20.7234 4.37078 20.9862 4.81141 21.0073L16.2788 21.0051C16.6396 20.9898 16.9565 20.727 17.0121 20.3942C17.0247 20.3201 17.0238 20.224 17.0224 20.1224C17.0193 19.8157 17.0148 19.3517 17.5146 19.3395H17.529C17.6666 19.3395 17.7786 19.3867 17.8629 19.4797C18.0879 19.729 18.0368 20.2334 18.0095 20.5042C17.9333 21.2553 17.2147 21.9389 16.4397 21.9973H16.433L4.69038 22H4.685H4.6859ZM13.9169 5.59296C13.9169 5.77263 14.3266 6.14185 14.5803 6.14185H16.2779L13.9169 3.74145V5.59341V5.59296Z" fill="black"/>
    <path d="M12.9995 18.7163C10.3875 18.7163 8.04803 18.7015 5.84708 18.6709H5.83318L5.81974 18.666C5.60681 18.5937 5.5324 18.432 5.49116 18.299L5.48713 18.286L5.46875 11.6687C5.4804 11.3898 5.63774 11.0942 5.95466 11.0942L21.022 11.1257L21.0422 11.1365C21.2156 11.2312 21.321 11.4235 21.3322 11.6642L21.3044 18.3224L21.2954 18.3408C21.2887 18.3547 21.282 18.37 21.2748 18.3857C21.2501 18.4419 21.2219 18.5056 21.1753 18.5524C21.1291 18.5991 21.0655 18.6269 21.009 18.6521C20.9933 18.6588 20.9781 18.6655 20.9642 18.6727L20.9458 18.6817H20.9252C18.5808 18.6988 15.8056 18.7163 12.9986 18.7163H12.9995ZM20.3016 17.6769V12.0892H6.49975V17.6769H20.3016Z" fill="black"/>
    <path d="M15.0497 17.0374C14.4494 17.0374 13.9541 16.6839 13.7887 16.1372C13.6856 15.7963 13.695 14.2426 13.7358 13.8671C13.7986 13.2868 14.323 12.7891 14.9291 12.7334C14.9712 12.7293 15.0133 12.7275 15.0546 12.7275C15.7548 12.7275 16.3281 13.3011 16.3877 14.062C16.4218 14.4982 16.4514 15.8376 16.2434 16.2944C16.0345 16.7526 15.5773 17.0374 15.0501 17.0374H15.0497ZM15.042 13.7458C14.9569 13.7458 14.8771 13.7732 14.8233 13.8208C14.787 13.8532 14.7323 13.9749 14.7242 14.0414C14.6857 14.3603 14.6812 15.4567 14.7274 15.7572C14.7587 15.9603 14.9129 16.033 15.0465 16.033C15.1779 16.033 15.3307 15.9589 15.3567 15.7959C15.3997 15.5232 15.3997 14.244 15.3567 13.9704C15.3325 13.8163 15.1765 13.7458 15.0425 13.7458H15.042Z" fill="black"/>
    <path d="M19.1679 17.0425C18.9528 17.0425 18.7762 16.9163 18.7067 16.7137L18.7017 16.6998L18.6793 14.0716V14.0685C18.6838 13.9935 18.5413 13.7698 18.4785 13.7532H18.0123V16.6715L18.011 16.6791C17.9742 16.8875 17.7721 17.0394 17.5309 17.0394C17.3216 17.0394 17.0625 16.9131 17.0226 16.5574C16.9594 16 16.9876 15.3756 17.0149 14.7715C17.0392 14.2378 17.0638 13.6858 17.0248 13.189L17.0239 13.1755L17.0266 13.1625C17.1046 12.8077 17.3659 12.7398 17.5851 12.7205C17.7254 12.7079 17.8599 12.7017 17.9845 12.7017C18.5856 12.7017 19.0128 12.844 19.2912 13.1369C19.7623 13.6328 19.7202 14.4723 19.6758 15.3608C19.6552 15.7749 19.6337 16.203 19.6642 16.6081L19.6651 16.6198L19.6628 16.6311C19.6189 16.8727 19.4154 17.0416 19.1679 17.0416V17.0425Z" fill="black"/>
    <path d="M11.3436 17.0617C11.2015 17.0617 10.9451 17.0581 10.8222 17.033C10.5466 16.9768 10.4278 16.7415 10.4323 16.5326C10.4376 16.2865 10.5968 16.0897 10.8196 16.0542C10.8657 16.047 10.9209 16.0434 10.9935 16.0434C11.0607 16.0434 11.1338 16.0461 11.2109 16.0493C11.2943 16.0524 11.3808 16.056 11.4664 16.056C11.6444 16.056 11.8945 16.0426 12.0074 15.9244C12.0581 15.8714 12.081 15.7978 12.0769 15.6998C12.0666 15.4487 11.9214 15.4213 11.6659 15.3944C11.6027 15.3877 11.5377 15.3809 11.4776 15.3674C10.8617 15.23 10.4506 14.7328 10.4305 14.1008C10.4103 13.4796 10.781 12.9657 11.375 12.7919C11.5247 12.7478 11.8277 12.7007 12.1388 12.7007C12.6987 12.7007 13.0174 12.8489 13.0613 13.1287C13.0891 13.3062 13.0582 13.449 12.969 13.5532C12.8148 13.7338 12.5203 13.7571 12.2809 13.7571C12.1944 13.7571 12.1088 13.754 12.0258 13.7509C11.9523 13.7482 11.8828 13.7455 11.8205 13.7455C11.7676 13.7455 11.725 13.7473 11.691 13.7513C11.5816 13.7643 11.4955 13.8335 11.4543 13.9409C11.4081 14.0617 11.4296 14.1982 11.5094 14.2881C11.5798 14.368 11.6609 14.3752 11.7869 14.3797C11.8438 14.3819 11.9026 14.3842 11.9617 14.3977C12.332 14.4826 12.631 14.6717 12.8269 14.9452C13.0021 15.19 13.0877 15.4955 13.068 15.8058C13.034 16.3475 12.6485 16.9656 11.8824 17.0415C11.769 17.0527 11.5525 17.0604 11.3436 17.0604V17.0617Z" fill="black"/>
    <path d="M8.45597 17.0309C7.89833 17.0309 7.2506 16.6864 7.14526 15.9304C7.11433 15.7094 7.16857 15.4943 7.2896 15.3546C7.37521 15.2558 7.48593 15.2037 7.60965 15.2037C7.70468 15.2037 7.80285 15.2346 7.90237 15.2957C8.08346 15.4071 8.11081 15.572 8.13322 15.7045C8.14936 15.8011 8.16325 15.8846 8.2269 15.9479C8.29728 16.0185 8.37259 16.0539 8.45014 16.0539C8.62317 16.0539 8.77557 15.8765 8.79664 15.6501C8.83385 15.249 8.81681 14.8102 8.80023 14.3853C8.78364 13.9581 8.76616 13.5165 8.80292 13.1024L8.80426 13.0889L8.80964 13.0764C8.89616 12.8666 9.08084 12.7363 9.29107 12.7363C9.5013 12.7363 9.7465 12.8837 9.78505 13.2071L9.78595 13.2151V13.2232C9.76129 13.6185 9.77519 14.0398 9.78909 14.4472C9.80388 14.891 9.81957 15.3501 9.78595 15.7817C9.71826 16.6446 9.06918 17.0313 8.45597 17.0313V17.0309Z" fill="black"/>
</svg>
