<svg width="24" height="24" viewBox="0 0 24 24" fill="none"
    xmlns="http://www.w3.org/2000/svg">
    <path d="M19.9995 12.54V15.11C20.0157 16.119 19.6329 17.0936 18.9345 17.822C18.2361 18.5504 17.2783 18.9737 16.2695 19H6.39953L7.79953 20.6C7.93528 20.743 8.01096 20.9327 8.01096 21.13C8.01096 21.3272 7.93528 21.5169 7.79953 21.66C7.73572 21.7248 7.65936 21.776 7.57512 21.8104C7.49087 21.8448 7.40051 21.8616 7.30953 21.86C7.20925 21.8597 7.11017 21.8381 7.01882 21.7967C6.92747 21.7554 6.84591 21.6951 6.77953 21.62L4.12953 18.62C4.0105 18.4806 3.94511 18.3033 3.94511 18.12C3.94511 17.9367 4.0105 17.7594 4.12953 17.62L6.77953 14.92C6.84471 14.8534 6.9225 14.8006 7.00836 14.7645C7.09421 14.7284 7.1864 14.7099 7.27953 14.7099C7.37266 14.7099 7.46485 14.7284 7.55071 14.7645C7.63656 14.8006 7.71436 14.8534 7.77953 14.92C7.91528 15.063 7.99096 15.2527 7.99096 15.45C7.99096 15.6472 7.91528 15.8369 7.77953 15.98L6.23953 17.51H16.2395C16.8637 17.4968 17.4573 17.2369 17.8902 16.7871C18.3232 16.3372 18.5603 15.7342 18.5495 15.11V12.54C18.5495 12.349 18.6254 12.1659 18.7604 12.0308C18.8954 11.8958 19.0786 11.82 19.2695 11.82C19.4605 11.82 19.6436 11.8958 19.7786 12.0308C19.9137 12.1659 19.9895 12.349 19.9895 12.54H19.9995ZM16.9995 2.34996C16.8665 2.21806 16.6868 2.14404 16.4995 2.14404C16.3122 2.14404 16.1325 2.21806 15.9995 2.34996C15.8615 2.49184 15.7842 2.682 15.7842 2.87996C15.7842 3.07792 15.8615 3.26808 15.9995 3.40996L17.4595 4.91996H7.65953C6.64456 4.94098 5.67921 5.36307 4.97459 6.09392C4.26998 6.82477 3.88345 7.80489 3.89953 8.81996V11.24C3.88749 11.3423 3.89726 11.4461 3.92819 11.5444C3.95913 11.6427 4.01053 11.7333 4.07902 11.8103C4.14751 11.8874 4.23153 11.949 4.32555 11.9912C4.41957 12.0334 4.52147 12.0553 4.62453 12.0553C4.72759 12.0553 4.82949 12.0334 4.92351 11.9912C5.01754 11.949 5.10155 11.8874 5.17004 11.8103C5.23853 11.7333 5.28993 11.6427 5.32087 11.5444C5.3518 11.4461 5.36157 11.3423 5.34953 11.24V8.81996C5.3429 8.51051 5.39747 8.2028 5.5101 7.9145C5.62273 7.62619 5.7912 7.36298 6.00585 7.13998C6.22049 6.91697 6.47707 6.73856 6.76086 6.615C7.04465 6.49144 7.35005 6.42516 7.65953 6.41996H17.6595L16.1895 7.91996C16.0515 8.06184 15.9742 8.252 15.9742 8.44996C15.9742 8.64792 16.0515 8.83808 16.1895 8.97996C16.2562 9.05073 16.3368 9.10684 16.4264 9.14471C16.5159 9.18259 16.6123 9.20141 16.7095 9.19996C16.8004 9.20107 16.8906 9.18394 16.9748 9.14959C17.0589 9.11523 17.1354 9.06436 17.1995 8.99996L19.8495 6.29996C19.9178 6.22989 19.9716 6.14697 20.0076 6.05599C20.0437 5.96502 20.0613 5.8678 20.0595 5.76996C20.0636 5.56929 19.9881 5.37517 19.8495 5.22996L16.9995 2.34996Z" fill="black"/>
</svg>
