<svg width="24" height="24" viewBox="0 0 24 24" fill="none"
    xmlns="http://www.w3.org/2000/svg">
    <g clip-path="url(#clip0_989_2678)">
        <path d="M2.01798 8.63009C2.05593 7.38244 2.08801 5.15093 2.71352 4.08924C3.93482 2.01571 5.86456 2.17905 8.00515 2.08626C10.6715 1.97085 13.3731 1.97085 16.0394 2.08817C17.6582 2.15949 19.1952 2.00497 20.4869 3.12073C21.7876 4.24415 21.8067 5.56656 21.9112 7.15699C22.0403 9.12163 22.0289 11.2013 21.8721 13.164C21.7707 14.4316 21.6976 15.4036 20.7814 16.3798C19.7632 17.4645 18.6745 17.5642 17.2498 17.6604L14.8983 17.7455L13.2901 20.3961C12.6306 21.1944 11.4101 21.2017 10.7357 20.4164L9.10948 17.7455C8.56338 17.7175 8.00554 17.7286 7.45983 17.6987C5.50818 17.5918 3.85501 17.5676 2.74247 15.7444C2.08292 14.6632 2.05554 12.3907 2.01798 11.1173C1.99412 10.3122 1.99373 9.43489 2.01798 8.63009ZM13.9289 16.5259C14.2759 16.17 15.1362 16.305 15.6138 16.2847C16.4259 16.2502 17.3433 16.2226 18.1475 16.1298C19.3994 15.9852 20.1571 15.1778 20.3124 13.9677C20.5377 12.2151 20.5272 10.2972 20.4673 8.53577C20.4376 7.66617 20.4556 5.88365 20.1637 5.12179C19.5058 3.40331 17.6093 3.61035 16.0809 3.54019C13.738 3.43245 11.3702 3.43973 9.02185 3.50376C7.96721 3.53252 6.78933 3.52102 5.74837 3.6602C5.11934 3.74417 4.60532 4.03672 4.20395 4.51752C3.75409 5.05623 3.72475 5.5704 3.65668 6.23831C3.44896 8.28501 3.43879 10.5376 3.57883 12.5897C3.67546 14.0041 3.73179 15.7042 5.48784 16.0742C6.69114 16.3276 8.21483 16.1804 9.44864 16.2832C9.80776 16.3131 9.99983 16.4035 10.2029 16.6911C10.7767 17.5043 11.2227 18.6193 11.8161 19.3942C12.0227 19.6638 12.1103 19.5123 12.2543 19.3026C12.8532 18.4322 13.3144 17.3958 13.9286 16.5255L13.9289 16.5259Z" fill="black"/>
        <path d="M7.00097 7.26167L16.9388 7.25247C17.8428 7.40201 17.7802 8.61553 16.8601 8.70602H7.14805C6.26788 8.61936 6.15365 7.48674 7.00097 7.26167Z" fill="black"/>
        <path d="M7.03969 11.3942L13.6582 11.3884C14.5099 11.556 14.5099 12.6683 13.6582 12.8358H7.07295C6.23423 12.6667 6.2092 11.5982 7.03969 11.3942Z" fill="black"/>
    </g>
    <defs>
        <clipPath id="clip0_989_2678">
            <rect width="20" height="19" fill="white" transform="translate(2 2)"/>
        </clipPath>
    </defs>
</svg>
