<svg width="24" height="24" viewBox="0 0 24 24" fill="none"
    xmlns="http://www.w3.org/2000/svg">
    <g clip-path="url(#clip0_989_2643)">
        <path d="M18.3252 20C18.2601 20 18.2045 19.9977 18.1548 19.9927C16.8026 19.8568 15.532 18.75 15.1989 17.4189C15.0281 16.7345 15.0008 14.5314 15.1538 13.7922C15.2737 13.2134 15.6085 12.6786 16.0965 12.2866C16.5835 11.895 17.1808 11.6792 17.7776 11.6792C17.7903 11.6792 17.8026 11.6792 17.8154 11.6792L18.0177 11.6824L17.9999 11.4821C17.8951 10.306 18.2309 9.49016 18.9981 9.05688C19.3289 8.87015 19.5216 8.85021 19.8132 8.8203C19.9075 8.81078 20.0141 8.79945 20.1362 8.78177C20.5658 8.71923 20.8701 8.38248 20.9107 7.92382C20.9736 7.21452 20.9408 6.44857 20.9093 5.708C20.8783 4.97831 20.846 4.22369 20.907 3.53706C20.9421 3.14185 21.2191 3.0018 21.4456 3.0018C21.6392 3.0018 21.8829 3.1065 22 3.39792V8.17853C21.774 9.13212 21.1731 9.70046 20.2132 9.8677C20.1553 9.87767 20.1016 9.87858 20.0419 9.87858H20.0086C19.8888 9.87858 19.7243 9.87858 19.5289 9.99234C19.0578 10.2656 19.0751 10.7705 19.0888 11.1757C19.0924 11.2867 19.0961 11.3919 19.0906 11.488L19.0801 11.6811L19.3006 11.6788C20.3758 11.6788 21.3781 12.3477 21.795 13.3435C21.856 13.4899 21.8943 13.6422 21.9344 13.8035C21.9549 13.8851 21.9759 13.9689 22 14.0532V16.9484C21.8232 17.9496 21.3508 18.7613 20.6332 19.2961C20.1763 19.637 19.6697 19.845 18.9425 19.9896C18.9002 19.9873 18.8555 19.9859 18.8063 19.9859C18.7234 19.9859 18.6391 19.9896 18.558 19.9927C18.4769 19.9959 18.4004 19.9991 18.3252 19.9991V20ZM18.5129 12.7384C18.1407 12.7384 17.7922 12.7529 17.604 12.7769C16.8177 12.8758 16.2454 13.4903 16.1807 14.3061C16.1238 15.0249 16.0955 16.8283 16.3848 17.5041C16.7534 18.3652 17.5762 18.9005 18.532 18.9005C19.6054 18.9005 20.5225 18.2252 20.8136 17.2199C20.9922 16.6031 20.9553 14.8631 20.9116 14.3061C20.8569 13.6136 20.4136 13.0376 19.7826 12.839C19.4938 12.7484 18.7986 12.7384 18.5134 12.7384H18.5129Z" fill="black"/>
        <path d="M3.20912 17.1016C2.5672 17.0485 2.09384 16.6094 1.99998 15.9798V8.4486C1.99816 8.23921 2.16172 7.93328 2.40819 7.68582C2.61959 7.47326 2.85467 7.34137 3.02188 7.34137H11.4549V6.1435C11.4549 5.50717 12.2572 4.71222 12.89 4.53183C13.0071 4.49829 13.151 4.4847 13.2909 4.47155C13.5283 4.44935 13.7738 4.42623 13.9611 4.30522C14.249 4.11895 14.3123 3.82208 14.3684 3.55967C14.4399 3.22428 14.4877 3.06112 14.7903 3.01217C14.8426 3.00356 14.8928 2.99948 14.9392 2.99948C15.1042 2.99948 15.2253 3.05115 15.3087 3.15811C15.4518 3.34031 15.4837 3.67977 15.3916 4.04371C15.1292 5.08386 14.4604 5.37121 13.3178 5.53845C13.0125 5.58331 12.5446 5.93275 12.5446 6.27901V7.34137H17.25C17.3981 7.34137 17.6345 7.65954 17.6395 7.86485C17.6423 7.98178 17.5643 8.18528 17.429 8.32351C17.3657 8.38787 17.3006 8.42503 17.25 8.42503H3.08976V16.017H12.8781C12.9519 16.0374 13.1451 16.1901 13.1861 16.2531C13.2904 16.4131 13.3068 16.603 13.2308 16.7743C13.156 16.9425 13.0039 17.0617 12.8212 17.0961L3.20958 17.1016H3.20912Z" fill="black"/>
        <path d="M8.966 14.1974C8.65483 14.1113 8.54367 13.8593 8.54367 13.6667C8.54367 13.474 8.65483 13.222 8.96555 13.1359H12.8513C13.1707 13.2252 13.2786 13.4835 13.2732 13.6812C13.2677 13.8797 13.1451 14.1335 12.818 14.2042L8.96555 14.1974H8.966Z" fill="black"/>
        <path d="M6.19965 11.3466C5.86935 11.3466 5.56501 11.3357 5.40601 11.318C5.05111 11.2786 4.91807 11.008 4.91215 10.7882C4.90577 10.5525 5.03425 10.2924 5.33631 10.2416C5.47617 10.2181 5.75955 10.2049 6.114 10.2049C6.41743 10.2049 6.74044 10.2153 6.91721 10.2308C7.30355 10.2648 7.44752 10.5276 7.45298 10.7624C7.45845 10.9976 7.31722 11.2705 6.99375 11.3144C6.84386 11.3348 6.54727 11.3466 6.19965 11.3466Z" fill="black"/>
        <path d="M10.1961 11.3321C9.84846 11.3321 9.58787 11.2813 9.50996 11.2306C9.28672 11.0864 9.24754 10.8412 9.28535 10.66C9.3218 10.485 9.44982 10.2833 9.69949 10.2416C9.79243 10.2262 9.98059 10.2162 10.1906 10.2162C10.3546 10.2162 10.505 10.2221 10.5929 10.2317C10.8909 10.2647 11.0407 10.4809 11.0813 10.6717C11.1205 10.8557 11.0758 11.1028 10.8325 11.2437C10.7574 11.2872 10.5145 11.3316 10.1961 11.3316V11.3321Z" fill="black"/>
        <path d="M13.8331 11.3321C13.4855 11.3321 13.2249 11.2813 13.147 11.2306C12.9237 11.0864 12.8845 10.8412 12.9223 10.66C12.9588 10.485 13.0868 10.2833 13.3365 10.2416C13.4294 10.2262 13.6176 10.2162 13.8276 10.2162C13.9916 10.2162 14.142 10.2221 14.2299 10.2317C14.5279 10.2647 14.6777 10.4809 14.7183 10.6717C14.7575 10.8557 14.7128 11.1028 14.4695 11.2437C14.3944 11.2872 14.1515 11.3316 13.8331 11.3316V11.3321Z" fill="black"/>
        <path d="M5.83243 14.2237C5.48482 14.2237 5.22422 14.1729 5.14631 14.1221C4.92307 13.978 4.88389 13.7328 4.92171 13.5515C4.95815 13.3766 5.08618 13.1749 5.33584 13.1332C5.42878 13.1178 5.61739 13.1078 5.82697 13.1078C5.99098 13.1078 6.14132 13.1137 6.2288 13.1237C6.52675 13.1568 6.67664 13.373 6.71719 13.5638C6.75637 13.7478 6.71172 13.9948 6.46844 14.1357C6.39327 14.1792 6.15044 14.2237 5.83198 14.2237H5.83243Z" fill="black"/>
        <path d="M18.5457 15.6527C18.3179 15.6527 18.0386 15.5239 17.9995 15.1614C17.8687 13.9467 18.2888 13.8792 18.4268 13.857C18.4783 13.8488 18.5275 13.8443 18.5726 13.8443C18.7216 13.8443 18.8341 13.8892 18.9175 13.9807C19.0938 14.1756 19.1539 14.584 19.092 15.1614C19.0532 15.5239 18.7735 15.6527 18.5457 15.6527Z" fill="black"/>
    </g>
    <defs>
        <clipPath id="clip0_989_2643">
            <rect width="20" height="17" fill="white" transform="translate(2 3)"/>
        </clipPath>
    </defs>
</svg>
