<svg width="24" height="24" viewBox="0 0 24 24" fill="none"
    xmlns="http://www.w3.org/2000/svg">
    <path d="M6.02368 2.00098C6.41773 2.1367 6.60457 2.62122 6.3372 2.95917C6.29332 3.01481 6.05942 3.17316 6.00423 3.17316H3.17218V6.00521C3.17218 6.0604 3.01384 6.29429 2.95819 6.33818C2.62025 6.60555 2.13572 6.41871 2 6.02466V2.43076C2.11672 2.20727 2.20675 2.11724 2.43024 2.00098H6.02368Z" fill="black"/>
    <path d="M21.5678 2.00045C21.7922 2.1226 21.9325 2.22575 21.9949 2.49131L21.9881 5.99518C21.9021 6.40959 21.405 6.59417 21.0611 6.35439C20.9951 6.30825 20.8254 6.06938 20.8254 6.00423V3.17218H17.9934C17.9382 3.17218 17.7043 3.01384 17.6604 2.95819C17.393 2.62025 17.5799 2.13572 17.9739 2H21.5674L21.5678 2.00045Z" fill="black"/>
    <path d="M2 17.9764C2.13572 17.5823 2.62025 17.3955 2.95819 17.6628C3.01384 17.7067 3.17218 17.9406 3.17218 17.9958V20.8279H6.00423C6.06938 20.8279 6.30825 20.9975 6.35439 21.0636C6.59417 21.4074 6.40959 21.9041 5.99518 21.9905L2.49131 21.9973C2.22575 21.9344 2.12305 21.7947 2.00045 21.5703V17.9768L2 17.9764Z" fill="black"/>
    <path d="M20.8261 20.8277V17.9956C20.8261 17.9404 20.9845 17.7065 21.0401 17.6626C21.3586 17.4106 21.8875 17.5676 21.9811 17.9734L21.9988 21.4732C21.9499 21.7646 21.7635 21.9514 21.4713 22.0007L17.9715 21.9831C17.5657 21.889 17.4087 21.3606 17.6607 21.0421C17.7046 20.9864 17.9385 20.8281 17.9936 20.8281H20.8257L20.8261 20.8277Z" fill="black"/>
    <path d="M20.5749 15.6953H19.1977L18.2269 12.7153H17.2334V15.6953H15.8789V8.10986H18.5205C18.8503 8.10986 19.5054 8.45731 19.7628 8.67356C20.9671 9.68604 20.8083 11.4952 19.5022 12.3294L20.5753 15.6953H20.5749ZM17.2339 11.3608H18.2947C18.4305 11.3608 18.7458 11.2048 18.8603 11.1134C19.4135 10.6732 19.3158 9.87198 18.6811 9.57475C18.6309 9.55122 18.4155 9.46436 18.3852 9.46436H17.2339V11.3608Z" fill="black"/>
    <path d="M5.84639 8.12218C7.34023 7.95117 8.38574 9.04102 8.47713 10.4783C8.53187 11.3379 8.57439 13.5637 8.27128 14.2948C7.43207 16.3184 4.3892 16.0565 3.89201 13.9351C3.72959 13.242 3.76262 11.0302 3.82324 10.253C3.90603 9.19348 4.77917 8.24433 5.84639 8.12218ZM5.93461 9.47487C5.58219 9.5355 5.23474 9.9119 5.19086 10.2657C5.24922 11.2782 5.07188 12.4684 5.17864 13.4601C5.2931 14.5192 6.75844 14.6422 7.05341 13.6637C7.19456 13.1964 7.17103 11.0479 7.12217 10.4783C7.06698 9.83227 6.61503 9.35725 5.93461 9.47487Z" fill="black"/>
    <path d="M14.48 10.4124H13.1255C13.0599 9.2049 11.3218 9.12799 11.1838 10.3445C11.1024 11.0634 11.1268 12.5853 11.182 13.3268C11.2815 14.6668 12.9762 14.6632 13.1255 13.3924H14.48C14.4271 15.1848 12.4894 16.3013 10.9268 15.3427C10.2505 14.9278 9.87815 14.199 9.82702 13.4172C9.775 12.6219 9.73247 10.5884 9.90484 9.87853C10.089 9.12075 10.6902 8.43943 11.4448 8.21278C12.9721 7.75359 14.4248 8.84388 14.4796 10.4124H14.48Z" fill="black"/>
</svg>
