<svg width="24" height="24" viewBox="0 0 24 24" fill="none"
    xmlns="http://www.w3.org/2000/svg">
    <path d="M21.9969 12.6919C21.998 12.5367 21.9172 12.3923 21.7839 12.3111H21.7816L21.7732 12.3065L14.8431 8.23578C14.8132 8.21572 14.7821 8.19738 14.7501 8.18086C14.4825 8.04388 14.1646 8.04388 13.897 8.18086C13.865 8.19739 13.8339 8.21572 13.804 8.23578L6.8739 12.3065L6.86554 12.3111C6.65373 12.4418 6.5888 12.7182 6.72051 12.9283C6.75932 12.9903 6.81277 13.0419 6.87623 13.0786L13.8064 17.1494C13.8364 17.1692 13.8674 17.1876 13.8994 17.2043C14.167 17.3413 14.4848 17.3413 14.7524 17.2043C14.7844 17.1876 14.8154 17.1692 14.8454 17.1494L21.7756 13.0786C21.914 12.9985 21.9985 12.8509 21.9969 12.6919Z" fill="#0A2767"/>
    <path d="M7.68551 9.97421H12.2334V14.1109H7.68551V9.97421ZM21.0704 5.76919V3.87691C21.0814 3.40379 20.704 3.01134 20.2272 3H8.42551C7.94873 3.01134 7.57134 3.40379 7.58226 3.87691V5.76919L14.5589 7.61532L21.0704 5.76919Z" fill="#0364B8"/>
    <path d="M7.58203 5.76904H12.2331V9.92283H7.58203V5.76904Z" fill="#0078D4"/>
    <path d="M16.8816 5.76904H12.2305V9.92283L16.8816 14.0766H21.0676V9.92283L16.8816 5.76904Z" fill="#28A8EA"/>
    <path d="M12.2305 9.92285H16.8816V14.0766H12.2305V9.92285Z" fill="#0078D4"/>
    <path d="M12.2305 14.0771H16.8816V18.2309H12.2305V14.0771Z" fill="#0364B8"/>
    <path d="M7.68359 14.1108H12.2314V17.8714H7.68359V14.1108Z" fill="#14447D"/>
    <path d="M16.8828 14.0771H21.0688V18.2309H16.8828V14.0771Z" fill="#0078D4"/>
    <path d="M21.7879 13.0533L21.7791 13.0579L14.849 16.9255C14.8187 16.944 14.788 16.9615 14.7559 16.9772C14.6382 17.0328 14.5104 17.0642 14.3801 17.0695L14.0015 16.8498C13.9695 16.8339 13.9385 16.8162 13.9085 16.7968L6.88536 12.8193H6.88211L6.65234 12.6919V20.5213C6.65593 21.0437 7.08545 21.4643 7.61186 21.461H21.0563C21.0642 21.461 21.0712 21.4573 21.0796 21.4573C21.1908 21.4503 21.3004 21.4276 21.4051 21.3899C21.4504 21.3709 21.4941 21.3484 21.5358 21.3225C21.567 21.305 21.6205 21.2667 21.6205 21.2667C21.8588 21.0918 21.9998 20.8155 22.001 20.5213V12.6919C22.0008 12.8416 21.9194 12.9797 21.7879 13.0533Z" fill="url(#paint0_linear_3608_348)"/>
    <path opacity="0.5" d="M21.6252 12.6608V13.1408L14.3788 18.0916L6.87661 12.8223C6.87661 12.8198 6.87452 12.8177 6.87195 12.8177L6.18359 12.4069V12.0608L6.46731 12.0562L7.0673 12.3977L7.08125 12.4023L7.13241 12.4346C7.13241 12.4346 14.1835 16.4269 14.2021 16.4361L14.4718 16.593C14.4951 16.5838 14.5183 16.5746 14.5463 16.5653C14.5602 16.5561 21.5462 12.6561 21.5462 12.6561L21.6252 12.6608Z" fill="#0A2767"/>
    <path d="M21.7879 13.0533L21.7791 13.0583L14.849 16.926C14.8187 16.9444 14.788 16.962 14.7559 16.9777C14.4868 17.1081 14.1721 17.1081 13.9029 16.9777C13.871 16.962 13.84 16.9448 13.8099 16.926L6.87978 13.0583L6.87141 13.0533C6.73761 12.9813 6.65373 12.8429 6.65234 12.6919V20.5213C6.65568 21.0436 7.08504 21.4643 7.61136 21.461C7.61136 21.461 7.61138 21.461 7.6114 21.461H21.0419C21.5682 21.4643 21.9976 21.0436 22.001 20.5214C22.001 20.5214 22.001 20.5213 22.001 20.5213V12.6919C22.0008 12.8416 21.9194 12.9797 21.7879 13.0533Z" fill="#1490DF"/>
    <path opacity="0.1" d="M14.949 16.8691L14.8453 16.9268C14.8153 16.9458 14.7842 16.9632 14.7523 16.979C14.638 17.0346 14.5138 17.0673 14.3867 17.075L17.0234 20.1691L21.6229 21.2689C21.7489 21.1745 21.8492 21.0502 21.9145 20.9075L14.949 16.8691Z" fill="black"/>
    <path opacity="0.05" d="M15.4188 16.6069L14.8453 16.9268C14.8153 16.9458 14.7842 16.9632 14.7523 16.9789C14.638 17.0346 14.5138 17.0672 14.3867 17.0749L15.622 20.4547L21.6243 21.2675C21.8607 21.0913 22 20.8151 22.0001 20.5216V20.4206L15.4188 16.6069Z" fill="black"/>
    <path d="M7.62442 21.461H21.0405C21.247 21.462 21.4483 21.3973 21.6149 21.2764L14.0011 16.8508C13.9691 16.8348 13.938 16.8171 13.908 16.7977L6.88489 12.8202H6.88164L6.65234 12.6919V20.4946C6.65182 21.0278 7.08703 21.4605 7.62442 21.461Z" fill="#28A8EA"/>
    <path opacity="0.1" d="M13.1639 7.53788V17.3824C13.1631 17.7275 12.9516 18.0378 12.629 18.167C12.5291 18.2096 12.4215 18.2316 12.3127 18.2316H6.65234V7.15342H7.58257V6.69189H12.3127C12.7826 6.69366 13.1629 7.07162 13.1639 7.53788Z" fill="black"/>
    <path opacity="0.2" d="M12.6988 8.00032V17.8448C12.6999 17.9563 12.6761 18.0666 12.629 18.1679C12.4998 18.4838 12.1912 18.6911 11.8476 18.6926H6.65234V7.15434H11.8476C11.9826 7.15299 12.1156 7.1864 12.2337 7.25126C12.5188 7.3938 12.6987 7.68353 12.6988 8.00032Z" fill="black"/>
    <path opacity="0.2" d="M12.6988 8.00032V16.9217C12.6965 17.3878 12.3173 17.7655 11.8476 17.7696H6.65234V7.15434H11.8476C11.9826 7.15299 12.1156 7.1864 12.2337 7.25126C12.5188 7.3938 12.6987 7.68353 12.6988 8.00032Z" fill="black"/>
    <path opacity="0.2" d="M12.2337 8.00028V16.9217C12.2332 17.3885 11.8529 17.7672 11.3825 17.7695H6.65234V7.1543H11.3825C11.8528 7.15455 12.2339 7.53311 12.2336 7.99983C12.2337 7.99998 12.2337 8.00013 12.2337 8.00028Z" fill="black"/>
    <path d="M2.85254 7.1543H11.3799C11.8507 7.1543 12.2324 7.53306 12.2324 8.00028V16.462C12.2324 16.9292 11.8507 17.308 11.3799 17.308H2.85254C2.38169 17.308 2 16.9292 2 16.462V8.00028C2 7.53306 2.3817 7.1543 2.85254 7.1543Z" fill="url(#paint1_linear_3608_348)"/>
    <path d="M4.66328 10.7022C4.8734 10.2579 5.21256 9.88618 5.63722 9.63466C6.1075 9.36749 6.64296 9.2343 7.18464 9.24974C7.68669 9.23894 8.18208 9.36522 8.61672 9.61481C9.02536 9.85663 9.35449 10.211 9.56414 10.6348C9.79246 11.1018 9.90625 11.6158 9.89623 12.1348C9.9073 12.6772 9.79022 13.2146 9.55438 13.704C9.33973 14.143 9.00017 14.5099 8.57765 14.7595C8.12626 15.0167 7.61247 15.1463 7.09209 15.1343C6.57932 15.1465 6.073 15.0188 5.62839 14.765C5.2162 14.5229 4.88295 14.1682 4.6684 13.7432C4.43872 13.2829 4.32358 12.7747 4.33259 12.2612C4.32302 11.7235 4.43607 11.1905 4.66328 10.7022ZM5.7014 13.2083C5.81343 13.4891 6.00341 13.7327 6.2493 13.9108C6.49975 14.0844 6.79964 14.1741 7.1051 14.1664C7.4304 14.1792 7.75104 14.0865 8.01858 13.9024C8.26135 13.725 8.44634 13.4807 8.55066 13.2C8.66727 12.8865 8.72483 12.5543 8.72042 12.2202C8.72403 11.8828 8.66993 11.5473 8.56042 11.2279C8.46371 10.9395 8.28468 10.6852 8.04508 10.4959C7.78426 10.3031 7.46447 10.2053 7.13951 10.219C6.82744 10.2109 6.52083 10.3013 6.26372 10.477C6.01367 10.6557 5.82008 10.9015 5.70558 11.1854C5.45159 11.8362 5.45026 12.5575 5.70186 13.2092L5.7014 13.2083Z" fill="white"/>
    <path d="M16.8828 5.76904H21.0688V9.92283H16.8828V5.76904Z" fill="#50D9FF"/>
    <defs>
        <linearGradient id="paint0_linear_3608_348" x1="14.3267" y1="12.6919" x2="14.3267" y2="21.461" gradientUnits="userSpaceOnUse">
            <stop stop-color="#35B8F1"/>
            <stop offset="1" stop-color="#28A8EA"/>
        </linearGradient>
        <linearGradient id="paint1_linear_3608_348" x1="3.77758" y1="6.49326" x2="10.3778" y2="18.0132" gradientUnits="userSpaceOnUse">
            <stop stop-color="#1784D9"/>
            <stop offset="0.5" stop-color="#107AD5"/>
            <stop offset="1" stop-color="#0A63C9"/>
        </linearGradient>
    </defs>
</svg>
