<svg width="24" height="24" viewBox="0 0 24 24" fill="none"
    xmlns="http://www.w3.org/2000/svg">
    <path d="M16.8565 15.0481C16.6124 15.1201 16.254 15.1281 15.8697 15.0725C15.4573 15.0128 15.0366 14.8869 14.6232 14.7015C15.3605 14.5944 15.9325 14.6274 16.4217 14.8005C16.5376 14.8415 16.728 14.9511 16.8565 15.0481ZM12.7427 14.3729C12.7127 14.3811 12.6832 14.3888 12.6538 14.3969C12.4554 14.4508 12.2623 14.5035 12.0763 14.5503L11.8255 14.6138C11.3209 14.7412 10.805 14.8714 10.2955 15.0265C10.4891 14.5603 10.669 14.089 10.8452 13.6282C10.9756 13.2871 11.1088 12.9387 11.2465 12.5947C11.3164 12.7099 11.3893 12.8251 11.4652 12.9407C11.8109 13.4663 12.2455 13.9522 12.7427 14.3729ZM11.4592 9.1163C11.4919 9.6915 11.3676 10.2448 11.1853 10.7757C10.9606 10.1193 10.8559 9.39445 11.1368 8.80925C11.2088 8.65925 11.2678 8.57905 11.3061 8.5372C11.3652 8.6283 11.4429 8.8321 11.4592 9.1163ZM8.82507 16.4027C8.69886 16.6281 8.57003 16.8391 8.43798 17.0384C8.11933 17.5177 7.59818 18.031 7.33046 18.031C7.30412 18.031 7.27223 18.0268 7.22565 17.9777C7.19566 17.9463 7.19086 17.9238 7.19231 17.8931C7.20134 17.7168 7.43527 17.403 7.77416 17.1119C8.08175 16.8479 8.42941 16.6131 8.82507 16.4027ZM17.709 15.073C17.6681 14.4859 16.6781 14.1093 16.6683 14.1058C16.2856 13.9703 15.8698 13.9045 15.3973 13.9045C14.8915 13.9045 14.3461 13.9776 13.6458 14.141C13.0226 13.7 12.4843 13.1479 12.0821 12.5366C11.9045 12.2666 11.7448 11.9971 11.6056 11.7338C11.9454 10.9227 12.2514 10.0506 12.1958 9.07395C12.1509 8.2908 11.7972 7.76475 11.3161 7.76475C10.9861 7.76475 10.7019 8.00875 10.4709 8.49065C10.0587 9.34935 10.1671 10.4481 10.7927 11.7592C10.5674 12.2875 10.358 12.8353 10.1554 13.3656C9.90325 14.0249 9.64345 14.7052 9.35065 15.3523C8.5295 15.6766 7.8549 16.07 7.2927 16.5528C6.9244 16.8686 6.4804 17.3514 6.45506 17.8553C6.44269 18.0927 6.52421 18.3104 6.68987 18.4848C6.86587 18.6699 7.08698 18.7674 7.33011 18.7677C8.13309 18.7677 8.90592 17.6663 9.05253 17.4454C9.34759 17.0014 9.62377 16.5062 9.89439 15.9349C10.576 15.689 11.3023 15.5055 12.0063 15.3281L12.2585 15.2641C12.448 15.216 12.645 15.1628 12.847 15.1076C13.0609 15.0499 13.2808 14.9901 13.5044 14.9333C14.2273 15.3922 15.0047 15.6916 15.7629 15.8014C16.4015 15.8941 16.9686 15.8403 17.3525 15.6405C17.698 15.4609 17.717 15.1838 17.709 15.073ZM19.2641 20.1214C19.2641 21.1966 18.3148 21.2629 18.1233 21.2651H5.87567C4.80251 21.2651 4.73789 20.3109 4.73584 20.1214L4.73569 3.87821C4.73569 2.80195 5.68673 2.7367 5.87553 2.73454H14.149L14.1534 2.7389V5.96198C14.1534 6.60882 14.5452 7.83345 16.0287 7.83345H19.2365L19.264 7.8609L19.2641 20.1214ZM18.5037 7.0988H16.0292C14.9564 7.0988 14.8915 6.14985 14.89 5.96209V3.47653L18.5037 7.0988ZM20 20.1214V7.55785L14.89 2.43551V2.41168H14.8656L14.4552 2H5.8757C5.22689 2 4 2.39267 4 3.87856V20.1217C4 20.7714 4.39216 22 5.8757 22H18.1245C18.7731 21.9998 20 21.6072 20 20.1214Z" fill="#EB5757"/>
</svg>
