<svg width="24" height="24" viewBox="0 0 24 24" fill="none"
    xmlns="http://www.w3.org/2000/svg">
    <path d="M10.3228 6.52678C10.9678 5.85473 11.8658 5.43788 12.859 5.43788C14.1792 5.43788 15.331 6.17405 15.9445 7.26693C16.4775 7.02877 17.0676 6.89627 17.6883 6.89627C20.0695 6.89627 22 8.84357 22 11.2456C22 13.6478 20.0695 15.5951 17.6883 15.5951C17.4031 15.5953 17.1186 15.5669 16.8391 15.5105C16.2989 16.474 15.2695 17.1251 14.088 17.1251C13.5935 17.1251 13.1256 17.0108 12.7091 16.8077C12.1615 18.0957 10.8858 18.9988 9.39885 18.9988C7.85043 18.9988 6.53078 18.0191 6.02422 16.645C5.80287 16.692 5.57352 16.7165 5.33817 16.7165C3.49459 16.7165 2 15.2065 2 13.3436C2 12.0951 2.67151 11.0051 3.66923 10.4219C3.46383 9.9493 3.34957 9.42763 3.34957 8.87918C3.34957 6.73673 5.0889 5 7.2342 5C8.49372 5 9.61312 5.59885 10.3228 6.52678Z" fill="#00A1E0"/>
    <path d="M4.89514 12.2599C4.88261 12.2927 4.89971 12.2995 4.90369 12.3052C4.94129 12.3326 4.97949 12.3523 5.01794 12.3742C5.22194 12.4824 5.41454 12.514 5.61596 12.514C6.02621 12.514 6.28091 12.2958 6.28091 11.9445V11.9377C6.28091 11.6129 5.99346 11.495 5.72364 11.4098L5.68861 11.3984C5.48519 11.3323 5.30969 11.2753 5.30969 11.1414V11.1343C5.30969 11.0198 5.41226 10.9354 5.57124 10.9354C5.74786 10.9354 5.95756 10.9941 6.09259 11.0687C6.09259 11.0687 6.13219 11.0944 6.14674 11.0559C6.15469 11.0354 6.22309 10.8514 6.23021 10.8314C6.23791 10.8098 6.22424 10.7938 6.21029 10.7853C6.05614 10.6915 5.84304 10.6274 5.62254 10.6274L5.58151 10.6277C5.20601 10.6277 4.94391 10.8545 4.94391 11.1796V11.1864C4.94391 11.5291 5.23309 11.6402 5.50404 11.7177L5.54761 11.7311C5.74506 11.7918 5.91514 11.8439 5.91514 11.983V11.9898C5.91514 12.1169 5.80461 12.2115 5.62626 12.2115C5.55701 12.2115 5.33621 12.21 5.09776 12.0593C5.06896 12.0425 5.05219 12.0303 5.02996 12.0169C5.01829 12.0095 4.98894 11.9966 4.97611 12.0354L4.89514 12.2599ZM10.9011 12.2599C10.8886 12.2927 10.9057 12.2995 10.9097 12.3052C10.9473 12.3326 10.9855 12.3523 11.0239 12.3742C11.2279 12.4824 11.4205 12.514 11.6219 12.514C12.0322 12.514 12.2869 12.2958 12.2869 11.9445V11.9377C12.2869 11.6129 11.9994 11.495 11.7296 11.4098L11.6946 11.3984C11.4911 11.3323 11.3156 11.2753 11.3156 11.1414V11.1343C11.3156 11.0198 11.4182 10.9354 11.5772 10.9354C11.7538 10.9354 11.9635 10.9941 12.0985 11.0687C12.0985 11.0687 12.1381 11.0944 12.1527 11.0559C12.1606 11.0354 12.229 10.8514 12.2361 10.8314C12.2438 10.8098 12.2302 10.7938 12.2162 10.7853C12.0621 10.6915 11.849 10.6274 11.6285 10.6274L11.5874 10.6277C11.2119 10.6277 10.9498 10.8545 10.9498 11.1796V11.1864C10.9498 11.5291 11.239 11.6402 11.5099 11.7177L11.5535 11.7311C11.751 11.7918 11.9213 11.8439 11.9213 11.983V11.9898C11.9213 12.1169 11.8105 12.2115 11.6322 12.2115C11.5629 12.2115 11.3421 12.21 11.1037 12.0593C11.0749 12.0425 11.0578 12.0308 11.0362 12.0169C11.0288 12.012 10.994 11.9986 10.982 12.0354L10.9011 12.2599ZM15.0012 11.5718C15.0012 11.7704 14.9642 11.9268 14.8913 12.0374C14.8192 12.1468 14.7101 12.2 14.5579 12.2C14.4055 12.2 14.297 12.147 14.226 12.0374C14.1542 11.9271 14.1178 11.7704 14.1178 11.5718C14.1178 11.3736 14.1542 11.2174 14.226 11.108C14.297 10.9998 14.4055 10.947 14.5579 10.947C14.7101 10.947 14.8192 10.9998 14.8916 11.108C14.9642 11.2174 15.0012 11.3735 15.0012 11.5718ZM15.3437 11.2037C15.3101 11.09 15.2576 10.9898 15.1879 10.9063C15.118 10.8225 15.0297 10.7553 14.9249 10.7063C14.8203 10.6576 14.6967 10.6328 14.5579 10.6328C14.4189 10.6328 14.2953 10.6576 14.1907 10.7063C14.0859 10.7553 13.9975 10.8226 13.9275 10.9063C13.8579 10.9901 13.8055 11.0903 13.7716 11.2037C13.7383 11.3168 13.7215 11.4405 13.7215 11.5718C13.7215 11.7032 13.7383 11.8271 13.7716 11.9399C13.8055 12.0533 13.8577 12.1536 13.9278 12.2374C13.9975 12.3211 14.0862 12.3881 14.1907 12.4356C14.2955 12.4832 14.4189 12.5074 14.558 12.5074C14.6967 12.5074 14.8201 12.4832 14.9249 12.4356C15.0295 12.3881 15.118 12.3211 15.1879 12.2374C15.2577 12.1539 15.3101 12.0536 15.3437 11.9399C15.3773 11.8268 15.3941 11.7029 15.3941 11.5718C15.3941 11.4408 15.3773 11.3168 15.3437 11.2037ZM18.1558 12.147C18.1444 12.1137 18.1123 12.1262 18.1123 12.1262C18.0624 12.1453 18.0094 12.163 17.953 12.1718C17.8957 12.1806 17.8328 12.1852 17.7652 12.1852C17.5994 12.1852 17.4678 12.1359 17.3735 12.0385C17.2789 11.941 17.2259 11.7835 17.2265 11.5704C17.2271 11.3764 17.2738 11.2305 17.3578 11.1194C17.4413 11.0088 17.5684 10.9521 17.7379 10.9521C17.8792 10.9521 17.9869 10.9684 18.0997 11.004C18.0997 11.004 18.1268 11.0157 18.1396 10.9803C18.1695 10.8971 18.1917 10.8376 18.2236 10.7461C18.2328 10.7202 18.2105 10.7091 18.2025 10.706C18.1581 10.6886 18.0533 10.6604 17.9741 10.6484C17.9 10.637 17.8134 10.631 17.7171 10.631C17.5732 10.631 17.445 10.6556 17.3353 10.7046C17.2259 10.7533 17.133 10.8205 17.0595 10.9043C16.986 10.988 16.9302 11.0883 16.8929 11.2017C16.8558 11.3148 16.837 11.439 16.837 11.5704C16.837 11.8544 16.9137 12.084 17.065 12.2521C17.2165 12.4208 17.4442 12.5065 17.741 12.5065C17.9165 12.5065 18.0966 12.4709 18.226 12.4199C18.226 12.4199 18.2507 12.408 18.2399 12.3792L18.1558 12.147ZM18.755 11.3816C18.7713 11.2714 18.8017 11.1796 18.8488 11.1081C18.9197 10.9996 19.028 10.94 19.1801 10.94C19.3323 10.94 19.4328 10.9998 19.5049 11.1081C19.5528 11.1796 19.5736 11.2754 19.5818 11.3816H18.755ZM19.908 11.1391C19.879 11.0294 19.8069 10.9186 19.7596 10.8679C19.6849 10.7876 19.612 10.7315 19.5396 10.7001C19.4451 10.6596 19.3317 10.6329 19.2075 10.6329C19.0627 10.6329 18.9314 10.6571 18.8248 10.7072C18.718 10.7574 18.6283 10.8258 18.5579 10.9109C18.4875 10.9958 18.4345 11.097 18.4009 11.2118C18.367 11.326 18.3499 11.4505 18.3499 11.5819C18.3499 11.7155 18.3676 11.84 18.4026 11.952C18.4379 12.0648 18.4943 12.1642 18.5707 12.2465C18.6468 12.3294 18.7448 12.3944 18.8621 12.4397C18.9787 12.4847 19.1203 12.5081 19.2829 12.5078C19.6177 12.5066 19.7941 12.432 19.8667 12.3918C19.8795 12.3847 19.8918 12.3722 19.8764 12.3363L19.8006 12.124C19.7892 12.0924 19.757 12.1041 19.757 12.1041C19.6741 12.1348 19.5562 12.1901 19.2812 12.1895C19.1015 12.1893 18.9681 12.1363 18.8846 12.0534C18.7989 11.9685 18.757 11.8437 18.7496 11.6676L19.9089 11.6687C19.9089 11.6687 19.9393 11.6682 19.9425 11.6385C19.9436 11.626 19.9824 11.4004 19.908 11.1391ZM9.47104 11.3816C9.48756 11.2714 9.51776 11.1796 9.56476 11.1081C9.63571 10.9996 9.74396 10.94 9.89611 10.94C10.0482 10.94 10.1488 10.9998 10.2212 11.1081C10.2687 11.1796 10.2895 11.2754 10.2978 11.3816H9.47104ZM10.6237 11.1391C10.5947 11.0294 10.5229 10.9186 10.4756 10.8679C10.4009 10.7876 10.328 10.7315 10.2557 10.7001C10.1611 10.6596 10.0477 10.6329 9.92346 10.6329C9.77901 10.6329 9.64739 10.6571 9.54084 10.7072C9.43401 10.7574 9.34426 10.8258 9.27389 10.9109C9.20354 10.9958 9.15054 11.097 9.11691 11.2118C9.08331 11.326 9.06594 11.4505 9.06594 11.5819C9.06594 11.7155 9.08359 11.84 9.11864 11.952C9.15399 12.0648 9.21039 12.1642 9.28674 12.2465C9.36281 12.3294 9.46081 12.3944 9.57819 12.4397C9.69471 12.4847 9.83631 12.5081 9.99899 12.5078C10.3337 12.5066 10.5101 12.432 10.5827 12.3918C10.5956 12.3847 10.6078 12.3722 10.5924 12.3363L10.5169 12.124C10.5053 12.0924 10.4731 12.1041 10.4731 12.1041C10.3902 12.1348 10.2725 12.1901 9.99701 12.1895C9.81751 12.1893 9.68419 12.1363 9.60071 12.0534C9.51494 11.9685 9.47309 11.8437 9.46566 11.6676L10.6249 11.6687C10.6249 11.6687 10.6554 11.6682 10.6585 11.6385C10.6596 11.626 10.6984 11.4004 10.6237 11.1391ZM6.96531 12.1407C6.92001 12.1045 6.91374 12.0954 6.89836 12.072C6.87556 12.0364 6.86389 11.9857 6.86389 11.9213C6.86389 11.8193 6.89751 11.7461 6.96731 11.6968C6.96646 11.6971 7.06704 11.6099 7.30349 11.613C7.46959 11.6153 7.61801 11.6398 7.61801 11.6398V12.1669H7.61829C7.61829 12.1669 7.47099 12.1985 7.30519 12.2084C7.06929 12.2227 6.96444 12.1404 6.96531 12.1407ZM7.42656 11.3261C7.37954 11.3227 7.31856 11.3207 7.24564 11.3207C7.14621 11.3207 7.05019 11.3332 6.96016 11.3575C6.86956 11.3817 6.78809 11.4196 6.71801 11.4697C6.64801 11.5196 6.59049 11.5851 6.54991 11.6609C6.50889 11.7372 6.48809 11.8272 6.48809 11.9281C6.48809 12.0307 6.50576 12.1198 6.54109 12.1928C6.57641 12.266 6.62741 12.327 6.69236 12.374C6.75674 12.421 6.83624 12.4555 6.92854 12.4763C7.01941 12.4971 7.12254 12.5076 7.23539 12.5076C7.35419 12.5076 7.47269 12.4979 7.58751 12.4782C7.70119 12.4589 7.84079 12.4306 7.87951 12.4218C7.90669 12.4153 7.93376 12.4084 7.96074 12.401C7.98951 12.3939 7.98724 12.3631 7.98724 12.3631L7.98666 11.303C7.98666 11.0705 7.92454 10.8982 7.80234 10.7914C7.68066 10.6848 7.50146 10.6309 7.26986 10.6309C7.18294 10.6309 7.04306 10.6429 6.95931 10.6597C6.95931 10.6597 6.70604 10.7087 6.60174 10.7902C6.60174 10.7902 6.57896 10.8045 6.59149 10.8364L6.67356 11.0569C6.68381 11.0854 6.71146 11.0757 6.71146 11.0757C6.71146 11.0757 6.72029 11.0723 6.73056 11.0663C6.95364 10.9449 7.23569 10.9486 7.23569 10.9486C7.36104 10.9486 7.45734 10.9737 7.52229 11.0235C7.58554 11.072 7.61771 11.1452 7.61771 11.2996V11.3486C7.51801 11.3344 7.42656 11.3261 7.42656 11.3261ZM16.7765 10.7288C16.7853 10.7026 16.7668 10.69 16.7591 10.6872C16.7394 10.6795 16.6409 10.6587 16.5648 10.6539C16.4192 10.645 16.3383 10.6695 16.2659 10.702C16.1941 10.7345 16.1144 10.7869 16.0699 10.8465V10.7054C16.0699 10.6858 16.056 10.6701 16.0366 10.6701H15.7394C15.7201 10.6701 15.7061 10.6858 15.7061 10.7054V12.4345C15.7061 12.4539 15.7221 12.4698 15.7414 12.4698H16.046C16.0553 12.4698 16.0642 12.466 16.0708 12.4594C16.0774 12.4528 16.0811 12.4438 16.081 12.4345V11.5707C16.081 11.4547 16.0939 11.3391 16.1195 11.2664C16.1446 11.1946 16.1788 11.1371 16.2209 11.0958C16.2634 11.0547 16.3115 11.026 16.3642 11.0097C16.4181 10.9932 16.4776 10.9878 16.5198 10.9878C16.5805 10.9878 16.6471 11.0034 16.6471 11.0034C16.6693 11.006 16.6819 10.9923 16.6893 10.9721C16.7092 10.9191 16.7657 10.7604 16.7765 10.7288Z" fill="white"/>
    <path d="M13.9198 9.92702C13.8827 9.91562 13.8491 9.90792 13.8052 9.89967C13.7608 9.8917 13.7078 9.8877 13.6477 9.8877C13.438 9.8877 13.2727 9.94695 13.1568 10.0637C13.0414 10.18 12.963 10.3569 12.9237 10.5897L12.9095 10.668H12.6462C12.6462 10.668 12.6143 10.6669 12.6075 10.7017L12.5645 10.943C12.5613 10.9658 12.5713 10.9803 12.6021 10.9803H12.8582L12.5984 12.431C12.5781 12.5478 12.5548 12.6438 12.5288 12.7167C12.5035 12.7885 12.4787 12.8424 12.4479 12.8817C12.4183 12.9193 12.3904 12.9472 12.3419 12.9635C12.3021 12.9769 12.2559 12.9831 12.2055 12.9831C12.1776 12.9831 12.1403 12.9785 12.1126 12.9728C12.0853 12.9674 12.0707 12.9615 12.0499 12.9526C12.0499 12.9526 12.02 12.9412 12.008 12.9711C11.9986 12.9959 11.9303 13.1837 11.922 13.2068C11.914 13.2298 11.9254 13.2478 11.9399 13.2532C11.9741 13.2652 11.9995 13.2731 12.0459 13.2842C12.1103 13.2994 12.1647 13.3002 12.2157 13.3002C12.3223 13.3002 12.4197 13.2851 12.5003 13.256C12.5813 13.2267 12.6519 13.1757 12.7146 13.1068C12.7821 13.0321 12.8245 12.954 12.865 12.8472C12.9052 12.7418 12.9397 12.6107 12.967 12.4581L13.2283 10.9803H13.61C13.61 10.9803 13.6422 10.9814 13.6488 10.9464L13.6921 10.7054C13.6949 10.6823 13.6852 10.668 13.6542 10.668H13.2835C13.2855 10.6598 13.3023 10.5293 13.3448 10.4065C13.363 10.3544 13.3972 10.3119 13.426 10.2829C13.4545 10.2544 13.4872 10.2341 13.5232 10.2225C13.5599 10.2105 13.6018 10.2048 13.6477 10.2048C13.6824 10.2048 13.7169 10.2088 13.7428 10.2142C13.7787 10.2219 13.7926 10.2259 13.8021 10.2287C13.84 10.2401 13.8451 10.229 13.8525 10.2108L13.9411 9.96752C13.9502 9.94125 13.9277 9.93012 13.9198 9.92702ZM8.74099 12.4341C8.74099 12.4535 8.72701 12.4692 8.70764 12.4692H8.40024C8.38086 12.4692 8.36719 12.4535 8.36719 12.4341V9.96007C8.36719 9.9407 8.38086 9.92502 8.40024 9.92502H8.70764C8.72701 9.92502 8.74099 9.9407 8.74099 9.96007V12.4341Z" fill="white"/>
</svg>
