<svg width="24" height="24" viewBox="0 0 24 24" fill="none"
    xmlns="http://www.w3.org/2000/svg">
    <mask id="mask0_3616_1216" style="mask-type:luminance" maskUnits="userSpaceOnUse" x="2" y="7" width="20" height="10">
        <path d="M22 7H2V16.7959H22V7Z" fill="white"/>
    </mask>
    <g mask="url(#mask0_3616_1216)">
        <path fill-rule="evenodd" clip-rule="evenodd" d="M2 16.7955H11.9943L21.7752 7.00098H2V16.7955Z" fill="url(#paint0_linear_3616_1216)"/>
        <path fill-rule="evenodd" clip-rule="evenodd" d="M13.7369 8.95987H11.7839L11.7904 13.5589L10.0897 8.95835H8.40343L6.95169 12.8006C6.79734 11.8229 5.78777 11.4856 4.99343 11.2329C4.46886 11.0642 3.91213 10.8161 3.91778 10.5418C3.92212 10.3167 4.2156 10.108 4.79887 10.1391C5.19017 10.1603 5.53582 10.1918 6.22343 10.5244L6.89952 9.34469C6.27256 9.02517 5.40561 8.8234 4.69473 8.82275H4.69039C3.86147 8.82275 3.17126 9.09155 2.74343 9.53449C2.44517 9.84356 2.2843 10.2366 2.27778 10.6713C2.26691 11.2694 2.48582 11.6934 2.94582 12.0323C3.33451 12.3174 3.83169 12.5024 4.26973 12.6383C4.80995 12.8059 5.25126 12.9517 5.24582 13.2621C5.2422 13.3759 5.19648 13.4843 5.11756 13.5664C4.98278 13.7057 4.77625 13.7579 4.49039 13.7635C3.93887 13.7753 3.53017 13.6885 2.87887 13.303L2.27734 14.4979C2.928 14.8684 3.61865 15.0542 4.40343 15.0542L4.57996 15.0529C5.26299 15.0405 5.81734 14.8766 6.25778 14.5219C6.28299 14.5016 6.30561 14.4812 6.32908 14.4605L6.25517 14.8418L7.90299 14.8366L8.19865 14.0787C8.50952 14.1849 8.86299 14.2437 9.23821 14.2437C9.60387 14.2437 9.94777 14.188 10.2528 14.0879L10.4589 14.8366L13.4154 14.8394L13.4226 13.1117H14.0517C15.5724 13.1117 16.4712 12.3368 16.4712 11.0374C16.4709 9.5902 15.5969 8.95987 13.7369 8.95987ZM9.23821 12.8912C9.02551 12.8926 8.81429 12.8556 8.61473 12.7819L9.23126 10.8328H9.24321L9.84973 12.7874C9.66713 12.8527 9.4593 12.8912 9.23821 12.8912ZM13.8513 11.7713H13.4221V10.2005H13.8515C14.4233 10.2005 14.8798 10.3912 14.8798 10.9758C14.8793 11.5809 14.4233 11.7713 13.8515 11.7713" fill="white"/>
    </g>
    <defs>
        <linearGradient id="paint0_linear_3616_1216" x1="11.8876" y1="7.00098" x2="11.8876" y2="16.7957" gradientUnits="userSpaceOnUse">
            <stop stop-color="#00AEEF"/>
            <stop offset="0.212" stop-color="#0097DC"/>
            <stop offset="0.519" stop-color="#007CC5"/>
            <stop offset="0.792" stop-color="#006CB8"/>
            <stop offset="1" stop-color="#0066B3"/>
        </linearGradient>
    </defs>
</svg>
