<svg width="24" height="24" viewBox="0 0 24 24" fill="none"
    xmlns="http://www.w3.org/2000/svg">
    <g clip-path="url(#clip0_989_2625)">
        <path d="M4.60244 2.80987C4.66871 2.80972 4.73498 2.80954 4.80125 2.80933C4.98282 2.80885 5.16438 2.80886 5.34595 2.80895C5.54199 2.80897 5.73803 2.80854 5.93407 2.80817C6.31796 2.80752 6.70186 2.8073 7.08575 2.80726C7.39791 2.80722 7.71006 2.80706 8.02222 2.80682C8.90776 2.80613 9.7933 2.80577 10.6788 2.80583C10.7504 2.80583 10.7504 2.80583 10.8235 2.80584C10.8712 2.80584 10.919 2.80584 10.9682 2.80584C11.7423 2.80588 12.5163 2.80513 13.2904 2.80403C14.0857 2.8029 14.881 2.80237 15.6763 2.80243C16.1226 2.80246 16.5689 2.80225 17.0152 2.8014C17.3952 2.80069 17.7752 2.80052 18.1553 2.80105C18.349 2.80131 18.5428 2.80131 18.7365 2.80063C18.9142 2.80002 19.0919 2.80013 19.2696 2.80081C19.3335 2.80093 19.3975 2.80079 19.4614 2.80036C20.17 2.79583 20.8048 2.94589 21.341 3.44531C21.8524 3.99201 22.0121 4.55405 22.0104 5.2841C22.0106 5.34427 22.0108 5.40444 22.011 5.46461C22.0115 5.62949 22.0114 5.79437 22.0114 5.95926C22.0113 6.13727 22.0118 6.31528 22.0121 6.49329C22.0128 6.84189 22.013 7.19049 22.0131 7.53909C22.0131 7.82253 22.0132 8.10597 22.0135 8.38941C22.0142 9.19344 22.0145 9.99746 22.0145 10.8015C22.0145 10.8665 22.0145 10.8665 22.0145 10.9328C22.0145 10.9762 22.0145 11.0196 22.0145 11.0642C22.0144 11.7671 22.0152 12.47 22.0163 13.1729C22.0174 13.895 22.0179 14.6171 22.0179 15.3392C22.0179 15.7445 22.0181 16.1497 22.0189 16.555C22.0196 16.9 22.0198 17.2451 22.0193 17.5902C22.019 17.7661 22.019 17.942 22.0197 18.118C22.0203 18.2793 22.0202 18.4406 22.0195 18.6019C22.0194 18.66 22.0195 18.7181 22.02 18.7762C22.025 19.4941 21.8006 20.0782 21.2969 20.5938C20.7281 21.0806 20.1275 21.1917 19.3976 21.1901C19.3313 21.1903 19.265 21.1905 19.1988 21.1907C19.0172 21.1911 18.8356 21.1911 18.654 21.191C18.458 21.191 18.262 21.1915 18.0659 21.1918C17.682 21.1925 17.2981 21.1927 16.9142 21.1927C16.6021 21.1928 16.2899 21.1929 15.9778 21.1932C15.0922 21.1939 14.2067 21.1942 13.3212 21.1942C13.2496 21.1942 13.2496 21.1942 13.1765 21.1942C13.1288 21.1942 13.081 21.1942 13.0318 21.1942C12.2577 21.1941 11.4837 21.1949 10.7096 21.196C9.91431 21.1971 9.11901 21.1976 8.32371 21.1976C7.87741 21.1975 7.43112 21.1978 6.98483 21.1986C6.60479 21.1993 6.22476 21.1995 5.84472 21.1989C5.65098 21.1987 5.45724 21.1987 5.2635 21.1994C5.08581 21.2 4.90813 21.1999 4.73044 21.1992C4.66649 21.1991 4.60253 21.1992 4.53857 21.1996C3.82998 21.2042 3.19524 21.0541 2.65903 20.5547C2.14757 20.008 1.98787 19.4459 1.98955 18.7159C1.98941 18.6557 1.98923 18.5956 1.98902 18.5354C1.98854 18.3705 1.98855 18.2056 1.98864 18.0407C1.98866 17.8627 1.98823 17.6847 1.98786 17.5067C1.98721 17.1581 1.98699 16.8095 1.98695 16.4609C1.98691 16.1775 1.98675 15.894 1.9865 15.6106C1.98582 14.8066 1.98545 14.0025 1.98551 13.1985C1.98552 13.1552 1.98552 13.1118 1.98552 13.0672C1.98553 13.0238 1.98553 12.9804 1.98553 12.9358C1.98556 12.2329 1.98482 11.53 1.98371 10.8271C1.98259 10.105 1.98205 9.3829 1.98212 8.66079C1.98215 8.25554 1.98193 7.85029 1.98109 7.44505C1.98038 7.09998 1.98021 6.75491 1.98074 6.40984C1.981 6.23391 1.981 6.05798 1.98032 5.88205C1.97971 5.72072 1.97982 5.5594 1.9805 5.39808C1.98062 5.33998 1.98048 5.28189 1.98004 5.22379C1.97545 4.57044 2.15505 3.97625 2.60959 3.49216C3.1998 2.95008 3.81911 2.80823 4.60244 2.80987ZM3.39893 4.60498C3.20092 4.96685 3.25 5.33664 3.25 5.75C9.025 5.75 14.8 5.75 20.75 5.75C20.7787 5.00084 20.7787 5.00084 20.4375 4.38281C20.1873 4.1976 19.9809 4.10462 19.6687 4.10402C19.6419 4.10392 19.6151 4.10382 19.5875 4.10371C19.497 4.10341 19.4066 4.10339 19.3161 4.10336C19.2509 4.10321 19.1857 4.10303 19.1204 4.10284C18.9406 4.10238 18.7608 4.10216 18.581 4.10198C18.3873 4.10175 18.1936 4.10129 17.9998 4.10087C17.5317 4.09991 17.0636 4.09934 16.5955 4.09884C16.4633 4.09869 16.3311 4.09854 16.1989 4.09838C15.3782 4.09739 14.5576 4.09653 13.7369 4.09605C13.5467 4.09593 13.3566 4.09582 13.1664 4.0957C13.1192 4.09567 13.0719 4.09564 13.0232 4.09561C12.2576 4.09512 11.492 4.09382 10.7264 4.09219C9.9406 4.09053 9.1548 4.08961 8.36899 4.08941C7.9277 4.08928 7.48641 4.08882 7.04512 4.08753C6.66929 4.08644 6.29347 4.08601 5.91764 4.08644C5.72589 4.08665 5.53417 4.08653 5.34243 4.08557C5.16678 4.08469 4.99116 4.08472 4.81551 4.08546C4.75208 4.08557 4.68864 4.08535 4.62521 4.08476C4.08556 4.08008 3.74667 4.17775 3.39893 4.60498ZM3.25 7C3.24839 8.95132 3.24678 10.9026 3.24512 12.9131C3.24441 13.5295 3.24369 14.1459 3.24296 14.781C3.2427 15.3329 3.2427 15.3329 3.24254 15.8849C3.24247 16.131 3.24218 16.3771 3.24175 16.6231C3.24125 16.907 3.24103 17.1909 3.24114 17.4748C3.24118 17.62 3.24111 17.7651 3.24069 17.9103C3.24023 18.0659 3.24039 18.2216 3.2406 18.3772C3.24038 18.4223 3.24015 18.4673 3.23992 18.5137C3.24143 18.9254 3.26991 19.3049 3.5625 19.6172C3.8127 19.8024 4.01907 19.8954 4.33132 19.896C4.35812 19.8961 4.38491 19.8962 4.41252 19.8963C4.50297 19.8966 4.59341 19.8966 4.68386 19.8966C4.7491 19.8968 4.81434 19.897 4.87958 19.8972C5.05938 19.8976 5.23918 19.8978 5.41899 19.898C5.61271 19.8983 5.80643 19.8987 6.00015 19.8991C6.46828 19.9001 6.93641 19.9007 7.40454 19.9012C7.53673 19.9013 7.66892 19.9015 7.80112 19.9016C8.62178 19.9026 9.44245 19.9035 10.2631 19.904C10.4533 19.9041 10.6434 19.9042 10.8336 19.9043C10.8808 19.9043 10.9281 19.9044 10.9768 19.9044C11.7424 19.9049 12.508 19.9062 13.2736 19.9078C14.0594 19.9095 14.8452 19.9104 15.631 19.9106C16.0723 19.9107 16.5136 19.9112 16.9549 19.9125C17.3307 19.9136 17.7065 19.914 18.0824 19.9136C18.2741 19.9134 18.4658 19.9135 18.6576 19.9144C18.8332 19.9153 19.0088 19.9153 19.1845 19.9145C19.2479 19.9144 19.3114 19.9146 19.3748 19.9152C19.793 19.9189 20.1057 19.8773 20.4326 19.6001C20.7482 19.2195 20.7618 18.8582 20.7594 18.3772C20.7595 18.3285 20.7595 18.2798 20.7596 18.2296C20.7597 18.0951 20.7595 17.9607 20.7591 17.8262C20.7587 17.6787 20.7588 17.5312 20.7589 17.3837C20.7589 17.0978 20.7586 16.8118 20.7581 16.5259C20.7575 16.1949 20.7575 15.864 20.7574 15.533C20.757 14.6597 20.7559 13.7864 20.7549 12.9131C20.7533 10.9618 20.7517 9.01045 20.75 7C14.975 7 9.2 7 3.25 7Z" fill="black"/>
        <path d="M12.9108 10.356C13.0859 10.4559 13.1923 10.5516 13.25 10.75C13.2783 11.1014 13.2183 11.4225 13.1377 11.7631C13.1256 11.8159 13.1136 11.8687 13.1016 11.9215C13.0691 12.0634 13.036 12.2053 13.0027 12.3471C12.9679 12.4961 12.9335 12.6452 12.8991 12.7944C12.8413 13.0444 12.783 13.2944 12.7245 13.5443C12.657 13.8328 12.5902 14.1215 12.5238 14.4103C12.4597 14.6889 12.395 14.9675 12.3301 15.246C12.3025 15.3641 12.2752 15.4823 12.248 15.6006C12.216 15.7398 12.1835 15.8789 12.1507 16.0179C12.1331 16.0929 12.1159 16.1681 12.0988 16.2433C12.0294 16.5344 11.9658 16.7278 11.7461 16.9365C11.5443 17.0302 11.3594 17.0294 11.1406 17C10.9488 16.9109 10.8485 16.7954 10.75 16.6094C10.71 16.416 10.7135 16.2698 10.7581 16.0783C10.7637 16.0534 10.7693 16.0286 10.7751 16.003C10.7942 15.9192 10.814 15.8356 10.8338 15.752C10.8479 15.6907 10.862 15.6294 10.876 15.5681C10.9074 15.4312 10.939 15.2944 10.9708 15.1576C11.0275 14.9131 11.0827 14.6684 11.1378 14.4236C11.2314 14.0083 11.3258 13.5932 11.421 13.1783C11.4761 12.9379 11.5309 12.6974 11.5852 12.4567C11.6387 12.2197 11.6928 11.9828 11.7474 11.746C11.7678 11.6568 11.7881 11.5675 11.8081 11.4781C11.8358 11.3543 11.8644 11.2306 11.8932 11.1069C11.9011 11.0707 11.909 11.0344 11.9172 10.9971C11.9804 10.7307 12.071 10.5271 12.3003 10.3618C12.5076 10.2953 12.7046 10.2746 12.9108 10.356Z" fill="black"/>
        <path d="M9.63184 11.6362C9.77154 11.7593 9.9195 11.8911 9.93762 12.0848C9.93853 12.1347 9.93853 12.1347 9.93945 12.1855C9.94046 12.2184 9.94147 12.2512 9.9425 12.285C9.91602 12.5032 9.79869 12.6526 9.65137 12.8081C9.40475 13.0744 9.17958 13.3572 8.95312 13.6406C9.00349 13.7495 9.05805 13.8355 9.1376 13.9252C9.15849 13.9489 9.17937 13.9727 9.20089 13.9972C9.22306 14.0221 9.24523 14.047 9.26807 14.0727C9.31394 14.125 9.35976 14.1774 9.40555 14.2298C9.42814 14.2556 9.45073 14.2814 9.474 14.308C9.56547 14.4132 9.65516 14.5196 9.74414 14.6269C9.77173 14.6602 9.79933 14.6934 9.82776 14.7276C9.96013 14.9063 9.95272 15.1068 9.92969 15.3203C9.87915 15.4734 9.79101 15.5766 9.67578 15.689C9.47777 15.7774 9.28366 15.7878 9.07031 15.75C8.88341 15.6474 8.74931 15.5137 8.60889 15.3569C8.58858 15.3346 8.56827 15.3123 8.54735 15.2893C8.3921 15.1172 8.24475 14.9395 8.09985 14.7586C8.01404 14.6543 7.9242 14.5552 7.83252 14.456C7.6252 14.2284 7.40943 13.9886 7.37842 13.6724C7.40647 13.3301 7.60803 13.1329 7.83405 12.8929C7.93272 12.7864 8.02469 12.677 8.11572 12.564C8.25752 12.3884 8.40494 12.2197 8.55731 12.0532C8.63634 11.9657 8.71166 11.8758 8.78711 11.7851C9.00914 11.5343 9.32959 11.4851 9.63184 11.6362Z" fill="black"/>
        <path d="M14.6855 11.5605C14.7348 11.559 14.7348 11.559 14.785 11.5575C15.0313 11.5874 15.173 11.7227 15.3325 11.9023C15.351 11.923 15.3695 11.9437 15.3885 11.965C15.5378 12.1333 15.68 12.3071 15.8209 12.4825C15.9057 12.5853 15.9941 12.6833 16.0845 12.7812C16.5912 13.3378 16.5912 13.3378 16.6216 13.6479C16.5966 13.9524 16.4183 14.1682 16.2187 14.3877C16.1734 14.4388 16.128 14.4899 16.0826 14.541C16.0597 14.5667 16.0369 14.5923 16.0133 14.6187C15.9075 14.7379 15.8044 14.8595 15.7012 14.981C15.6264 15.0682 15.5515 15.1552 15.4766 15.2422C15.4434 15.2808 15.4102 15.3193 15.376 15.3591C15.3455 15.3938 15.3151 15.4286 15.2837 15.4644C15.2575 15.4943 15.2314 15.5243 15.2045 15.5551C15.0474 15.7086 14.9202 15.7672 14.7002 15.7695C14.5087 15.7643 14.3848 15.7393 14.2397 15.6122C14.0789 15.435 14.0459 15.2604 14.0546 15.0276C14.1007 14.7404 14.3332 14.5359 14.5227 14.3305C14.8222 14.0116 14.8222 14.0116 15.0469 13.6406C14.8734 13.425 14.699 13.2125 14.5122 13.0083C14.0546 12.505 14.0546 12.505 14.0593 12.0978C14.0811 11.9043 14.1884 11.7992 14.3291 11.6753C14.4582 11.5836 14.5287 11.5634 14.6855 11.5605Z" fill="black"/>
    </g>
    <defs>
        <clipPath id="clip0_989_2625">
            <rect width="20" height="20" fill="white" transform="translate(2 2)"/>
        </clipPath>
    </defs>
</svg>
