<svg width="24" height="24" viewBox="0 0 24 24" fill="none"
    xmlns="http://www.w3.org/2000/svg">
    <path fill-rule="evenodd" clip-rule="evenodd" d="M12.0592 3.00268C6.51515 2.99105 2.01158 7.50525 2.00002 13.0852C1.99424 15.8713 3.1318 18.5362 5.14359 20.4497C5.85205 21.1288 6.94693 21.186 7.72136 20.5843C10.261 18.682 13.7396 18.682 16.2792 20.5843C17.0614 21.1874 18.1645 21.1227 18.8716 20.432C22.893 16.5909 23.0594 10.1958 19.2434 6.14822C17.3712 4.16266 14.7787 3.02639 12.0592 3M12.0003 18.1461C9.31294 18.2192 7.07536 16.0856 7.00271 13.3807C7.00025 13.2928 7.00025 13.2049 7.00271 13.1172C7.00271 10.339 9.24026 8.08702 12.0003 8.08702C14.7603 8.08702 16.9979 10.339 16.9979 13.1172C17.0698 15.8223 14.9494 18.0738 12.2621 18.1463C12.1747 18.1486 12.0874 18.1486 12.0003 18.1461Z" fill="#62D84E"/>
</svg>
