<svg width="24" height="24" viewBox="0 0 24 24" fill="none"
    xmlns="http://www.w3.org/2000/svg">
    <g clip-path="url(#clip0_3609_108)">
        <path d="M20.6174 3C21.2682 3.16075 21.7751 3.59156 21.9398 4.26651C22.0184 9.41065 22.0184 14.5878 21.9398 19.732C21.7681 20.4336 21.197 20.9241 20.4891 21L9.71712 20.9981C9.11789 21.0165 8.25428 20.221 8.25428 19.6302V16.4617H9.06858V19.5551C9.06858 19.7831 9.50205 20.1902 9.75309 20.1741L20.415 20.1752C20.7687 20.159 21.0328 19.9314 21.1373 19.5945C21.1889 14.5315 21.2096 9.43619 21.1269 4.37731C21.0287 4.0757 20.7721 3.84621 20.4521 3.82368C16.8374 3.85072 13.2113 3.77711 9.60328 3.86086C9.41009 3.89053 9.0682 4.265 9.0682 4.44379V7.53718H8.25391V4.40623C8.25391 3.98518 8.74115 3.35606 9.11678 3.18066L9.62331 3H20.6167H20.6174Z" fill="black"/>
        <path d="M9.83719 5.44634L20.2677 5.43582C20.7587 5.42155 20.9696 5.96203 20.5347 6.23359L9.82755 6.26288C9.3429 6.20429 9.34179 5.53047 9.83719 5.44597V5.44634Z" fill="black"/>
        <path d="M9.7278 17.746L20.4168 17.7358C20.8406 17.8027 20.9073 18.3819 20.488 18.522C16.9931 18.6147 13.4785 18.5336 9.97661 18.5629C9.45822 18.5809 9.26206 17.9942 9.72817 17.746H9.7278Z" fill="black"/>
        <path d="M6.4432 6.6748H5.62891V17.324H6.4432V6.6748Z" fill="black"/>
        <path d="M5.22092 7.68701V16.3114H4.46187L4.40625 16.2551V7.74335L4.46187 7.68701H5.22092Z" fill="black"/>
        <path d="M12.4764 7.49951H11.6992V16.4988H12.4764V7.49951Z" fill="black"/>
        <path d="M11.2909 8.32422H10.4766V15.6739H11.2909V8.32422Z" fill="black"/>
        <path d="M14.1055 8.32432V7.49951H20.4534C20.7074 7.49951 20.8598 7.92506 20.6948 8.15643C20.6666 8.19624 20.4808 8.32432 20.4534 8.32432H14.1055Z" fill="black"/>
        <path d="M14.1055 16.4986V15.6738H20.4534C20.4808 15.6738 20.6666 15.8023 20.6948 15.8417C20.8598 16.0731 20.7074 16.4986 20.4534 16.4986H14.1055Z" fill="black"/>
        <path d="M3.99987 8.9248H3.22266V15.0744H3.99987V8.9248Z" fill="black"/>
        <path d="M13.6971 9.14941H12.8828V14.8491H13.6971V9.14941Z" fill="black"/>
        <path d="M20.4872 13.6493C20.7327 13.6932 20.8384 14.0595 20.6993 14.2765C20.6763 14.3122 20.5395 14.4365 20.5243 14.4365H15.1016V13.6489H20.4872V13.6493Z" fill="black"/>
        <path d="M15.1016 10.3496V9.56201H20.5243C20.647 9.56201 20.7764 9.85986 20.7672 9.99282C20.7594 10.107 20.5832 10.3496 20.4872 10.3496H15.1016Z" fill="black"/>
        <path d="M10.0682 9.33691H9.25391V14.6613H10.0682V9.33691Z" fill="black"/>
        <path d="M2.8143 9.44971H2V14.5492H2.8143V9.44971Z" fill="black"/>
        <path d="M7.66195 9.56201H6.84766V14.4365H7.66195V9.56201Z" fill="black"/>
        <path d="M15.918 12.4117V11.5869H20.4522C20.7051 11.5869 20.8527 12.0211 20.6936 12.2438C20.6654 12.2836 20.4797 12.4117 20.4522 12.4117H15.918Z" fill="black"/>
        <path d="M8.84945 10.3496V13.8366H8.03516V10.4056L8.09078 10.3496H8.84945Z" fill="black"/>
        <path d="M14.9198 10.9868H14.1055V13.0116H14.9198V10.9868Z" fill="black"/>
    </g>
    <defs>
        <clipPath id="clip0_3609_108">
            <rect width="20" height="18" fill="white" transform="translate(2 3)"/>
        </clipPath>
    </defs>
</svg>
