<svg width="24" height="24" viewBox="0 0 24 24" fill="none"
    xmlns="http://www.w3.org/2000/svg">
    <path fill-rule="evenodd" clip-rule="evenodd" d="M19.5 4.25H4.5C3.80859 4.25 3.25 4.80859 3.25 5.5V18C3.25 18.6914 3.80859 19.25 4.5 19.25H19.5C20.1914 19.25 20.75 18.6914 20.75 18V5.5C20.75 4.80859 20.1914 4.25 19.5 4.25ZM4.5 3C3.11719 3 2 4.11719 2 5.5V18C2 19.3828 3.11719 20.5 4.5 20.5H19.5C20.8828 20.5 22 19.3828 22 18V5.5C22 4.11719 20.8828 3 19.5 3H4.5Z" fill="black"/>
    <path fill-rule="evenodd" clip-rule="evenodd" d="M9.50098 13C9.50098 12.6562 9.78223 12.375 10.126 12.375H13.876C14.2197 12.375 14.501 12.6562 14.501 13C14.501 13.3437 14.2197 13.625 13.876 13.625H10.126C9.78223 13.625 9.50098 13.3437 9.50098 13ZM5.93457 6.93359C6.18066 6.6875 6.5752 6.6875 6.81738 6.93359L9.31738 9.43359C9.56348 9.67969 9.56348 10.0742 9.31738 10.3164L6.81738 12.8164C6.57129 13.0625 6.17676 13.0625 5.93066 12.8164C5.68457 12.5703 5.68457 12.1758 5.93066 11.9297L7.98926 9.87109L5.93066 7.8125C5.68848 7.57422 5.68848 7.17969 5.93457 6.93359Z" fill="black"/>
</svg>
