<svg width="24" height="24" viewBox="0 0 24 24" fill="none"
    xmlns="http://www.w3.org/2000/svg">
    <path d="M6.02352 2.00098C6.41755 2.13669 6.60438 2.6212 6.33702 2.95913C6.29314 3.01477 6.05926 3.17311 6.00407 3.17311H3.17213V6.00504C3.17213 6.06024 3.0138 6.29412 2.95815 6.338C2.62022 6.60536 2.13572 6.41853 2 6.0245V2.43074C2.11672 2.20726 2.20674 2.11724 2.43022 2.00098H6.02352Z" fill="black"/>
    <path d="M21.5677 2.00045C21.792 2.1226 21.9323 2.22574 21.9947 2.49129L21.9879 5.99502C21.902 6.40941 21.4048 6.59398 21.061 6.35422C20.9949 6.30807 20.8253 6.06921 20.8253 6.00407V3.17213H17.9934C17.9382 3.17213 17.7043 3.0138 17.6604 2.95815C17.393 2.62022 17.5799 2.13572 17.9739 2H21.5672L21.5677 2.00045Z" fill="black"/>
    <path d="M2 17.9759C2.13572 17.5818 2.62022 17.395 2.95815 17.6623C3.0138 17.7062 3.17213 17.9401 3.17213 17.9953V20.8272H6.00407C6.06921 20.8272 6.30807 20.9969 6.35422 21.0629C6.59398 21.4067 6.40941 21.9035 5.99502 21.9899L2.49129 21.9967C2.22574 21.9338 2.12305 21.794 2.00045 21.5696V17.9763L2 17.9759Z" fill="black"/>
    <path d="M5.89421 5.44738L17.9951 5.43652C18.2869 5.46367 18.3778 5.55414 18.4054 5.84684C18.5104 6.97373 18.3226 8.25986 18.4054 9.4044C18.3945 9.65909 18.2887 9.79164 18.0349 9.81471C17.6056 9.85407 16.742 9.85407 16.3127 9.81471C16.1697 9.8016 16.0584 9.76586 15.9915 9.62833C15.8408 9.31935 16.0141 8.49284 15.9426 8.11465C15.9241 8.01558 15.7956 7.91379 15.7028 7.88574C15.4794 7.81743 13.9118 7.82738 13.6192 7.85995C13.4527 7.8785 13.2577 7.94274 13.226 8.13093L13.2125 17.3673C13.2885 17.9106 14.1765 17.6315 14.5556 17.7039C14.6425 17.7206 14.6954 17.7998 14.751 17.8599C14.7347 18.4729 14.8429 19.2347 14.7723 19.8324C14.7465 20.0481 14.6067 20.1069 14.4027 20.1264C12.8569 20.0151 11.1179 20.268 9.59473 20.1259C9.34637 20.1029 9.24684 20.0554 9.22332 19.7944C9.16858 19.1882 9.25091 18.4756 9.24549 17.8599C9.30068 17.7998 9.35406 17.7202 9.44092 17.7039C9.82002 17.6315 10.708 17.9106 10.784 17.3673L10.7782 8.16215C10.7556 7.96988 10.5895 7.8871 10.4131 7.86312C10.138 7.82603 8.50629 7.82105 8.29412 7.88574C8.20138 7.91379 8.0729 8.01558 8.05435 8.11465C7.98469 8.4838 8.19685 9.53514 7.89647 9.75364C7.82228 9.80748 7.77026 9.80702 7.6843 9.81471C7.25363 9.85362 6.39229 9.85407 5.96207 9.81471C5.7214 9.79255 5.62006 9.68217 5.59292 9.44195C5.67299 8.2852 5.48661 6.98685 5.59156 5.84684C5.61102 5.63467 5.66576 5.49171 5.89512 5.44738H5.89421Z" fill="black"/>
    <path d="M20.826 20.827V17.9951C20.826 17.9399 20.9844 17.706 21.04 17.6621C21.3585 17.4102 21.8873 17.5671 21.981 17.9729L21.9986 21.4726C21.9497 21.7639 21.7634 21.9508 21.4711 22.0001L17.9715 21.9824C17.5657 21.8883 17.4087 21.3599 17.6607 21.0415C17.7046 20.9858 17.9384 20.8275 17.9936 20.8275H20.8256L20.826 20.827Z" fill="black"/>
</svg>
