<svg width="24" height="24" viewBox="0 0 24 24" fill="none"
    xmlns="http://www.w3.org/2000/svg">
    <g clip-path="url(#clip0_3610_133)">
        <path d="M13.7608 4C14.3001 4.05746 15.0636 4.73284 15.0636 5.29258V8.28494H14.2891V5.32805C14.2891 5.31492 14.184 5.12905 14.1636 5.09997C14.0394 4.92296 13.8222 4.78782 13.6039 4.77753H3.49611C3.06724 4.82152 2.81083 5.11486 2.77451 5.5391V19.4237C2.78086 19.8486 3.07147 20.1824 3.49611 20.2203L13.6377 20.2189C13.8497 20.2516 14.2891 19.839 14.2891 19.6698V16.7129H15.0636V19.7053C15.0636 20.2856 14.2253 21.0241 13.6391 20.9993L3.39242 20.9975C2.61298 20.8865 2.03209 20.2558 2 19.4588L2.00141 5.54088C2.00529 4.81265 2.61827 4.09223 3.33881 4H13.7605H13.7608Z" fill="black"/>
        <path d="M22.0001 12.2867V12.7116C21.9239 13.9028 21.5398 15.0254 20.8521 16.0012C20.6496 16.2886 20.1199 17.1122 19.752 16.584C19.5097 16.2361 19.9838 15.8899 20.183 15.6118C21.6407 13.5764 21.5342 11.2406 20.0776 9.24502C19.8938 8.99317 19.4124 8.62746 19.8402 8.32596C20.1873 8.08156 20.4313 8.45401 20.626 8.69344C21.4291 9.6799 21.944 11.0186 22.0001 12.2867Z" fill="black"/>
        <path d="M16.4033 16.5359L12.1957 14.022L12.1953 10.9758L16.4033 8.46191V16.5359Z" fill="black"/>
        <path d="M3.75442 6.3112L13.2527 6.30055C13.7197 6.28708 13.9204 6.79751 13.5067 7.05397L3.6733 7.08234C3.21375 6.97735 3.28535 6.34064 3.75442 6.31084V6.3112Z" fill="black"/>
        <path d="M3.60973 17.9247L13.3912 17.9165C13.7944 17.9796 13.8578 18.5266 13.459 18.6589C10.2636 18.7465 7.04987 18.6699 3.84779 18.6976C3.35932 18.7238 3.16216 18.14 3.61008 17.9247H3.60973Z" fill="black"/>
        <path d="M11.6126 8.24951V9.02846H3.67322C3.42175 9.02846 3.25387 8.5613 3.47148 8.35522C3.48735 8.34032 3.62842 8.24951 3.6383 8.24951H11.613H11.6126Z" fill="black"/>
        <path d="M11.6127 15.9692V16.7482H3.63807C3.62819 16.7482 3.48712 16.6574 3.47125 16.6425C3.25399 16.4364 3.42187 15.9692 3.67299 15.9692H11.6124H11.6127Z" fill="black"/>
        <path d="M18.2944 9.21232C18.4831 9.19103 18.6615 9.35633 18.7959 9.4709C20.4955 10.9217 20.7794 13.3114 19.2893 15.0321C19.1267 15.2197 18.5815 15.782 18.3522 15.7905C18.0736 15.8011 17.8923 15.5262 17.9738 15.2669C18.0306 15.0867 18.421 14.8466 18.5674 14.6955C19.7965 13.427 19.7894 11.5729 18.567 10.3031C18.4323 10.1633 18.0394 9.89975 17.9833 9.75716C17.8867 9.5124 18.0306 9.24211 18.2944 9.21196V9.21232Z" fill="black"/>
        <path d="M10.2773 14.0571V10.9409H11.7735L11.8264 10.9938V14.0039L11.7735 14.0571H10.2773Z" fill="black"/>
        <path d="M9.50014 10.1973V10.9411H3.60281C3.46949 10.9411 3.37109 10.6942 3.37109 10.5694C3.37109 10.4445 3.46949 10.1976 3.60281 10.1976H9.50014V10.1973Z" fill="black"/>
        <path d="M9.50014 14.0571V14.801H3.60281C3.46949 14.801 3.37109 14.5541 3.37109 14.4292C3.37109 14.3044 3.46949 14.0575 3.60281 14.0575H9.50014V14.0571Z" fill="black"/>
        <path d="M8.93559 12.1094V12.8883H3.67204C3.44279 12.8883 3.30419 12.5212 3.41246 12.3087C3.43539 12.2637 3.59939 12.1094 3.63677 12.1094H8.93559Z" fill="black"/>
        <path d="M17.0615 10.2051C17.3102 10.1477 17.4241 10.2459 17.6004 10.3917C18.7241 11.3211 18.8257 13.2039 17.8995 14.3056C17.6808 14.566 17.1172 15.1091 16.8538 14.6132C16.6475 14.2255 17.125 14.0325 17.3363 13.7743C17.9404 13.0368 17.9002 11.7659 17.2266 11.0862C17.0788 10.9373 16.8421 10.8596 16.8041 10.623C16.7794 10.4687 16.8972 10.2431 17.0615 10.2051Z" fill="black"/>
    </g>
    <defs>
        <clipPath id="clip0_3610_133">
            <rect width="20" height="17" fill="white" transform="translate(2 4)"/>
        </clipPath>
    </defs>
</svg>
