<svg width="24" height="24" viewBox="0 0 24 24" fill="none"
    xmlns="http://www.w3.org/2000/svg">
    <path d="M20.5227 13.8847C20.0167 13.8847 19.606 14.288 19.606 14.7867C19.606 15.284 20.0167 15.688 20.5227 15.688C21.0287 15.688 21.4393 15.284 21.4393 14.7867C21.4393 14.288 21.0293 13.8847 20.5227 13.8847ZM19.36 16.2253C18.9307 16.2253 18.5827 16.568 18.5827 16.99C18.5827 17.4127 18.9307 17.7553 19.36 17.7553C19.7887 17.7553 20.1367 17.4127 20.1367 16.99C20.1367 16.568 19.7887 16.2253 19.36 16.2253ZM17.6333 18.0593C17.5457 18.0585 17.4588 18.075 17.3776 18.1078C17.2964 18.1406 17.2224 18.1891 17.1599 18.2506C17.0975 18.312 17.0477 18.3851 17.0135 18.4658C16.9793 18.5464 16.9614 18.633 16.9607 18.7207C16.9613 18.8083 16.9791 18.8949 17.0133 18.9756C17.0474 19.0563 17.097 19.1295 17.1595 19.1909C17.2219 19.2524 17.2958 19.301 17.377 19.3339C17.4582 19.3668 17.5451 19.3834 17.6327 19.3827C17.7203 19.3834 17.8073 19.3669 17.8886 19.3341C17.9698 19.3012 18.0438 19.2527 18.1063 19.1912C18.1688 19.1297 18.2185 19.0565 18.2527 18.9757C18.2868 18.895 18.3047 18.8083 18.3053 18.7207C18.3046 18.633 18.2867 18.5464 18.2525 18.4658C18.2183 18.3851 18.1685 18.312 18.1061 18.2506C18.0436 18.1891 17.9696 18.1406 17.8884 18.1078C17.8072 18.075 17.7203 18.0585 17.6327 18.0593H17.6333ZM15.6947 19.2933C15.6235 19.2926 15.5528 19.306 15.4868 19.3326C15.4208 19.3592 15.3606 19.3987 15.3098 19.4486C15.2591 19.4985 15.2186 19.5579 15.1909 19.6235C15.1631 19.6891 15.1485 19.7595 15.148 19.8307C15.148 20.1273 15.3927 20.368 15.6947 20.368C15.9967 20.368 16.24 20.1273 16.24 19.8307C16.2395 19.7596 16.225 19.6893 16.1973 19.6238C16.1696 19.5583 16.1293 19.4989 16.0786 19.449C16.028 19.3991 15.968 19.3597 15.9021 19.333C15.8363 19.3063 15.7658 19.2928 15.6947 19.2933ZM13.788 19.9467C13.665 19.9458 13.5466 19.9937 13.4589 20.0799C13.3712 20.1661 13.3212 20.2836 13.32 20.4067C13.32 20.662 13.5293 20.8687 13.788 20.8687C14.0467 20.8687 14.2567 20.662 14.2567 20.4073C14.2562 20.3462 14.2438 20.2859 14.22 20.2296C14.1962 20.1733 14.1615 20.1223 14.118 20.0795C14.0745 20.0366 14.0229 20.0028 13.9663 19.9799C13.9097 19.957 13.8491 19.9461 13.788 19.9467ZM12.0027 20.206C11.9501 20.2055 11.898 20.2155 11.8493 20.2352C11.8006 20.2549 11.7563 20.2839 11.7188 20.3208C11.6814 20.3576 11.6516 20.4015 11.6311 20.4498C11.6105 20.4982 11.5998 20.5501 11.5993 20.6027C11.5997 20.6552 11.6104 20.7072 11.6309 20.7557C11.6513 20.8041 11.6811 20.848 11.7186 20.885C11.7561 20.9219 11.8004 20.951 11.8492 20.9708C11.8979 20.9905 11.9501 21.0004 12.0027 21C12.0552 21.0003 12.1073 20.9903 12.1559 20.9706C12.2046 20.9508 12.2489 20.9216 12.2863 20.8847C12.3237 20.8478 12.3534 20.8039 12.3739 20.7555C12.3943 20.7071 12.405 20.6552 12.4053 20.6027C12.4045 20.4967 12.3616 20.3954 12.2861 20.321C12.2106 20.2466 12.1086 20.2053 12.0027 20.206ZM10.214 19.9467C10.1529 19.9461 10.0923 19.9576 10.0357 19.9806C9.9791 20.0035 9.92755 20.0373 9.88402 20.0802C9.84049 20.123 9.80584 20.174 9.78204 20.2303C9.75824 20.2865 9.74577 20.3469 9.74533 20.408C9.74533 20.6627 9.95533 20.8693 10.214 20.8693C10.4727 20.8693 10.6827 20.6627 10.6827 20.408C10.6822 20.3469 10.6698 20.2865 10.646 20.2303C10.6222 20.174 10.5875 20.123 10.544 20.0802C10.5005 20.0373 10.4489 20.0035 10.3923 19.9806C10.3357 19.9576 10.2751 19.9461 10.214 19.9467ZM8.30733 19.2933C8.00733 19.2933 7.76333 19.5327 7.76333 19.828C7.76333 20.1233 8.00733 20.364 8.30733 20.364C8.608 20.364 8.85133 20.124 8.85133 19.828C8.85133 19.532 8.608 19.2927 8.30733 19.2927V19.2933ZM6.36733 18.0613C6.19075 18.0601 6.02089 18.1289 5.89503 18.2528C5.76916 18.3767 5.69759 18.5454 5.696 18.722C5.69741 18.8987 5.76891 19.0676 5.89479 19.1916C6.02067 19.3156 6.19064 19.3846 6.36733 19.3833C6.45488 19.384 6.54171 19.3675 6.62286 19.3346C6.70402 19.3018 6.7779 19.2532 6.84031 19.1918C6.90271 19.1304 6.9524 19.0573 6.98655 18.9767C7.0207 18.8961 7.03864 18.8095 7.03933 18.722C7.03775 18.5453 6.96608 18.3765 6.84007 18.2526C6.71407 18.1287 6.54403 18.0599 6.36733 18.0613ZM4.64267 16.226C4.21333 16.226 3.86467 16.5693 3.86467 16.992C3.86467 17.4147 4.21333 17.7573 4.64267 17.7573C5.072 17.7573 5.42067 17.4147 5.42067 16.992C5.42067 16.5693 5.072 16.226 4.64267 16.226ZM3.47933 13.8827C2.974 13.8827 2.564 14.286 2.564 14.784C2.564 15.282 2.974 15.6853 3.47933 15.6853C3.986 15.6853 4.39533 15.282 4.39533 14.784C4.39533 14.286 3.98533 13.8827 3.47933 13.8827ZM3.05933 10.9587C2.474 10.9587 2 11.4253 2 12.0013C2 12.5773 2.474 13.044 3.06 13.044C3.64467 13.044 4.11867 12.5773 4.11867 12.0013C4.11867 11.4253 3.64467 10.9587 3.05933 10.9587ZM3.47933 8.31733C2.974 8.31733 2.564 8.72066 2.564 9.218C2.564 9.71533 2.974 10.1187 3.47933 10.1187C3.98467 10.1187 4.394 9.71533 4.394 9.21866C4.394 8.72066 3.98467 8.31733 3.47933 8.31733ZM4.64133 6.244C4.212 6.244 3.86333 6.58733 3.86333 7.01066C3.86333 7.434 4.212 7.776 4.64133 7.776C5.07133 7.776 5.41933 7.43333 5.41933 7.01C5.41933 6.58666 5.07133 6.244 4.64133 6.244ZM6.36867 4.618C6.19208 4.61676 6.02222 4.68562 5.89636 4.80948C5.7705 4.93335 5.69892 5.10208 5.69733 5.27866C5.69874 5.45536 5.77024 5.62427 5.89612 5.74828C6.02201 5.87228 6.19197 5.94124 6.36867 5.94C6.45622 5.9407 6.54305 5.92415 6.6242 5.8913C6.70535 5.85844 6.77924 5.80992 6.84164 5.74851C6.90404 5.6871 6.95374 5.614 6.98788 5.53338C7.02203 5.45277 7.03997 5.36621 7.04067 5.27866C7.03908 5.10197 6.96741 4.93313 6.84141 4.80925C6.7154 4.68537 6.54536 4.61658 6.36867 4.618ZM8.308 3.63667C8.1649 3.6356 8.02722 3.69138 7.92522 3.79176C7.82322 3.89214 7.76523 4.0289 7.764 4.172C7.76523 4.3151 7.82322 4.45186 7.92522 4.55224C8.02722 4.65261 8.1649 4.7084 8.308 4.70733C8.45099 4.70822 8.58849 4.65236 8.69035 4.552C8.79221 4.45164 8.8501 4.31498 8.85133 4.172C8.85081 4.10117 8.83634 4.03114 8.80875 3.96591C8.78116 3.90067 8.741 3.84151 8.69054 3.7918C8.64009 3.74209 8.58034 3.7028 8.5147 3.67619C8.44906 3.64957 8.37883 3.63614 8.308 3.63667ZM10.2127 3.132C9.954 3.132 9.744 3.33867 9.744 3.59333C9.744 3.848 9.954 4.05467 10.2127 4.05467C10.4727 4.05467 10.682 3.848 10.682 3.59333C10.682 3.33867 10.472 3.132 10.2127 3.132ZM11.9987 3C11.776 3 11.596 3.17733 11.596 3.396C11.596 3.61467 11.776 3.79267 11.9987 3.79267C12.2207 3.79267 12.4013 3.61467 12.4013 3.396C12.4013 3.17733 12.2213 3 11.9987 3ZM13.79 3.13333C13.729 3.13281 13.6685 3.1443 13.6119 3.16717C13.5553 3.19003 13.5038 3.22382 13.4603 3.2666C13.4167 3.30937 13.3821 3.36031 13.3582 3.41648C13.3344 3.47266 13.3219 3.53298 13.3213 3.594C13.3213 3.84867 13.5313 4.05467 13.79 4.05467C14.048 4.05467 14.2573 3.848 14.2573 3.59467C14.2565 3.47154 14.2067 3.35381 14.1191 3.26731C14.0315 3.18081 13.9131 3.13262 13.79 3.13333ZM15.6947 3.63733C15.3947 3.63733 15.1507 3.87733 15.1507 4.172C15.1507 4.46733 15.394 4.70667 15.6947 4.70667C15.9947 4.70667 16.238 4.46733 16.238 4.172C16.2368 4.02907 16.1789 3.89248 16.077 3.79223C15.9751 3.69198 15.8376 3.63627 15.6947 3.63733ZM17.6313 4.62C17.5439 4.6193 17.4571 4.63583 17.3761 4.66865C17.295 4.70147 17.2212 4.74994 17.1588 4.81129C17.0965 4.87264 17.0468 4.94566 17.0127 5.0262C16.9786 5.10674 16.9607 5.1932 16.96 5.28066C16.96 5.64533 17.26 5.94066 17.6313 5.94066C17.8077 5.94191 17.9774 5.87311 18.1032 5.74937C18.2289 5.62564 18.3004 5.45707 18.302 5.28066C18.302 4.916 18.002 4.62 17.6313 4.62ZM19.358 6.24466C19.1531 6.24324 18.9561 6.32318 18.8101 6.46692C18.6641 6.61066 18.5811 6.80646 18.5793 7.01133C18.5793 7.43466 18.9287 7.778 19.3587 7.778C19.5635 7.77942 19.7606 7.69948 19.9066 7.55574C20.0526 7.412 20.1356 7.2162 20.1373 7.01133C20.1356 6.80646 20.0526 6.61066 19.9066 6.46692C19.7606 6.32318 19.5629 6.24324 19.358 6.24466ZM20.522 8.31466C20.0173 8.31466 19.6073 8.718 19.6073 9.21466C19.6073 9.71266 20.0173 10.116 20.522 10.116C21.028 10.116 21.4373 9.71266 21.4373 9.21533C21.4373 8.718 21.028 8.31466 20.522 8.31466ZM16.3233 13.378C16.2152 13.3773 16.1113 13.4195 16.0343 13.4954C15.9573 13.5712 15.9135 13.6746 15.9127 13.7827C15.9127 14.0067 16.0967 14.1873 16.3233 14.1873C16.5507 14.1873 16.7347 14.0067 16.7347 13.7827C16.7342 13.7291 16.7232 13.6761 16.7023 13.6268C16.6814 13.5774 16.651 13.5327 16.6128 13.4951C16.5746 13.4576 16.5294 13.4279 16.4797 13.4078C16.4301 13.3877 16.3769 13.3776 16.3233 13.378ZM15.2967 14.878C15.2431 14.8776 15.1899 14.8877 15.1403 14.9078C15.0906 14.9279 15.0454 14.9576 15.0072 14.9951C14.969 15.0327 14.9386 15.0774 14.9177 15.1268C14.8968 15.1761 14.8858 15.2291 14.8853 15.2827C14.8853 15.506 15.0693 15.6873 15.2967 15.6873C15.524 15.6873 15.708 15.506 15.708 15.2827C15.7076 15.2291 15.6966 15.1761 15.6757 15.1268C15.6548 15.0774 15.6243 15.0327 15.5861 14.9951C15.5479 14.9576 15.5027 14.9279 15.4531 14.9078C15.4034 14.8877 15.3502 14.8776 15.2967 14.878ZM13.7747 15.8413C13.528 15.8413 13.328 16.038 13.328 16.2807C13.328 16.5233 13.528 16.72 13.7747 16.72C14.0213 16.72 14.2213 16.5233 14.2213 16.28C14.2213 16.038 14.0213 15.8413 13.7747 15.8413ZM11.9747 16.1033C11.8963 16.1026 11.8185 16.1174 11.7458 16.1468C11.6731 16.1761 11.6069 16.2196 11.551 16.2745C11.495 16.3295 11.4505 16.395 11.4199 16.4672C11.3893 16.5394 11.3733 16.6169 11.3727 16.6953C11.3727 17.022 11.642 17.2867 11.974 17.2867C12.306 17.2867 12.5753 17.0213 12.5753 16.6953C12.5748 16.6169 12.5588 16.5394 12.5283 16.4672C12.4978 16.395 12.4533 16.3296 12.3975 16.2746C12.3416 16.2196 12.2755 16.1762 12.2028 16.1468C12.1301 16.1174 12.053 16.1026 11.9747 16.1033ZM10.1793 15.75C9.802 15.75 9.49667 16.05 9.49667 16.4213C9.49667 16.792 9.802 17.0927 10.1793 17.0927C10.556 17.0927 10.8613 16.7927 10.8613 16.4213C10.8613 16.05 10.556 15.75 10.1793 15.75ZM8.54933 14.6187C8.13133 14.6187 7.79267 14.952 7.79267 15.364C7.79267 15.7753 8.13133 16.1087 8.54933 16.1087C8.96733 16.1087 9.306 15.7753 9.306 15.364C9.306 14.9527 8.96733 14.6187 8.54933 14.6187ZM7.476 13.1053C7.39316 13.1045 7.31097 13.1201 7.23414 13.1511C7.15732 13.1821 7.08737 13.228 7.02829 13.2861C6.96921 13.3442 6.92217 13.4133 6.88986 13.4896C6.85755 13.5659 6.84061 13.6478 6.84 13.7307C6.84 14.076 7.12467 14.3553 7.47533 14.3553C7.826 14.3553 8.11067 14.0753 8.11067 13.7307C8.10926 13.5635 8.04155 13.4038 7.92242 13.2865C7.80329 13.1692 7.64315 13.1041 7.476 13.1053ZM7.224 11.4413C7.15986 11.4408 7.09624 11.4529 7.03679 11.477C6.97734 11.5011 6.92322 11.5366 6.87752 11.5817C6.83183 11.6267 6.79545 11.6803 6.77048 11.7393C6.74551 11.7984 6.73244 11.8619 6.732 11.926C6.732 12.1927 6.952 12.41 7.224 12.41C7.35331 12.4109 7.47769 12.3604 7.56981 12.2697C7.66194 12.1789 7.71428 12.0553 7.71533 11.926C7.7149 11.8619 7.70184 11.7985 7.67691 11.7395C7.65199 11.6805 7.61567 11.6269 7.57005 11.5819C7.52442 11.5369 7.47038 11.5013 7.41101 11.4772C7.35163 11.4531 7.28809 11.4409 7.224 11.4413ZM7.65667 9.81533C7.60282 9.81489 7.54942 9.82506 7.49951 9.84526C7.4496 9.86546 7.40415 9.89529 7.36577 9.93305C7.32739 9.97082 7.29682 10.0158 7.27582 10.0653C7.25481 10.1149 7.24377 10.1682 7.24333 10.222C7.24333 10.446 7.42867 10.628 7.65667 10.628C7.71048 10.6284 7.76385 10.6183 7.81372 10.5981C7.8636 10.5778 7.909 10.548 7.94732 10.5102C7.98565 10.4725 8.01616 10.4275 8.03709 10.3779C8.05803 10.3284 8.06898 10.2751 8.06933 10.2213C8.0689 10.1675 8.05786 10.1143 8.03684 10.0648C8.01582 10.0152 7.98524 9.97033 7.94685 9.93262C7.90846 9.89491 7.86301 9.86514 7.81311 9.84502C7.7632 9.82489 7.71048 9.8148 7.65667 9.81533ZM8.68333 8.33066C8.57524 8.32995 8.47128 8.37217 8.39428 8.44804C8.31729 8.52391 8.27355 8.62724 8.27267 8.73533C8.27267 8.95866 8.45667 9.13933 8.684 9.13933C8.91067 9.13933 9.09467 8.95866 9.09467 8.73533C9.09379 8.62724 9.05005 8.52391 8.97305 8.44804C8.89605 8.37217 8.79209 8.32995 8.684 8.33066H8.68333ZM10.2033 7.29066C9.95733 7.29066 9.75733 7.488 9.75733 7.73066C9.75733 7.97333 9.95733 8.17 10.204 8.17C10.4507 8.17 10.6507 7.97333 10.6507 7.73C10.6507 7.48666 10.45 7.29066 10.2033 7.29066ZM12.0033 6.72333C11.9256 6.72272 11.8485 6.73742 11.7764 6.7666C11.7044 6.79579 11.6388 6.83888 11.5834 6.89342C11.5279 6.94796 11.4838 7.01288 11.4535 7.08447C11.4232 7.15606 11.4073 7.23292 11.4067 7.31066C11.4067 7.63533 11.6733 7.89866 12.0033 7.89866C12.0812 7.89937 12.1584 7.88471 12.2306 7.85552C12.3028 7.82633 12.3685 7.7832 12.424 7.72858C12.4795 7.67396 12.5236 7.60893 12.5539 7.53722C12.5843 7.46551 12.6001 7.38852 12.6007 7.31066C12.6007 6.986 12.3333 6.72333 12.0033 6.72333ZM13.8033 6.918C13.428 6.918 13.1233 7.218 13.1233 7.58733C13.1233 7.95666 13.428 8.25666 13.8033 8.25666C14.1793 8.25666 14.4833 7.95666 14.4833 7.58733C14.4833 7.218 14.1793 6.918 13.8033 6.918ZM15.4253 7.89933C15.0067 7.89933 14.6673 8.234 14.6673 8.646C14.6673 9.058 15.0067 9.39266 15.4253 9.39266C15.844 9.39266 16.184 9.058 16.184 8.646C16.184 8.234 15.844 7.89933 15.4253 7.89933ZM16.5007 9.65266C16.418 9.65196 16.3359 9.66756 16.2593 9.69858C16.1826 9.7296 16.1128 9.77543 16.0539 9.83345C15.9949 9.89146 15.948 9.96053 15.9158 10.0367C15.8835 10.1129 15.8666 10.1946 15.866 10.2773C15.866 10.622 16.15 10.9013 16.5007 10.9013C16.8507 10.9013 17.1347 10.6213 17.1347 10.2773C17.1341 10.1947 17.1172 10.113 17.085 10.0368C17.0528 9.96072 17.0059 9.89169 16.947 9.83368C16.8882 9.77568 16.8184 9.72984 16.7419 9.69878C16.6653 9.66772 16.5833 9.65205 16.5007 9.65266ZM14.8487 12.3953C14.6387 12.3953 14.4687 12.5627 14.4687 12.7687C14.4687 12.9747 14.6387 13.142 14.8487 13.142C15.058 13.142 15.228 12.9753 15.228 12.7687C15.228 12.562 15.058 12.3953 14.848 12.3953H14.8487ZM14.112 13.55C14.0385 13.5494 13.9655 13.5633 13.8973 13.5908C13.8292 13.6184 13.7671 13.6591 13.7146 13.7107C13.6622 13.7623 13.6204 13.8237 13.5917 13.8914C13.563 13.9591 13.5479 14.0318 13.5473 14.1053C13.5473 14.412 13.8007 14.6607 14.112 14.6607C14.4233 14.6607 14.676 14.412 14.676 14.1053C14.6748 13.9569 14.6147 13.8151 14.5089 13.7109C14.4032 13.6068 14.2604 13.5489 14.112 13.55ZM12.6607 14.3053C12.5053 14.3043 12.3559 14.3649 12.2451 14.4739C12.1344 14.5828 12.0714 14.7313 12.07 14.8867C12.07 15.208 12.3347 15.4687 12.6607 15.4687C12.9867 15.4687 13.252 15.2087 13.252 14.8867C13.2506 14.7312 13.1875 14.5826 13.0766 14.4736C12.9658 14.3646 12.8161 14.3041 12.6607 14.3053ZM10.9627 14.2627C10.8944 14.2621 10.8267 14.2751 10.7634 14.3007C10.7001 14.3264 10.6425 14.3642 10.5938 14.4121C10.5451 14.46 10.5064 14.5171 10.4798 14.58C10.4532 14.6429 10.4392 14.7104 10.4387 14.7787C10.4399 14.9165 10.4958 15.0481 10.594 15.1448C10.6923 15.2414 10.8249 15.2951 10.9627 15.294C11.1005 15.2951 11.2331 15.2414 11.3313 15.1448C11.4296 15.0481 11.4854 14.9165 11.4867 14.7787C11.4861 14.7104 11.4722 14.6429 11.4456 14.58C11.4189 14.5171 11.3802 14.46 11.3315 14.4121C11.2829 14.3642 11.2253 14.3264 11.162 14.3007C11.0987 14.2751 11.031 14.2621 10.9627 14.2627ZM9.70067 13.4207C9.65059 13.4202 9.60091 13.4296 9.55448 13.4484C9.50805 13.4672 9.46576 13.4949 9.43004 13.53C9.39432 13.5651 9.36587 13.6069 9.3463 13.653C9.32673 13.6991 9.31644 13.7486 9.316 13.7987C9.316 14.008 9.488 14.1773 9.70067 14.1773C9.7508 14.1778 9.80053 14.1683 9.84701 14.1495C9.89348 14.1307 9.9358 14.1029 9.97153 14.0678C10.0073 14.0326 10.0357 13.9907 10.0552 13.9445C10.0748 13.8984 10.085 13.8488 10.0853 13.7987C10.0849 13.7486 10.0746 13.6991 10.055 13.653C10.0355 13.6069 10.007 13.5651 9.97129 13.53C9.93557 13.4949 9.89329 13.4672 9.84685 13.4484C9.80042 13.4296 9.75074 13.4202 9.70067 13.4207ZM9.19933 12.3293C9.163 12.3291 9.12697 12.336 9.0933 12.3496C9.05964 12.3633 9.02899 12.3834 9.00311 12.4089C8.97724 12.4344 8.95664 12.4648 8.94249 12.4983C8.92834 12.5317 8.92093 12.5677 8.92067 12.604C8.92067 12.7553 9.046 12.8787 9.19933 12.8787C9.23578 12.8791 9.27195 12.8723 9.30577 12.8588C9.33959 12.8452 9.3704 12.825 9.39642 12.7995C9.42243 12.774 9.44315 12.7436 9.45738 12.71C9.47161 12.6765 9.47907 12.6404 9.47933 12.604C9.47907 12.5675 9.47161 12.5315 9.45738 12.498C9.44315 12.4644 9.42243 12.434 9.39642 12.4085C9.3704 12.3829 9.33959 12.3628 9.30577 12.3492C9.27195 12.3357 9.23578 12.3289 9.19933 12.3293ZM9.17067 10.9073C9.12118 10.9068 9.07207 10.916 9.02616 10.9345C8.98026 10.953 8.93845 10.9804 8.90315 11.0151C8.86784 11.0498 8.83974 11.0911 8.82043 11.1367C8.80113 11.1822 8.79102 11.2312 8.79067 11.2807C8.79067 11.4867 8.96067 11.654 9.17067 11.654C9.38 11.654 9.54933 11.4867 9.54933 11.2807C9.54933 11.074 9.38 10.9073 9.17067 10.9073ZM9.90933 9.38533C9.76139 9.38426 9.61907 9.44192 9.51359 9.54565C9.40811 9.64939 9.34808 9.79072 9.34667 9.93866C9.34667 10.2453 9.59867 10.4933 9.90933 10.4933C10.0574 10.4944 10.1998 10.4366 10.3053 10.3328C10.4108 10.2289 10.4708 10.0874 10.472 9.93933C10.4708 9.79128 10.4108 9.64977 10.3053 9.54589C10.1998 9.44201 10.0574 9.38426 9.90933 9.38533ZM11.352 8.576C11.0253 8.576 10.76 8.83666 10.76 9.15866C10.76 9.48066 11.0247 9.74066 11.352 9.74066C11.6787 9.74066 11.9433 9.48066 11.9433 9.15866C11.9433 8.83666 11.6787 8.576 11.352 8.576ZM13.0547 8.762C12.9863 8.76129 12.9184 8.77409 12.855 8.79966C12.7915 8.82522 12.7337 8.86306 12.6849 8.91099C12.6361 8.95892 12.5973 9.01601 12.5706 9.07899C12.5439 9.14197 12.5299 9.20959 12.5293 9.278C12.5293 9.56333 12.7647 9.79466 13.0547 9.79466C13.123 9.79519 13.1909 9.78224 13.2542 9.75656C13.3176 9.73088 13.3753 9.69297 13.424 9.64499C13.4727 9.59702 13.5115 9.53991 13.5382 9.47694C13.5648 9.41397 13.5788 9.34637 13.5793 9.278C13.5788 9.20965 13.5648 9.14208 13.5382 9.07915C13.5115 9.01621 13.4727 8.95915 13.424 8.91123C13.3752 8.86331 13.3175 8.82546 13.2542 8.79985C13.1908 8.77424 13.123 8.76138 13.0547 8.762ZM14.3093 9.86066C14.2083 9.85995 14.1111 9.89936 14.0391 9.97023C13.9671 10.0411 13.9262 10.1376 13.9253 10.2387C13.9253 10.448 14.0973 10.6173 14.3093 10.6173C14.5213 10.6173 14.694 10.448 14.694 10.2387C14.6936 10.1886 14.6833 10.1391 14.6637 10.093C14.6441 10.0469 14.6157 10.0051 14.58 9.96999C14.5442 9.93489 14.502 9.90717 14.4555 9.88841C14.4091 9.86965 14.3594 9.86022 14.3093 9.86066ZM14.838 11.1687C14.8015 11.1683 14.7653 11.1752 14.7315 11.1888C14.6977 11.2025 14.6669 11.2227 14.6409 11.2482C14.6149 11.2738 14.5942 11.3043 14.5799 11.3379C14.5657 11.3715 14.5583 11.4075 14.558 11.444C14.558 11.5953 14.6833 11.7187 14.838 11.7187C14.9913 11.7187 15.1173 11.5953 15.1173 11.444C15.1171 11.4075 15.1096 11.3715 15.0954 11.3379C15.0812 11.3043 15.0605 11.2738 15.0345 11.2482C15.0084 11.2227 14.9776 11.2025 14.9438 11.1888C14.91 11.1752 14.8745 11.1683 14.838 11.1687ZM16.748 11.6007C16.4753 11.6007 16.2547 11.8187 16.2547 12.0873C16.2547 12.3553 16.4753 12.5727 16.748 12.5727C17.0213 12.5727 17.2413 12.3553 17.2413 12.0867C17.2403 11.9568 17.1877 11.8327 17.0952 11.7416C17.0027 11.6505 16.8778 11.5998 16.748 11.6007ZM18.7853 12.1893C18.7176 12.1888 18.6504 12.2016 18.5876 12.2271C18.5248 12.2525 18.4676 12.2901 18.4193 12.3376C18.371 12.3852 18.3326 12.4418 18.3061 12.5042C18.2797 12.5666 18.2659 12.6336 18.2653 12.7013C18.2653 12.984 18.4973 13.2133 18.7853 13.2133C19.072 13.2133 19.3053 12.984 19.3053 12.7013C19.3048 12.6336 19.2909 12.5666 19.2645 12.5042C19.2381 12.4418 19.1997 12.3852 19.1514 12.3376C19.1031 12.2901 19.0459 12.2525 18.9831 12.2271C18.9203 12.2016 18.8531 12.1888 18.7853 12.1893ZM18.2693 13.9973C18.2052 13.9968 18.1415 14.0089 18.082 14.033C18.0225 14.0571 17.9684 14.0926 17.9226 14.1376C17.8769 14.1826 17.8404 14.2362 17.8154 14.2953C17.7903 14.3544 17.7772 14.4178 17.7767 14.482C17.7767 14.75 17.9967 14.9667 18.2693 14.9667C18.542 14.9667 18.762 14.75 18.762 14.482C18.7615 14.4178 18.7483 14.3543 18.7232 14.2951C18.6981 14.236 18.6616 14.1824 18.6158 14.1374C18.57 14.0924 18.5158 14.0568 18.4562 14.0328C18.3966 14.0088 18.3336 13.9967 18.2693 13.9973ZM17.3827 15.5147C17.3285 15.5142 17.2747 15.5245 17.2245 15.5448C17.1743 15.5651 17.1285 15.5952 17.0899 15.6332C17.0513 15.6712 17.0205 15.7164 16.9994 15.7663C16.9782 15.8162 16.9671 15.8698 16.9667 15.924C16.9667 16.15 17.1527 16.3333 17.382 16.3333C17.4362 16.3338 17.4899 16.3235 17.5402 16.3032C17.5904 16.2829 17.6362 16.2528 17.6748 16.2148C17.7134 16.1768 17.7442 16.1316 17.7653 16.0817C17.7865 16.0318 17.7976 15.9782 17.798 15.924C17.7976 15.8698 17.7865 15.8162 17.7653 15.7663C17.7442 15.7164 17.7134 15.6712 17.6748 15.6332C17.6362 15.5952 17.5904 15.5651 17.5402 15.5448C17.4899 15.5245 17.4369 15.5142 17.3827 15.5147ZM16.318 16.642C16.2236 16.6415 16.1329 16.6783 16.0657 16.7446C15.9985 16.8108 15.9602 16.901 15.9593 16.9953C15.9593 17.1907 16.1193 17.3493 16.318 17.3493C16.3648 17.3498 16.4113 17.341 16.4547 17.3235C16.4982 17.3059 16.5378 17.28 16.5712 17.2472C16.6046 17.2144 16.6313 17.1753 16.6496 17.1322C16.6679 17.0891 16.6776 17.0428 16.678 16.996C16.6776 16.9492 16.6679 16.9029 16.6496 16.8597C16.6313 16.8166 16.6046 16.7776 16.5712 16.7448C16.5378 16.7119 16.4982 16.686 16.4547 16.6685C16.4113 16.651 16.3648 16.6422 16.318 16.6427V16.642ZM15.194 17.4647C15.1538 17.4643 15.114 17.4719 15.0768 17.4869C15.0396 17.502 15.0057 17.5243 14.9771 17.5524C14.9485 17.5806 14.9257 17.6142 14.9101 17.6511C14.8944 17.6881 14.8863 17.7278 14.886 17.768C14.886 17.9347 15.024 18.0707 15.194 18.0707C15.2341 18.071 15.2739 18.0635 15.3111 18.0484C15.3482 18.0334 15.3821 18.0112 15.4107 17.9831C15.4393 17.955 15.4621 17.9215 15.4777 17.8846C15.4934 17.8477 15.5017 17.8081 15.502 17.768C15.5017 17.7278 15.4936 17.6881 15.4779 17.6511C15.4623 17.6142 15.4395 17.5806 15.4109 17.5524C15.3823 17.5243 15.3484 17.502 15.3112 17.4869C15.274 17.4719 15.2342 17.4643 15.194 17.4647ZM13.922 17.9293C13.8752 17.929 13.8289 17.9378 13.7856 17.9554C13.7422 17.973 13.7028 17.9989 13.6695 18.0317C13.6362 18.0645 13.6097 18.1036 13.5914 18.1466C13.5732 18.1897 13.5637 18.2359 13.5633 18.2827C13.5633 18.4773 13.7233 18.6353 13.922 18.6353C13.9687 18.6357 14.015 18.6268 14.0583 18.6092C14.1016 18.5917 14.141 18.5657 14.1743 18.5329C14.2075 18.5001 14.234 18.461 14.2521 18.418C14.2703 18.3749 14.2797 18.3287 14.28 18.282C14.28 18.0873 14.12 17.9293 13.922 17.9293ZM12.4267 18.1693C12.3727 18.169 12.3193 18.1792 12.2693 18.1996C12.2193 18.2199 12.1739 18.2498 12.1355 18.2877C12.0971 18.3256 12.0666 18.3707 12.0456 18.4204C12.0247 18.4701 12.0137 18.5234 12.0133 18.5773C12.0133 18.802 12.1987 18.9847 12.4267 18.9847C12.4807 18.9852 12.5342 18.9751 12.5843 18.9549C12.6344 18.9347 12.6799 18.9048 12.7185 18.867C12.757 18.8291 12.7877 18.7841 12.8087 18.7344C12.8298 18.6847 12.8409 18.6313 12.8413 18.5773C12.841 18.5233 12.83 18.4698 12.8089 18.4201C12.7879 18.3703 12.7572 18.3251 12.7187 18.2872C12.6802 18.2493 12.6345 18.2194 12.5844 18.1992C12.5343 18.1789 12.4807 18.1688 12.4267 18.1693ZM10.7167 18.0027C10.6465 18.0021 10.5768 18.0154 10.5118 18.0418C10.4467 18.0682 10.3874 18.1071 10.3374 18.1564C10.2874 18.2057 10.2476 18.2643 10.2202 18.329C10.1929 18.3937 10.1785 18.4631 10.178 18.5333C10.178 18.826 10.4193 19.0633 10.7167 19.0633C11.014 19.0633 11.2553 18.826 11.2553 18.5333C11.2548 18.4631 11.2405 18.3937 11.2131 18.3291C11.1857 18.2645 11.1459 18.2059 11.0959 18.1567C11.0458 18.1074 10.9866 18.0686 10.9215 18.0422C10.8565 18.0159 10.7868 18.002 10.7167 18.0027ZM8.91867 17.3673C8.75134 17.3661 8.59036 17.4313 8.47111 17.5487C8.35185 17.6661 8.28408 17.826 8.28267 17.9933C8.28267 18.3393 8.56733 18.62 8.91867 18.62C9.27 18.62 9.55467 18.3393 9.55467 17.9933C9.55406 17.9104 9.53712 17.8284 9.50483 17.7521C9.47254 17.6757 9.42552 17.6065 9.36646 17.5483C9.3074 17.4901 9.23746 17.4441 9.16063 17.4129C9.08379 17.3818 9.00158 17.366 8.91867 17.3667V17.3673ZM7.32533 16.1913C6.91333 16.1913 6.57867 16.5207 6.57867 16.9267C6.57867 17.3333 6.91333 17.662 7.32533 17.662C7.73867 17.662 8.07267 17.3327 8.07267 16.9267C8.07267 16.52 7.738 16.1913 7.32533 16.1913ZM6.004 14.4167C5.55733 14.4167 5.19533 14.7733 5.19533 15.2127C5.19533 15.6527 5.55733 16.0093 6.004 16.0093C6.45067 16.0093 6.81333 15.6527 6.81333 15.2127C6.81333 14.7727 6.45133 14.4167 6.004 14.4167ZM5.25333 12.57C5.17034 12.5693 5.08802 12.5849 5.01107 12.6161C4.93412 12.6472 4.86406 12.6931 4.80487 12.7513C4.74569 12.8095 4.69855 12.8788 4.66614 12.9552C4.63374 13.0316 4.6167 13.1137 4.616 13.1967C4.616 13.5433 4.90133 13.8233 5.25333 13.8233C5.4209 13.8246 5.58211 13.7593 5.7016 13.6418C5.82109 13.5243 5.88908 13.3642 5.89067 13.1967C5.89067 12.85 5.60533 12.57 5.25333 12.57ZM5.21733 10.7853C5.07989 10.7843 4.94764 10.8378 4.84964 10.9342C4.75164 11.0305 4.6959 11.1619 4.69467 11.2993C4.69467 11.584 4.928 11.814 5.21733 11.814C5.28545 11.8145 5.353 11.8016 5.41613 11.776C5.47925 11.7505 5.53673 11.7127 5.58526 11.6649C5.6338 11.6171 5.67244 11.5602 5.69899 11.4975C5.72554 11.4348 5.73948 11.3674 5.74 11.2993C5.73877 11.1619 5.68303 11.0305 5.58503 10.9342C5.48703 10.8378 5.35478 10.7843 5.21733 10.7853ZM5.73067 9.03333C5.66644 9.0328 5.60274 9.04494 5.5432 9.06906C5.48367 9.09317 5.42947 9.12878 5.38372 9.17386C5.33796 9.21893 5.30154 9.27259 5.27653 9.33175C5.25153 9.39092 5.23844 9.45443 5.238 9.51866C5.238 9.78599 5.458 10.0033 5.73133 10.0033C6.00333 10.0033 6.224 9.78599 6.224 9.51866C6.22348 9.4544 6.2103 9.39087 6.18523 9.3317C6.16015 9.27254 6.12366 9.21889 6.07785 9.17382C6.03204 9.12875 5.9778 9.09315 5.91823 9.06904C5.85866 9.04494 5.79493 9.0328 5.73067 9.03333ZM6.62 7.67C6.56593 7.66956 6.5123 7.67978 6.46218 7.70009C6.41206 7.7204 6.36644 7.75039 6.32793 7.78835C6.28941 7.8263 6.25876 7.87148 6.23773 7.9213C6.21669 7.97111 6.20568 8.02459 6.20533 8.07866C6.20533 8.304 6.39133 8.48666 6.62 8.48666C6.67402 8.4871 6.72759 8.4769 6.77767 8.45663C6.82774 8.43636 6.87333 8.40643 6.91184 8.36855C6.95034 8.33066 6.98101 8.28556 7.00208 8.23582C7.02316 8.18608 7.03423 8.13268 7.03467 8.07866C7.03432 8.02459 7.02331 7.97111 7.00227 7.9213C6.98124 7.87148 6.95059 7.8263 6.91207 7.78835C6.87356 7.75039 6.82794 7.7204 6.77782 7.70009C6.7277 7.67978 6.67407 7.66956 6.62 7.67ZM7.68267 6.654C7.636 6.65365 7.58973 6.66249 7.54648 6.68002C7.50324 6.69756 7.46387 6.72343 7.43062 6.75618C7.39738 6.78893 7.37091 6.82791 7.35273 6.87088C7.33455 6.91386 7.32502 6.96 7.32467 7.00666C7.32467 7.20133 7.48467 7.35933 7.68267 7.35933C7.72933 7.35968 7.77561 7.35084 7.81885 7.3333C7.8621 7.31577 7.90147 7.28989 7.93471 7.25714C7.96795 7.2244 7.99442 7.18542 8.0126 7.14244C8.03078 7.09946 8.04032 7.05333 8.04067 7.00666C8.04032 6.96 8.03078 6.91386 8.0126 6.87088C7.99442 6.82791 7.96795 6.78893 7.93471 6.75618C7.90147 6.72343 7.8621 6.69756 7.81885 6.68002C7.77561 6.66249 7.72933 6.65365 7.68267 6.654ZM8.80667 5.928C8.72545 5.92747 8.64733 5.95917 8.58947 6.01617C8.5316 6.07316 8.4987 6.15078 8.498 6.232C8.49888 6.3131 8.53185 6.39055 8.5897 6.4474C8.64755 6.50425 8.72556 6.53586 8.80667 6.53533C8.88777 6.53586 8.96578 6.50425 9.02363 6.4474C9.08148 6.39055 9.11445 6.3131 9.11533 6.232C9.11463 6.15078 9.08173 6.07316 9.02387 6.01617C8.966 5.95917 8.88789 5.92747 8.80667 5.928ZM10.08 5.36866C10.0334 5.36831 9.98724 5.37714 9.94407 5.39464C9.90091 5.41214 9.86161 5.43797 9.82843 5.47066C9.79525 5.50334 9.76883 5.54224 9.75068 5.58514C9.73254 5.62804 9.72302 5.67409 9.72267 5.72066C9.72267 5.91466 9.88267 6.07266 10.0807 6.07266C10.1747 6.0732 10.2651 6.03645 10.332 5.97048C10.399 5.9045 10.4371 5.81467 10.438 5.72066C10.4377 5.67409 10.4281 5.62804 10.41 5.58514C10.3918 5.54224 10.3654 5.50334 10.3322 5.47066C10.2991 5.43797 10.2598 5.41214 10.2166 5.39464C10.1734 5.37714 10.1272 5.36831 10.0807 5.36866H10.08ZM11.5707 5.01533C11.4614 5.01462 11.3564 5.05724 11.2786 5.13384C11.2007 5.21044 11.1564 5.31478 11.1553 5.424C11.1553 5.65 11.342 5.83266 11.5707 5.83266C11.68 5.83355 11.7852 5.79102 11.8632 5.71439C11.9412 5.63777 11.9856 5.53333 11.9867 5.424C11.9862 5.36981 11.9751 5.31623 11.954 5.26633C11.9328 5.21643 11.9021 5.17118 11.8634 5.13317C11.8248 5.09516 11.7791 5.06513 11.7288 5.0448C11.6786 5.02446 11.6249 5.01489 11.5707 5.01533ZM13.284 4.94067C12.986 4.94067 12.7447 5.178 12.7447 5.47066C12.7447 5.76333 12.986 6.002 13.284 6.002C13.582 6.002 13.8233 5.764 13.8233 5.47066C13.8233 5.17733 13.582 4.94067 13.284 4.94067ZM15.032 5.34733C14.8645 5.34626 14.7034 5.41161 14.5839 5.52905C14.4645 5.6465 14.3964 5.80649 14.3947 5.974C14.3947 6.32066 14.68 6.602 15.032 6.602C15.1151 6.60261 15.1975 6.58686 15.2745 6.55563C15.3515 6.5244 15.4216 6.47831 15.4807 6.42C15.5399 6.36168 15.587 6.29228 15.6194 6.21576C15.6518 6.13923 15.6687 6.05708 15.6693 5.974C15.6677 5.80643 15.5998 5.64634 15.4803 5.52886C15.3608 5.41137 15.1996 5.34609 15.032 5.34733ZM16.6827 6.33333C16.2693 6.33333 15.9347 6.66333 15.9347 7.06933C15.9347 7.47533 16.27 7.806 16.6827 7.806C17.096 7.806 17.4307 7.476 17.4307 7.06933C17.4307 6.66266 17.096 6.33333 16.6827 6.33333ZM17.9947 7.992C17.548 7.992 17.1853 8.34866 17.1853 8.788C17.1853 9.228 17.5473 9.58466 17.9947 9.58466C18.442 9.58466 18.804 9.228 18.804 8.788C18.804 8.348 18.442 7.992 17.9947 7.992ZM18.746 10.178C18.3947 10.178 18.11 10.458 18.11 10.8047C18.11 11.1513 18.3947 11.4307 18.746 11.4307C19.098 11.4307 19.3827 11.1507 19.3827 10.804C19.3827 10.4573 19.098 10.1773 18.746 10.1773V10.178ZM22 12.0013C22 12.5773 21.526 13.044 20.94 13.044C20.3553 13.044 19.8813 12.5773 19.8813 12.0013C19.8813 11.4253 20.3553 10.9587 20.9407 10.9587C21.526 10.9587 22 11.4253 22 12.0013Z" fill="#FA6400"/>
</svg>
