<svg width="24" height="24" viewBox="0 0 24 24" fill="none"
    xmlns="http://www.w3.org/2000/svg">
    <mask id="mask0_3608_303" style="mask-type:luminance" maskUnits="userSpaceOnUse" x="2" y="2" width="20" height="20">
        <path d="M22 2H2V22H22V2Z" fill="white"/>
    </mask>
    <g mask="url(#mask0_3608_303)">
        <path d="M12 2C17.52 2 22 6.48 22 12C22 17.52 17.52 22 12 22C6.48 22 2 17.52 2 12C2 6.48 6.48 2 12 2ZM12 4.64C7.92 4.64 4.64 7.92 4.64 12C4.64 16.08 7.92 19.36 12 19.36C16.08 19.36 19.36 16.08 19.36 12C19.36 7.92 16.08 4.64 12 4.64ZM14.48 12.4C15.6288 12.4 16.56 13.3313 16.56 14.48C16.56 15.6288 15.6288 16.56 14.48 16.56C13.3313 16.56 12.4 15.6288 12.4 14.48C12.4 13.3313 13.3313 12.4 14.48 12.4ZM9.52 12.4C10.6687 12.4 11.6 13.3313 11.6 14.48C11.6 15.6288 10.6687 16.56 9.52 16.56C8.37125 16.56 7.44 15.6288 7.44 14.48C7.44 13.3313 8.37125 12.4 9.52 12.4ZM14.48 7.44C15.6288 7.44 16.56 8.37125 16.56 9.52C16.56 10.6687 15.6288 11.6 14.48 11.6C13.3313 11.6 12.4 10.6687 12.4 9.52C12.4 8.37125 13.3313 7.44 14.48 7.44ZM9.52 7.44C10.6687 7.44 11.6 8.37125 11.6 9.52C11.6 10.6687 10.6687 11.6 9.52 11.6C8.37125 11.6 7.44 10.6687 7.44 9.52C7.44 8.37125 8.37125 7.44 9.52 7.44Z" fill="#F12E45"/>
    </g>
</svg>
