<svg width="24" height="24" viewBox="0 0 24 24" fill="none"
    xmlns="http://www.w3.org/2000/svg">
    <g clip-path="url(#clip0_988_2580)">
        <path d="M20.3356 7.85303H3.23571V16.7424C3.23571 17.295 3.82442 17.9496 4.36322 18.0213L13.5697 18.0258C14.4079 18.0303 14.5885 19.1287 13.7476 19.3313L4.31596 19.3295C3.10808 19.1707 2.14972 18.2031 2 16.9689L2.00221 4.32046C2.15546 3.15166 3.05596 2.21066 4.19451 2.01308L19.3013 2C20.5758 2.1651 21.4993 3.20579 21.6128 4.50045L21.5832 13.0208C21.4357 13.541 20.7472 13.6564 20.4473 13.2071C20.4252 13.1738 20.3351 12.9793 20.3351 12.9617V7.85303H20.3356ZM20.3356 6.54755V4.40978C20.3356 4.37234 20.1854 4.03176 20.1505 3.9686C19.8895 3.4963 19.458 3.31361 18.9466 3.26308L4.66618 3.26083C3.99003 3.24008 3.23571 3.88335 3.23571 4.59022V6.548H20.3356V6.54755Z" fill="black"/>
        <path d="M15.4329 13.2207C15.7421 13.1751 15.9483 13.2468 16.2367 13.3213C18.2382 13.8378 20.2419 14.6489 22.243 15.1992C23.2937 15.7338 23.2385 17.1367 22.1542 17.609C21.3425 17.9627 20.3811 18.1449 19.5658 18.5211L18.5814 21.3865C18.0421 22.2373 16.8298 22.1989 16.3612 21.2958L14.3867 14.6263C14.3169 13.9722 14.793 13.315 15.4334 13.2207H15.4329ZM21.7016 16.3599L15.6643 14.5144L17.4715 20.6801C17.532 20.6936 17.5188 20.6332 17.5365 20.5903C17.8421 19.8401 18.1994 18.0051 18.7262 17.5287C19.2315 17.0717 20.896 16.7316 21.6137 16.4262C21.6556 16.4082 21.7148 16.4217 21.7016 16.3599Z" fill="black"/>
        <path d="M7.27804 4.35248C7.66492 4.27219 8.01823 4.53924 7.99703 4.94794C7.96435 5.5673 7.04088 5.69676 6.87924 5.05394C6.80416 4.75486 6.97066 4.41654 7.27804 4.35248Z" fill="black"/>
        <path d="M5.29508 4.35293C6.28391 4.16933 6.18587 5.75405 5.21603 5.4473C4.7311 5.29392 4.76202 4.45217 5.29508 4.35293Z" fill="black"/>
        <path d="M9.02384 4.49234C9.53923 3.96591 10.3346 4.77834 9.84706 5.31064C9.34403 5.86008 8.47974 5.04765 9.02384 4.49234Z" fill="black"/>
    </g>
    <defs>
        <clipPath id="clip0_988_2580">
            <rect width="21" height="20" fill="white" transform="translate(2 2)"/>
        </clipPath>
    </defs>
</svg>
