<svg width="24" height="24" viewBox="0 0 24 24" fill="none"
    xmlns="http://www.w3.org/2000/svg">
    <path d="M21.9753 9.91135C22.0073 11.2804 22.0077 12.7299 21.9753 14.099C21.9474 15.2881 21.9186 16.6079 21.6808 17.7878C20.9733 21.2989 18.3227 21.822 15.1641 21.9302C12.765 22.0125 9.73629 22.0636 7.36971 21.8371C2.43535 21.3647 2.17605 18.5329 2.06218 14.3018C2.0041 12.1466 1.94008 9.85334 2.10654 7.70401C2.49022 2.7393 4.96518 2.21853 9.37639 2.08377C11.8417 2.00839 14.7777 1.88871 17.2055 2.22584C21.7196 2.85305 21.8865 6.09509 21.9753 9.9109V9.91135ZM9.57029 3.5063C6.65219 3.58488 4.17358 3.48483 3.66276 6.93701C3.33122 9.17907 3.46018 11.9314 3.52054 14.2105C3.59966 17.2173 3.34859 19.817 7.01073 20.3286C9.44087 20.6681 12.9471 20.5424 15.4362 20.4259C16.8808 20.3583 18.5944 20.3264 19.5831 19.1057C20.5329 17.9335 20.4318 15.6088 20.4693 14.1648C20.5265 11.9798 20.6317 9.45591 20.3797 7.29378C19.9453 3.56797 17.7868 3.63832 14.6135 3.53965C12.9407 3.48757 11.2495 3.46062 9.57029 3.50585V3.5063Z" fill="black"/>
    <path d="M16.3992 8.56116C16.7454 8.92525 16.6439 9.58352 16.1527 9.76214C15.9492 9.83614 15.7755 9.7964 15.5838 9.83112C14.4726 10.0339 13.5502 11.2628 12.8683 12.0796C13.0988 12.5309 13.2744 13.0193 13.5205 13.4619C13.5836 13.5757 13.7244 13.842 13.8067 13.9169C14.4209 14.4747 15.9131 13.7949 16.1221 14.6866C16.3434 15.63 15.4178 15.6757 14.7525 15.645C13.8666 15.6048 13.0517 15.3993 12.5231 14.64C12.2487 14.2454 12.1042 13.768 11.8348 13.3701L10.9252 14.3267C10.2178 14.9827 9.14995 15.6702 8.14433 15.6496C7.57407 15.6377 7.24023 15.1142 7.44968 14.588C7.63397 14.1248 8.10775 14.2193 8.496 14.1307C9.55559 13.8895 10.4794 12.6995 11.1196 11.8831C11.1287 11.7794 10.2809 10.155 10.1501 10.0458C9.54598 9.54195 8.49417 10.1207 8.00577 9.54743C7.6573 9.13858 7.88321 8.44924 8.42055 8.36519C8.80834 8.30443 9.68272 8.3524 10.0742 8.43736C11.2691 8.69684 11.6757 9.6388 12.1545 10.6374C12.9648 9.74067 13.9119 8.70506 15.1467 8.43782C15.5221 8.35651 16.1079 8.25372 16.3997 8.56025L16.3992 8.56116Z" fill="black"/>
</svg>
