<svg width="24" height="24" viewBox="0 0 24 24" fill="none"
    xmlns="http://www.w3.org/2000/svg">
    <path d="M11.8112 2.03707C12.7927 1.87314 14.5601 2.28557 15.504 2.63411C22.5019 5.21955 24.2712 14.4194 18.7147 19.4366C13.1432 24.4666 4.11473 21.7186 2.31158 14.4649C2.14668 13.8012 1.9066 12.4051 2.03768 11.7606C2.17393 11.0908 3.07315 10.8038 3.62189 11.2336C4.14292 11.6418 3.97567 12.2459 4.04332 12.8274C4.77999 19.1571 12.1049 22.2386 17.0952 18.1928C22.3055 13.9684 20.1401 5.40838 13.5594 4.15653C12.9674 4.04379 12.3727 4.07667 11.8112 3.9832C10.7847 3.81221 10.7875 2.20853 11.8112 2.03707Z" fill="black"/>
    <path d="M11.8126 6.02058C12.3651 5.92616 12.802 6.24136 12.9861 6.74633L13.0176 11.6358L15.4076 14.4951C16.0385 15.5187 14.8551 16.5432 13.9333 15.8287C13.1294 14.7709 12.0244 13.7572 11.2638 12.6866C11.176 12.5626 11.0862 12.4442 11.0491 12.292L11.0312 6.78578C11.1271 6.43724 11.4442 6.084 11.8126 6.02105V6.02058Z" fill="black"/>
    <path d="M4.90115 4.94741C5.40009 4.426 6.37355 4.61484 6.58262 5.31944C6.88894 6.35146 5.67823 7.08613 4.93028 6.36226C4.55678 6.00103 4.54174 5.3232 4.90115 4.94741Z" fill="black"/>
    <path d="M3.56579 7.56776C4.94657 7.39818 5.09221 9.51811 3.73821 9.5726C2.46689 9.6238 2.34662 7.71761 3.56579 7.56776Z" fill="black"/>
    <path d="M7.85488 2.98041C8.80062 2.04188 10.2368 3.53752 9.24647 4.44224C8.31671 5.29152 6.92277 3.90533 7.85488 2.98041Z" fill="black"/>
</svg>
