<svg width="24" height="24" viewBox="0 0 24 24" fill="none"
    xmlns="http://www.w3.org/2000/svg">
    <path d="M21.1672 3.25H7.83314C7.72373 3.25 7.61539 3.27155 7.51431 3.31342C7.41323 3.35529 7.32138 3.41666 7.24402 3.49402C7.16666 3.57138 7.10529 3.66323 7.06342 3.76431C7.02155 3.86539 7 3.97373 7 4.08314V7.62493L14.5004 9.81283L22.0007 7.62536V4.08314C22.0007 3.97369 21.9792 3.86532 21.9373 3.76421C21.8954 3.6631 21.834 3.57124 21.7566 3.49387C21.6792 3.4165 21.5873 3.35514 21.4861 3.3133C21.385 3.27145 21.2766 3.24994 21.1672 3.25Z" fill="#41A5EE"/>
    <path d="M22.0007 7.625H7V11.9999L14.5004 14.1878L22.0007 12.0004V7.625Z" fill="#2B7CD3"/>
    <path d="M22.0007 12H7V16.3749L14.5004 18.5628L22.0007 16.3754V12Z" fill="#185ABD"/>
    <path d="M22.0007 16.375H7V19.9168C7 20.0262 7.02155 20.1345 7.06342 20.2356C7.10529 20.3367 7.16666 20.4285 7.24402 20.5059C7.32138 20.5833 7.41323 20.6446 7.51431 20.6865C7.61539 20.7284 7.72373 20.7499 7.83314 20.7499H21.1672C21.2766 20.75 21.385 20.7285 21.4861 20.6866C21.5873 20.6448 21.6792 20.5834 21.7566 20.5061C21.834 20.4287 21.8954 20.3368 21.9373 20.2357C21.9792 20.1346 22.0007 20.0262 22.0007 19.9168V16.375Z" fill="#103F91"/>
    <path opacity="0.1" d="M12.4169 6.375H7V18.2503H12.4169C12.6376 18.2496 12.8492 18.1616 13.0053 18.0055C13.1614 17.8494 13.2494 17.6379 13.25 17.4172V7.20814C13.2494 6.98738 13.1614 6.77586 13.0053 6.61977C12.8492 6.46367 12.6376 6.37567 12.4169 6.375Z" fill="black"/>
    <path opacity="0.2" d="M11.7917 7H7V18.8753H11.7917C12.0125 18.8747 12.2242 18.7868 12.3804 18.6307C12.5366 18.4746 12.6246 18.263 12.6253 18.0422V7.83314C12.6246 7.61231 12.5366 7.40073 12.3804 7.24462C12.2242 7.08851 12.0125 7.00056 11.7917 7Z" fill="black"/>
    <path opacity="0.2" d="M11.7917 7H7V17.625H11.7917C12.0125 17.6244 12.2242 17.5365 12.3804 17.3803C12.5366 17.2242 12.6246 17.0126 12.6253 16.7918V7.83314C12.6246 7.61231 12.5366 7.40073 12.3804 7.24462C12.2242 7.08851 12.0125 7.00056 11.7917 7Z" fill="black"/>
    <path opacity="0.2" d="M11.167 7H7V17.625H11.167C11.3877 17.6243 11.5992 17.5363 11.7553 17.3802C11.9114 17.2241 11.9994 17.0126 12.0001 16.7918V7.83314C11.9994 7.61238 11.9114 7.40086 11.7553 7.24477C11.5992 7.08867 11.3877 7.00067 11.167 7Z" fill="black"/>
    <path d="M2.83314 7H11.1671C11.388 7 11.5999 7.08778 11.7562 7.24402C11.9124 7.40026 12.0002 7.61218 12.0002 7.83314V16.1671C12.0002 16.388 11.9124 16.5999 11.7562 16.7562C11.5999 16.9124 11.388 17.0002 11.1671 17.0002H2.83314C2.61218 17.0002 2.40026 16.9124 2.24402 16.7562C2.08778 16.5999 2 16.388 2 16.1671V7.83314C2 7.72373 2.02155 7.61539 2.06342 7.51431C2.10529 7.41323 2.16666 7.32138 2.24402 7.24402C2.32138 7.16666 2.41323 7.10529 2.51431 7.06342C2.61539 7.02155 2.72373 7 2.83314 7Z" fill="#185ABD"/>
    <path d="M9.46863 15.125H8.344L7.03144 10.8123L5.65623 15.125H4.53117L3.28125 8.875H4.40631L5.28121 13.2499L6.59377 8.99986H7.53132L8.78124 13.2499L9.65614 8.875H10.7177L9.46863 15.125Z" fill="white"/>
</svg>
