<svg width="24" height="24" viewBox="0 0 24 24" fill="none"
    xmlns="http://www.w3.org/2000/svg">
    <path d="M13.6505 18.0396V19.2277H4.3301V18.0396H13.6505ZM14.8155 16.8515V12.8911C14.8155 12.2349 14.2939 11.7029 13.6505 11.7029H4.3301C3.68666 11.7029 3.16505 12.2349 3.16505 12.8911V16.8515C3.16505 17.5076 3.68666 18.0396 4.3301 18.0396V19.2277C3.08341 19.2277 2.06541 18.2292 2.00303 16.9737L2 16.8515V12.8911C2 11.5787 3.04322 10.5148 4.3301 10.5148H13.6505L13.7703 10.5179C15.0015 10.5815 15.9806 11.6197 15.9806 12.8911V16.8515C15.9806 18.1228 15.0015 19.161 13.7703 19.2246L13.6505 19.2277V18.0396C14.2939 18.0396 14.8155 17.5076 14.8155 16.8515Z" fill="black"/>
    <path d="M19.0874 16.2574C20.0525 16.2574 20.8349 15.4595 20.8349 14.4752V4.97029C20.8349 3.98603 20.0525 3.18812 19.0874 3.18812H15.2039C14.2387 3.18812 13.4563 3.98603 13.4563 4.97029V9.32673H12.2913V4.97029C12.2913 3.32985 13.5953 2 15.2039 2H19.0874C20.696 2 22 3.32985 22 4.97029V14.4752C22 16.1157 20.696 17.4455 19.0874 17.4455H17.1456V16.2574H19.0874Z" fill="black"/>
    <path d="M9.767 20.8119L8.60195 20.8119L8.60195 19.2277L9.767 19.2277L9.767 20.8119Z" fill="black"/>
    <path d="M15.9806 6.95047L15.9806 5.76235L18.3107 5.76235L18.3107 6.95047L15.9806 6.95047Z" fill="black"/>
    <path d="M15.9806 10.1188L15.9806 8.93069L18.3107 8.93069L18.3107 10.1188L15.9806 10.1188Z" fill="black"/>
    <path d="M12.8738 20.8119L12.8738 22L5.10678 22L5.10678 20.8119L12.8738 20.8119Z" fill="black"/>
</svg>
