<svg width="24" height="24" viewBox="0 0 24 24" fill="none"
    xmlns="http://www.w3.org/2000/svg">
    <path d="M7.38369 0.724625C7.43051 0.724167 7.47732 0.723709 7.52556 0.723237C7.68093 0.721951 7.83628 0.721984 7.99165 0.722031C8.10365 0.721392 8.21565 0.720678 8.32765 0.719894C8.59936 0.718235 8.87106 0.717467 9.14278 0.7172C9.36373 0.716982 9.58468 0.716485 9.80563 0.715795C10.4331 0.713877 11.0606 0.712793 11.6881 0.712707C11.7219 0.712702 11.7556 0.712697 11.7904 0.712692C11.8242 0.712688 11.858 0.712683 11.8928 0.712678C12.4408 0.71255 12.9888 0.710384 13.5368 0.707312C14.1005 0.704177 14.6642 0.702625 15.2279 0.702692C15.544 0.702696 15.8601 0.702046 16.1762 0.699676C16.4733 0.69754 16.7704 0.69743 17.0676 0.698864C17.1765 0.699047 17.2853 0.698513 17.3942 0.697198C18.3189 0.686735 18.3189 0.686735 18.6081 0.941642C18.673 1.01669 18.7361 1.09339 18.7969 1.17189C18.8579 1.23266 18.9198 1.29261 18.9825 1.35158C19.0427 1.41149 19.1028 1.47152 19.1627 1.53167C19.196 1.56488 19.2293 1.59809 19.2636 1.63231C19.3718 1.74031 19.4799 1.84849 19.5879 1.95668C19.6637 2.03246 19.7395 2.10824 19.8154 2.18401C19.9733 2.34192 20.1312 2.49992 20.2891 2.65797C20.4915 2.86068 20.6942 3.06317 20.8969 3.2656C21.0531 3.42162 21.2091 3.57775 21.3652 3.73391C21.4399 3.80867 21.5147 3.88339 21.5895 3.95807C21.6936 4.06206 21.7975 4.1662 21.9014 4.27037C21.9478 4.31662 21.9478 4.31662 21.9951 4.36379C22.0234 4.39217 22.0516 4.42055 22.0807 4.44978C22.1053 4.47434 22.1298 4.4989 22.1551 4.5242C22.3085 4.69185 22.3243 4.79592 22.3246 5.01672C22.3249 5.07612 22.3252 5.13552 22.3255 5.19671C22.3253 5.263 22.3252 5.3293 22.325 5.39559C22.3252 5.46572 22.3254 5.53585 22.3257 5.60599C22.3263 5.79921 22.3262 5.99244 22.3261 6.18566C22.3261 6.39388 22.3266 6.60209 22.3271 6.81031C22.3279 7.21851 22.3281 7.62671 22.3282 8.03491C22.3282 8.36677 22.3284 8.69864 22.3287 9.03051C22.3295 9.97126 22.33 10.912 22.3299 11.8528C22.3299 11.9035 22.3299 11.9543 22.3299 12.0066C22.3299 12.0574 22.3299 12.1082 22.3299 12.1605C22.3298 12.9834 22.3307 13.8064 22.332 14.6293C22.3334 15.4741 22.334 16.3189 22.334 17.1637C22.3339 17.6381 22.3342 18.1124 22.3352 18.5868C22.3361 18.9908 22.3363 19.3948 22.3356 19.7989C22.3353 20.005 22.3353 20.211 22.3361 20.4171C22.3369 20.606 22.3367 20.7948 22.3359 20.9837C22.3358 21.0518 22.3359 21.12 22.3365 21.1881C22.3409 21.803 22.2293 22.2814 21.7969 22.7344C21.3518 23.1593 20.8735 23.2786 20.2705 23.2738C20.1849 23.2743 20.1849 23.2743 20.0975 23.2747C19.9403 23.2753 19.7833 23.2751 19.6261 23.2745C19.4561 23.2741 19.2861 23.2748 19.1162 23.2753C18.7837 23.2761 18.4513 23.2759 18.1188 23.2754C17.8485 23.275 17.5782 23.2749 17.3079 23.2751C17.2693 23.2751 17.2308 23.2752 17.1911 23.2752C17.1127 23.2752 17.0344 23.2753 16.9561 23.2754C16.2225 23.2759 15.489 23.2753 14.7554 23.2743C14.1267 23.2734 13.498 23.2736 12.8693 23.2745C12.1383 23.2755 11.4073 23.2759 10.6762 23.2753C10.5982 23.2752 10.5202 23.2752 10.4421 23.2751C10.4038 23.2751 10.3654 23.275 10.3258 23.275C10.056 23.2749 9.78617 23.2751 9.51634 23.2756C9.18728 23.2761 8.85822 23.2759 8.52916 23.275C8.36143 23.2745 8.19372 23.2743 8.02599 23.2749C7.84381 23.2756 7.66165 23.2748 7.47947 23.2738C7.42698 23.2742 7.37448 23.2747 7.32039 23.2751C6.78014 23.2697 6.3459 23.1093 5.95313 22.7344C5.41836 22.1742 5.41173 21.5824 5.42579 20.8506C5.42673 20.7649 5.42758 20.6792 5.42835 20.5934C5.4304 20.3852 5.43362 20.177 5.43751 19.9688C5.36561 19.9702 5.36561 19.9702 5.29227 19.9717C5.11152 19.9752 4.93077 19.9773 4.75 19.9791C4.67231 19.98 4.59463 19.9813 4.51695 19.9829C3.92304 19.9951 3.36801 19.9669 2.85938 19.6172C2.79992 19.5773 2.79992 19.5773 2.73926 19.5366C2.2204 19.1575 1.92431 18.7043 1.73438 18.0938C1.72594 18.0669 1.7175 18.0401 1.70881 18.0124C1.6794 17.8659 1.68111 17.7253 1.68061 17.5758C1.68043 17.5425 1.68026 17.5092 1.68008 17.4749C1.67957 17.3633 1.67939 17.2517 1.67921 17.1401C1.67891 17.0601 1.6786 16.9801 1.67827 16.9001C1.67729 16.6373 1.6768 16.3745 1.67634 16.1116C1.67615 16.0211 1.67595 15.9305 1.67576 15.8399C1.67486 15.4141 1.6742 14.9884 1.67381 14.5626C1.67335 14.0718 1.67212 13.581 1.67022 13.0902C1.6688 12.7104 1.66811 12.3307 1.66796 11.9509C1.66785 11.7243 1.66743 11.4977 1.66625 11.2711C1.66515 11.0577 1.66496 10.8443 1.66544 10.6309C1.66546 10.5528 1.66517 10.4748 1.66452 10.3968C1.65952 9.75671 1.74547 9.24504 2.20313 8.76564C2.63601 8.3524 3.10482 8.21973 3.69343 8.2317C3.74368 8.23197 3.79393 8.23223 3.8457 8.23251C4.00426 8.23354 4.16276 8.2359 4.32129 8.23829C4.4296 8.23923 4.53791 8.24009 4.64621 8.24086C4.91 8.24291 5.17375 8.24604 5.43751 8.25001C5.43733 8.21932 5.43716 8.18863 5.43698 8.15702C5.43283 7.40851 5.42973 6.66 5.42779 5.91148C5.42683 5.5495 5.42551 5.18752 5.42336 4.82554C5.42148 4.50985 5.42028 4.19416 5.41986 3.87846C5.41962 3.71147 5.41905 3.5445 5.41768 3.37751C5.41616 3.19059 5.41613 3.00369 5.41622 2.81676C5.41554 2.76207 5.41487 2.70738 5.41418 2.65103C5.41692 2.10188 5.57148 1.66543 5.95313 1.26564C6.36345 0.873936 6.82292 0.72123 7.38369 0.724625ZM6.65626 1.96876C6.40479 2.28684 6.36766 2.57948 6.36937 2.97915C6.36933 3.01385 6.36929 3.04854 6.36925 3.08429C6.36917 3.20002 6.36943 3.31575 6.36968 3.43148C6.3697 3.51465 6.36969 3.59781 6.36966 3.68098C6.36965 3.90642 6.36993 4.13186 6.37025 4.35731C6.37055 4.59303 6.37057 4.82876 6.37063 5.06449C6.37077 5.51072 6.37116 5.95695 6.37163 6.40318C6.37215 6.91127 6.37241 7.41935 6.37265 7.92743C6.37314 8.97246 6.37396 10.0175 6.37501 11.0625C6.40103 11.0625 6.42705 11.0626 6.45387 11.0626C7.9969 11.0643 9.53994 11.0669 11.083 11.0709C11.2683 11.0713 11.4537 11.0718 11.639 11.0722C11.6759 11.0723 11.7128 11.0724 11.7508 11.0725C12.348 11.074 12.9451 11.0748 13.5423 11.0753C14.1552 11.0759 14.7681 11.0772 15.381 11.0791C15.7591 11.0803 16.1372 11.0809 16.5153 11.0809C16.8054 11.0809 17.0955 11.0818 17.3856 11.0832C17.5044 11.0836 17.6233 11.0837 17.7422 11.0834C17.9046 11.0831 18.067 11.0839 18.2295 11.0851C18.2999 11.0845 18.2999 11.0845 18.3717 11.084C18.8297 11.0896 19.2148 11.2615 19.5469 11.5781C19.7889 11.877 19.9331 12.1673 19.9344 12.5578C19.935 12.6391 19.935 12.6391 19.9356 12.7221C19.9356 12.7809 19.9355 12.8397 19.9355 12.9003C19.9358 12.9634 19.9361 13.0265 19.9365 13.0896C19.9373 13.2604 19.9375 13.4313 19.9376 13.6021C19.9376 13.709 19.9378 13.8159 19.9381 13.9228C19.9389 14.2962 19.9393 14.6696 19.9393 15.0431C19.9392 15.3904 19.9402 15.7377 19.9417 16.085C19.9429 16.3838 19.9434 16.6826 19.9433 16.9814C19.9433 17.1596 19.9436 17.3378 19.9446 17.516C19.9455 17.6837 19.9455 17.8514 19.9448 18.0192C19.9447 18.1095 19.9454 18.1998 19.9463 18.2901C19.9438 18.6265 19.903 18.8787 19.7344 19.1719C19.7129 19.2093 19.6915 19.2467 19.6694 19.2852C19.4237 19.6194 19.1141 19.841 18.7031 19.9219C18.5339 19.9354 18.3653 19.9353 18.1956 19.9349C18.145 19.9352 18.0944 19.9355 18.0422 19.9358C17.8729 19.9366 17.7036 19.9367 17.5342 19.9368C17.4127 19.9373 17.2912 19.9377 17.1697 19.9383C16.9082 19.9393 16.6468 19.94 16.3853 19.9405C16.0073 19.9412 15.6293 19.9424 15.2513 19.9437C14.6379 19.9458 14.0246 19.9475 13.4112 19.949C12.8155 19.9504 12.2198 19.952 11.6241 19.9539C11.569 19.9541 11.569 19.9541 11.5128 19.9542C11.3285 19.9548 11.1442 19.9554 10.9599 19.956C9.43158 19.9608 7.9033 19.965 6.37501 19.9688C6.37267 20.1622 6.37098 20.3556 6.36986 20.549C6.36939 20.6146 6.36875 20.6803 6.36793 20.7459C6.35017 21.4338 6.35017 21.4338 6.65626 22.0313C7.02643 22.3239 7.38628 22.3194 7.84208 22.3188C7.89565 22.3189 7.94922 22.319 8.00442 22.3191C8.18405 22.3194 8.36368 22.3194 8.54332 22.3193C8.67206 22.3194 8.8008 22.3196 8.92954 22.3198C9.24302 22.3202 9.5565 22.3203 9.86997 22.3203C10.1248 22.3204 10.3796 22.3205 10.6345 22.3206C11.3572 22.321 12.08 22.3212 12.8027 22.3212C12.8611 22.3212 12.8611 22.3212 12.9207 22.3212C12.9597 22.3212 12.9987 22.3212 13.0389 22.3212C13.6709 22.3212 14.303 22.3216 14.935 22.3223C15.5842 22.323 16.2334 22.3233 16.8826 22.3232C17.247 22.3232 17.6114 22.3234 17.9758 22.3239C18.286 22.3243 18.5962 22.3244 18.9064 22.3241C19.0646 22.3239 19.2228 22.324 19.381 22.3243C19.5527 22.3247 19.7244 22.3245 19.896 22.3241C19.9458 22.3243 19.9956 22.3246 20.0469 22.3248C20.4373 22.323 20.7835 22.2932 21.0938 22.0313C21.3283 21.7346 21.3809 21.4674 21.3808 21.0915C21.3809 21.0354 21.381 20.9793 21.3811 20.9216C21.3809 20.8298 21.3809 20.8298 21.3806 20.7361C21.3807 20.6702 21.3807 20.6042 21.3808 20.5382C21.3809 20.3571 21.3807 20.176 21.3804 19.995C21.3802 19.7996 21.3803 19.6043 21.3803 19.4089C21.3804 19.0705 21.3802 18.7321 21.38 18.3937C21.3796 17.9045 21.3795 17.4152 21.3794 16.9259C21.3793 16.1321 21.379 15.3384 21.3785 14.5446C21.3781 13.7735 21.3778 13.0024 21.3776 12.2313C21.3776 12.1838 21.3776 12.1362 21.3775 12.0873C21.3775 11.8488 21.3774 11.6104 21.3774 11.3719C21.3769 9.39378 21.3761 7.41564 21.375 5.43751C21.3313 5.43703 21.2875 5.43655 21.2425 5.43605C20.8307 5.43147 20.4189 5.42665 20.0072 5.42161C19.7954 5.41902 19.5837 5.41651 19.372 5.4142C19.1678 5.41197 18.9635 5.40951 18.7593 5.40691C18.6813 5.40595 18.6033 5.40507 18.5253 5.40427C18.4162 5.40315 18.3072 5.40174 18.1981 5.40026C18.1657 5.39999 18.1333 5.39972 18.1 5.39944C17.9601 5.39729 17.8526 5.38838 17.7188 5.34376C17.6645 5.18096 17.6637 5.03388 17.6623 4.86445C17.6618 4.83014 17.6613 4.79583 17.6609 4.76048C17.6594 4.64711 17.6582 4.53374 17.657 4.42036C17.6561 4.34174 17.6551 4.26312 17.6541 4.1845C17.6515 3.97759 17.6492 3.77068 17.6469 3.56377C17.6446 3.35263 17.642 3.14148 17.6394 2.93034C17.6343 2.51607 17.6296 2.10179 17.625 1.68751C16.2869 1.68532 14.9488 1.68367 13.6107 1.68265C12.9894 1.68217 12.3681 1.68151 11.7468 1.68044C11.2052 1.6795 10.6637 1.6789 10.1222 1.67869C9.83545 1.67857 9.54872 1.67828 9.26199 1.6776C8.99205 1.67696 8.72212 1.67677 8.45219 1.67691C8.35317 1.67688 8.25416 1.6767 8.15514 1.67634C8.01979 1.67587 7.88445 1.67598 7.7491 1.67624C7.71007 1.67596 7.67104 1.67569 7.63082 1.67541C7.26819 1.67726 6.94221 1.72729 6.65626 1.96876ZM18.5625 2.43751C18.5625 3.11814 18.5625 3.79876 18.5625 4.50001C19.2431 4.50001 19.9238 4.50001 20.625 4.50001C20.395 4.23061 20.395 4.23061 20.1534 3.97543C20.1015 3.92338 20.1015 3.92338 20.0487 3.87028C20.0123 3.83403 19.976 3.79779 19.9385 3.76045C19.9006 3.72242 19.8626 3.68438 19.8234 3.6452C19.7437 3.56545 19.6639 3.48576 19.5841 3.40613C19.4613 3.2836 19.3388 3.16081 19.2163 3.03801C19.1387 2.96045 19.0611 2.8829 18.9835 2.80537C18.9282 2.75001 18.9282 2.75001 18.8719 2.69353C18.8381 2.65986 18.8043 2.6262 18.7694 2.59151C18.7396 2.56169 18.7097 2.53187 18.679 2.50115C18.6193 2.43224 18.6193 2.43224 18.5625 2.43751ZM2.83686 9.54457C2.66616 9.77503 2.63596 9.98674 2.64954 10.2702C2.69139 10.5251 2.79695 10.6915 2.99543 10.8545C3.31275 11.0689 3.62819 11.0694 4.00013 11.0671C4.0367 11.067 4.07328 11.067 4.11096 11.0669C4.2465 11.0667 4.38204 11.066 4.51758 11.0654C4.97294 11.064 4.97294 11.064 5.43751 11.0625C5.43751 10.4438 5.43751 9.82501 5.43751 9.18751C5.13586 9.18558 4.83422 9.18365 4.52344 9.18165C4.38173 9.18037 4.38173 9.18037 4.23716 9.17907C4.1612 9.17879 4.08524 9.17855 4.00928 9.17836C3.97072 9.17788 3.93215 9.1774 3.89242 9.1769C3.49105 9.17678 3.1216 9.23353 2.83686 9.54457ZM2.625 11.8125C2.62282 12.5301 2.62116 13.2477 2.62015 13.9653C2.61967 14.2985 2.61901 14.6317 2.61793 14.965C2.61699 15.2557 2.61639 15.5463 2.61618 15.837C2.61606 15.9907 2.61573 16.1444 2.61509 16.2981C2.61441 16.4703 2.61432 16.6425 2.61436 16.8147C2.61402 16.8649 2.61369 16.915 2.61334 16.9667C2.61504 17.5944 2.69222 18.1082 3.13184 18.5772C3.60738 19.0234 4.18831 19.0456 4.8142 19.0432C4.87203 19.0433 4.92985 19.0435 4.98943 19.0436C5.1485 19.0439 5.30757 19.0438 5.46664 19.0435C5.63874 19.0433 5.81083 19.0436 5.98293 19.0439C6.31945 19.0443 6.65597 19.0442 6.99249 19.0439C7.26601 19.0437 7.53952 19.0437 7.81303 19.0438C7.85202 19.0438 7.89102 19.0438 7.93119 19.0439C8.01042 19.0439 8.08964 19.0439 8.16887 19.0439C8.91075 19.0442 9.65264 19.0439 10.3945 19.0434C11.0309 19.043 11.6672 19.0431 12.3035 19.0435C13.0431 19.044 13.7827 19.0442 14.5223 19.0439C14.6012 19.0439 14.6801 19.0438 14.7589 19.0438C14.7977 19.0438 14.8365 19.0438 14.8765 19.0438C15.1498 19.0437 15.423 19.0438 15.6962 19.044C16.0291 19.0443 16.362 19.0442 16.6949 19.0437C16.8647 19.0435 17.0344 19.0434 17.2042 19.0437C17.3883 19.044 17.5724 19.0436 17.7565 19.0432C17.8101 19.0434 17.8637 19.0436 17.9189 19.0438C18.3885 19.0449 18.3885 19.0449 18.7881 18.8233C18.994 18.582 19.0369 18.3993 19.0375 18.0886C19.0377 18.0414 19.0379 17.9943 19.0381 17.9457C19.0381 17.8688 19.0381 17.8688 19.0381 17.7904C19.0382 17.736 19.0384 17.6816 19.0385 17.6256C19.039 17.4459 19.0391 17.2661 19.0391 17.0863C19.0392 16.9929 19.0394 16.8995 19.0395 16.8061C19.0399 16.5125 19.04 16.2189 19.0399 15.9252C19.0399 15.6228 19.0404 15.3204 19.0411 15.018C19.0418 14.7579 19.042 14.4979 19.042 14.2378C19.042 14.0827 19.0421 13.9275 19.0426 13.7724C19.0431 13.5993 19.0429 13.4262 19.0426 13.253C19.0429 13.202 19.0432 13.1509 19.0434 13.0983C19.0433 12.6362 19.0433 12.6362 18.8232 12.2432C18.5731 12.0296 18.3853 11.9942 18.0635 11.9939C17.984 11.9937 17.984 11.9937 17.9028 11.9934C17.8447 11.9934 17.7867 11.9935 17.7268 11.9935C17.665 11.9934 17.6031 11.9933 17.5394 11.9931C17.3678 11.9928 17.1961 11.9927 17.0245 11.9927C16.8393 11.9926 16.6542 11.9922 16.4691 11.9919C16.1482 11.9914 15.8273 11.991 15.5064 11.9907C14.9991 11.9902 14.4917 11.9892 13.9843 11.9882C13.8106 11.9878 13.637 11.9875 13.4634 11.9871C13.3983 11.987 13.3983 11.987 13.3319 11.9869C12.8379 11.9859 12.3439 11.985 11.85 11.9842C11.8048 11.9841 11.7597 11.984 11.7131 11.9839C10.9818 11.9827 10.2504 11.9818 9.51905 11.9811C8.76789 11.9802 8.01672 11.9789 7.26555 11.9771C6.80241 11.976 6.33927 11.9753 5.87613 11.9752C5.55855 11.9751 5.24096 11.9745 4.92338 11.9735C4.74028 11.973 4.55718 11.9726 4.37408 11.9729C4.20619 11.9731 4.03831 11.9727 3.87042 11.9718C3.78148 11.9715 3.69254 11.9719 3.6036 11.9723C3.25662 11.9696 2.95449 11.9223 2.625 11.8125Z" fill="black"/>
    <path d="M9.65625 12.9082C9.69492 12.9076 9.73359 12.907 9.77343 12.9064C10.0572 12.9818 10.255 13.3227 10.4355 13.5439C10.4641 13.5788 10.4927 13.6136 10.5221 13.6496C10.7479 13.9258 10.9696 14.2051 11.1888 14.4866C11.2864 14.6116 11.385 14.7357 11.4844 14.8594C11.6821 14.7872 11.7816 14.6411 11.9033 14.4785C11.9487 14.4192 11.9942 14.3599 12.0397 14.3007C12.0636 14.2696 12.0875 14.2384 12.1121 14.2064C12.2661 14.0083 12.4262 13.8152 12.5857 13.6217C12.7039 13.4774 12.8171 13.3324 12.9232 13.179C13.0306 13.0321 13.0967 12.9496 13.2799 12.9201C13.3197 12.9191 13.3594 12.9181 13.4004 12.917C13.4399 12.9151 13.4794 12.9132 13.5201 12.9113C13.6995 12.9503 13.762 13.0288 13.875 13.1719C13.9088 13.3087 13.9071 13.4416 13.9053 13.582C13.9057 13.6228 13.9061 13.6636 13.9066 13.7057C13.9076 13.8403 13.9069 13.9748 13.9061 14.1094C13.9063 14.2031 13.9065 14.2968 13.9068 14.3904C13.9071 14.5867 13.9066 14.7829 13.9056 14.9791C13.9042 15.2306 13.905 15.4819 13.9064 15.7333C13.9072 15.9268 13.907 16.1202 13.9064 16.3136C13.9062 16.4063 13.9064 16.499 13.9069 16.5917C13.9075 16.7213 13.9066 16.8509 13.9053 16.9805C13.906 17.0378 13.906 17.0378 13.9068 17.0963C13.903 17.2959 13.8918 17.3695 13.7632 17.5315C13.63 17.6331 13.5714 17.6569 13.4062 17.6543C13.3482 17.6552 13.3482 17.6552 13.2891 17.6561C13.1601 17.6219 13.08 17.574 12.9877 17.4773C12.8736 17.2805 12.9036 17.0349 12.9044 16.814C12.9036 16.7582 12.9029 16.7023 12.9022 16.6448C12.9002 16.4666 12.8998 16.2885 12.8994 16.1104C12.8983 15.9895 12.8971 15.8686 12.8958 15.7477C12.8929 15.4516 12.8913 15.1555 12.8906 14.8594C12.8561 14.9034 12.8215 14.9475 12.786 14.9928C12.7397 15.0517 12.6935 15.1106 12.6473 15.1696C12.6246 15.1985 12.602 15.2273 12.5786 15.2571C11.8395 16.1986 11.8395 16.1986 11.6563 16.2486C11.4439 16.2529 11.2939 16.2466 11.1357 16.0957C11.0783 16.0288 11.0229 15.9602 10.9687 15.8906C10.9272 15.839 10.8855 15.7874 10.8439 15.7359C10.6598 15.5059 10.4811 15.2721 10.3045 15.0363C10.2795 15.0031 10.2546 14.9698 10.2289 14.9355C10.2101 14.9104 10.1913 14.8852 10.1719 14.8594C10.1718 14.8906 10.1717 14.9218 10.1717 14.9539C10.1707 15.2786 10.1682 15.6033 10.1647 15.928C10.1636 16.0491 10.163 16.1703 10.1627 16.2915C10.1623 16.4657 10.1603 16.6398 10.1581 16.814C10.1583 16.8682 10.1585 16.9223 10.1587 16.9781C10.1511 17.3973 10.1511 17.3973 10.0131 17.5419C9.88069 17.6317 9.81475 17.6568 9.65625 17.6543C9.59824 17.6552 9.59824 17.6552 9.53906 17.6561C9.36491 17.6099 9.29903 17.5312 9.1875 17.3906C9.15363 17.2538 9.15543 17.1209 9.15717 16.9805C9.15676 16.9397 9.15635 16.8989 9.15592 16.8568C9.15489 16.7222 9.15558 16.5877 9.15637 16.4531C9.15621 16.3594 9.15598 16.2657 9.15569 16.1721C9.15534 15.9758 9.15584 15.7796 9.15694 15.5834C9.15828 15.3319 9.15751 15.0806 9.1561 14.8292C9.15526 14.6357 9.15553 14.4423 9.15613 14.2489C9.15629 14.1562 9.1561 14.0635 9.15555 13.9708C9.15496 13.8412 9.15586 13.7116 9.15717 13.582C9.15646 13.5247 9.15646 13.5247 9.15573 13.4662C9.15945 13.2666 9.1707 13.193 9.29925 13.031C9.43245 12.9294 9.49107 12.9056 9.65625 12.9082Z" fill="black"/>
    <path d="M5.55469 12.9064C5.89502 12.9968 6.07575 13.4199 6.24903 13.6963C6.27927 13.7436 6.30951 13.791 6.34067 13.8398C6.5625 14.1907 6.5625 14.1907 6.5625 14.2969C6.69234 14.1797 6.77519 14.0487 6.86573 13.8997C6.89636 13.8498 6.927 13.8 6.95856 13.7486C7.02273 13.6433 7.08682 13.5379 7.15082 13.4325C7.18146 13.3827 7.21209 13.3329 7.24366 13.2816C7.27148 13.2358 7.29931 13.1901 7.32798 13.1429C7.40625 13.0312 7.40625 13.0312 7.54688 12.9375C7.77798 12.9003 7.95975 12.904 8.16211 13.0254C8.28765 13.2346 8.29237 13.4017 8.25 13.6406C8.15867 13.8419 8.03981 14.0205 7.91602 14.2031C7.85336 14.2988 7.79074 14.3945 7.72815 14.4902C7.63906 14.626 7.54977 14.7614 7.45775 14.8953C7.43121 14.9356 7.40467 14.976 7.37732 15.0176C7.35346 15.0527 7.3296 15.0879 7.30502 15.1241C7.24818 15.2832 7.29214 15.3637 7.35938 15.5156C7.40478 15.5972 7.45307 15.6772 7.50385 15.7555C7.54622 15.8214 7.54622 15.8214 7.58945 15.8886C7.63364 15.9563 7.63364 15.9563 7.67871 16.0254C7.76465 16.1585 7.85056 16.2916 7.93639 16.4247C7.98631 16.5017 8.03675 16.5783 8.08791 16.6545C8.23187 16.8729 8.28833 17.0186 8.27198 17.2839C8.25 17.3906 8.25 17.3906 8.16211 17.5371C7.98604 17.6427 7.86582 17.653 7.66407 17.6561C7.31249 17.5627 7.14487 17.1282 6.97559 16.8398C6.91752 16.7413 6.85924 16.6429 6.80072 16.5447C6.76246 16.4795 6.76246 16.4795 6.72342 16.4131C6.66458 16.307 6.66458 16.307 6.5625 16.2656C6.55008 16.2992 6.53766 16.3329 6.52486 16.3675C6.4255 16.6021 6.28037 16.8101 6.14356 17.0244C6.11386 17.0718 6.08416 17.1191 6.05356 17.1679C6.01046 17.2356 6.01046 17.2356 5.96649 17.3047C5.94033 17.346 5.91417 17.3872 5.88722 17.4297C5.7954 17.5545 5.71887 17.6174 5.56385 17.6424C5.35813 17.6477 5.23632 17.6449 5.05664 17.5371C4.93267 17.3305 4.93356 17.158 4.96875 16.9219C5.03482 16.7634 5.12547 16.6287 5.22364 16.4883C5.24893 16.4501 5.27423 16.4119 5.3003 16.3725C5.37627 16.2581 5.45353 16.1446 5.53125 16.0312C5.59591 15.9366 5.66037 15.8418 5.72398 15.7464C5.77694 15.6671 5.83103 15.5886 5.8852 15.5101C5.96643 15.3485 5.95704 15.3102 5.90625 15.1406C5.85572 15.0455 5.80124 14.9524 5.7442 14.861C5.72807 14.835 5.71193 14.8089 5.69531 14.7821C5.64388 14.6992 5.59197 14.6167 5.54004 14.5342C5.50568 14.4789 5.47135 14.4237 5.43705 14.3684C5.31188 14.1672 5.18682 13.9665 5.05287 13.771C4.92472 13.5724 4.92654 13.4004 4.96875 13.1719C5.11834 12.9226 5.28459 12.9106 5.55469 12.9064Z" fill="black"/>
    <path d="M8.34476 7.75148C8.39362 7.75093 8.39362 7.75093 8.44347 7.75037C8.55235 7.74944 8.66114 7.75018 8.77002 7.75092C8.84818 7.7506 8.92635 7.75018 9.00451 7.74967C9.21661 7.7486 9.42869 7.74902 9.64079 7.74976C9.86277 7.75035 10.0848 7.7498 10.3067 7.74944C10.6795 7.74901 11.0523 7.74957 11.425 7.75069C11.856 7.75196 12.2869 7.75155 12.7179 7.75026C13.0879 7.7492 13.458 7.74905 13.828 7.74966C14.049 7.75003 14.27 7.75007 14.491 7.7493C14.6988 7.74862 14.9065 7.74909 15.1143 7.75045C15.1905 7.75076 15.2668 7.75067 15.343 7.75015C15.4471 7.74951 15.5511 7.75031 15.6552 7.75148C15.7135 7.75157 15.7717 7.75166 15.8317 7.75175C16.0264 7.78937 16.0962 7.8631 16.2188 8.01562C16.2499 8.13281 16.2499 8.13281 16.248 8.24999C16.2487 8.28867 16.2493 8.32734 16.2499 8.36718C16.2044 8.53841 16.1201 8.60708 15.9844 8.71874C15.8317 8.74824 15.8317 8.74824 15.6552 8.74851C15.6064 8.74905 15.6064 8.74905 15.5565 8.74961C15.4477 8.75055 15.3389 8.74981 15.23 8.74907C15.1518 8.74939 15.0737 8.74981 14.9955 8.75032C14.7834 8.75138 14.5713 8.75097 14.3592 8.75023C14.1372 8.74963 13.9152 8.75018 13.6933 8.75055C13.3205 8.75098 12.9477 8.75042 12.575 8.7493C12.144 8.74802 11.7131 8.74844 11.2821 8.74973C10.9121 8.75079 10.542 8.75094 10.172 8.75033C9.951 8.74996 9.73002 8.74991 9.50902 8.75069C9.30125 8.75137 9.09351 8.7509 8.88573 8.74954C8.80949 8.74923 8.73324 8.74932 8.65699 8.74984C8.55288 8.75048 8.44887 8.74967 8.34476 8.74851C8.28651 8.74842 8.22827 8.74833 8.16826 8.74824C7.97358 8.71062 7.90381 8.63689 7.78125 8.48437C7.75012 8.36718 7.75012 8.36718 7.75195 8.24999C7.75135 8.21132 7.75074 8.17265 7.75012 8.13281C7.83214 7.82402 8.05222 7.75193 8.34476 7.75148Z" fill="black"/>
    <path d="M8.34476 5.87648C8.39362 5.87593 8.39362 5.87593 8.44347 5.87537C8.55235 5.87444 8.66114 5.87518 8.77002 5.87592C8.84818 5.8756 8.92635 5.87518 9.00451 5.87467C9.21661 5.8736 9.42869 5.87402 9.64079 5.87476C9.86277 5.87535 10.0848 5.8748 10.3067 5.87444C10.6795 5.87401 11.0523 5.87457 11.425 5.87569C11.856 5.87696 12.2869 5.87655 12.7179 5.87526C13.0879 5.8742 13.458 5.87405 13.828 5.87466C14.049 5.87503 14.27 5.87507 14.491 5.8743C14.6988 5.87362 14.9065 5.87409 15.1143 5.87545C15.1905 5.87576 15.2668 5.87567 15.343 5.87515C15.4471 5.87451 15.5511 5.87531 15.6552 5.87648C15.7135 5.87657 15.7717 5.87666 15.8317 5.87675C16.0264 5.91437 16.0962 5.9881 16.2188 6.14062C16.2499 6.25781 16.2499 6.25781 16.248 6.37499C16.2487 6.41367 16.2493 6.45234 16.2499 6.49218C16.2044 6.66341 16.1201 6.73208 15.9844 6.84374C15.8317 6.87324 15.8317 6.87324 15.6552 6.87351C15.6064 6.87405 15.6064 6.87405 15.5565 6.87461C15.4477 6.87555 15.3389 6.87481 15.23 6.87407C15.1518 6.87439 15.0737 6.87481 14.9955 6.87532C14.7834 6.87638 14.5713 6.87597 14.3592 6.87523C14.1372 6.87463 13.9152 6.87518 13.6933 6.87555C13.3205 6.87598 12.9477 6.87542 12.575 6.8743C12.144 6.87302 11.7131 6.87344 11.2821 6.87473C10.9121 6.87579 10.542 6.87594 10.172 6.87533C9.951 6.87496 9.73002 6.87491 9.50902 6.87569C9.30125 6.87637 9.09351 6.8759 8.88573 6.87454C8.80949 6.87423 8.73324 6.87432 8.65699 6.87484C8.55288 6.87548 8.44887 6.87467 8.34476 6.87351C8.28651 6.87342 8.22827 6.87333 8.16826 6.87324C7.97358 6.83562 7.90381 6.76189 7.78125 6.60937C7.75012 6.49218 7.75012 6.49218 7.75195 6.37499C7.75135 6.33632 7.75074 6.29765 7.75012 6.25781C7.83214 5.94902 8.05222 5.87693 8.34476 5.87648Z" fill="black"/>
    <path d="M15.2812 12.9082C15.3199 12.9076 15.3586 12.907 15.3984 12.9064C15.5704 12.9521 15.6385 13.0348 15.75 13.1719C15.7721 13.2986 15.7799 13.3952 15.7766 13.5212C15.7766 13.5555 15.7767 13.5899 15.7767 13.6252C15.7765 13.7381 15.7747 13.8509 15.7729 13.9638C15.7724 14.0423 15.7721 14.1208 15.7719 14.1993C15.771 14.4054 15.7687 14.6115 15.7661 14.8177C15.7637 15.0282 15.7626 15.2387 15.7614 15.4492C15.7589 15.862 15.7549 16.2748 15.75 16.6875C15.7843 16.6863 15.8185 16.685 15.8539 16.6838C16.0097 16.6789 16.1654 16.6759 16.3213 16.6729C16.3752 16.6709 16.4291 16.6689 16.4847 16.6669C16.9315 16.6604 16.9315 16.6604 17.0746 16.7983C17.1624 16.9311 17.188 16.9985 17.1855 17.1562C17.1861 17.1949 17.1868 17.2336 17.1874 17.2734C17.141 17.4481 17.0633 17.5134 16.9219 17.625C16.7801 17.6591 16.6423 17.6579 16.4971 17.6561C16.436 17.6565 16.436 17.6565 16.3736 17.6568C16.2878 17.657 16.2019 17.6565 16.116 17.6556C15.9848 17.6543 15.8537 17.6555 15.7225 17.657C15.6389 17.6569 15.5553 17.6566 15.4717 17.6561C15.4131 17.6568 15.4131 17.6568 15.3533 17.6576C15.3165 17.6568 15.2798 17.6561 15.2419 17.6553C15.2098 17.6551 15.1777 17.655 15.1447 17.6548C14.9823 17.6053 14.9142 17.5247 14.8125 17.3906C14.7791 17.2536 14.7804 17.121 14.7822 16.9805C14.7818 16.9397 14.7813 16.8989 14.7809 16.8568C14.7799 16.7222 14.7806 16.5877 14.7814 16.4531C14.7812 16.3594 14.781 16.2657 14.7807 16.1721C14.7803 15.9758 14.7808 15.7796 14.7819 15.5834C14.7833 15.3319 14.7825 15.0806 14.7811 14.8292C14.7803 14.6357 14.7805 14.4423 14.7811 14.2489C14.7813 14.1562 14.7811 14.0635 14.7806 13.9708C14.78 13.8412 14.7809 13.7116 14.7822 13.582C14.7815 13.5247 14.7815 13.5247 14.7807 13.4662C14.7844 13.2666 14.7957 13.193 14.9243 13.031C15.0575 12.9294 15.1161 12.9056 15.2812 12.9082Z" fill="black"/>
    <path d="M8.42578 4.00092C8.48699 4.0003 8.48699 4.0003 8.54943 3.99967C8.68402 3.99864 8.81854 3.99933 8.95312 4.00012C9.04681 3.99996 9.1405 3.99973 9.23419 3.99944C9.43043 3.99909 9.62664 3.99959 9.82288 4.00069C10.0743 4.00203 10.3257 4.00126 10.5771 3.99985C10.7705 3.99901 10.9639 3.99928 11.1574 3.99988C11.2501 4.00004 11.3428 3.99985 11.4355 3.9993C11.5651 3.99871 11.6946 3.99961 11.8242 4.00092C11.8625 4.00044 11.9007 3.99997 11.9401 3.99948C12.1397 4.0032 12.2132 4.01445 12.3753 4.143C12.4768 4.2762 12.5006 4.33482 12.498 4.5C12.499 4.558 12.499 4.558 12.4999 4.61718C12.4536 4.79133 12.375 4.85722 12.2344 4.96875C12.0975 5.00261 11.9647 5.00082 11.8242 4.99907C11.763 4.99969 11.763 4.99969 11.7006 5.00032C11.566 5.00135 11.4315 5.00067 11.2969 4.99987C11.2032 5.00003 11.1095 5.00026 11.0158 5.00055C10.8196 5.0009 10.6234 5.0004 10.4271 4.9993C10.1757 4.99797 9.92433 4.99874 9.6729 5.00014C9.47947 5.00099 9.28606 5.00072 9.09263 5.00011C8.99993 4.99995 8.90723 5.00014 8.81454 5.00069C8.68492 5.00129 8.55539 5.00038 8.42578 4.99907C8.36842 4.99978 8.36842 4.99978 8.30991 5.00051C8.11035 4.99679 8.03679 4.98554 7.87475 4.85699C7.77318 4.72379 7.74937 4.66517 7.75195 4.5C7.75135 4.46132 7.75074 4.42265 7.75012 4.38281C7.84483 4.02625 8.11071 3.99701 8.42578 4.00092Z" fill="black"/>
</svg>
